<svg id="Layer_1" data-name="Layer 1" xmlns="http://www.w3.org/2000/svg" viewBox="0 0 7.62 7.62"><defs><style>.cls-1{fill:#52546d;}.cls-2{fill:#1762a9;}.cls-3{fill:#18a95e;}.cls-4{fill:#3a18a9;}.cls-5{fill:#e7e6ea;}</style></defs><path class="cls-1" d="M3.81,7.62A3.81,3.81,0,1,0,0,3.81,3.8,3.8,0,0,0,3.81,7.62"/><path class="cls-2" d="M3.81,1A2.85,2.85,0,1,0,6.66,3.81,2.86,2.86,0,0,0,3.81,1Zm0,5.53A2.68,2.68,0,1,1,6.49,3.81,2.68,2.68,0,0,1,3.81,6.49Z"/><rect class="cls-3" x="3.73" y="1.05" width="0.17" height="5.53"/><path class="cls-2" d="M3.81.67a.38.38,0,1,0,.38.38A.38.38,0,0,0,3.81.67Z"/><path class="cls-2" d="M3.81,6.2a.38.38,0,1,0,.38.38A.38.38,0,0,0,3.81,6.2Z"/><rect class="cls-3" x="3.73" y="1.05" width="0.17" height="5.53" transform="translate(-1.4 5.21) rotate(-60)"/><path class="cls-4" d="M1.61,2.1a.38.38,0,1,0,.14.52A.39.39,0,0,0,1.61,2.1Z"/><path class="cls-4" d="M6.4,4.87A.37.37,0,0,0,5.88,5,.37.37,0,0,0,6,5.52a.36.36,0,0,0,.51-.14A.36.36,0,0,0,6.4,4.87Z"/><rect class="cls-3" x="1.05" y="3.73" width="5.53" height="0.17" transform="matrix(0.87, -0.5, 0.5, 0.87, -1.4, 2.42)"/><path class="cls-5" d="M1.23,4.87a.37.37,0,0,0-.14.51.37.37,0,0,0,.52.14A.38.38,0,0,0,1.75,5,.38.38,0,0,0,1.23,4.87Z"/><path class="cls-5" d="M6,2.1a.37.37,0,0,0-.14.52.38.38,0,0,0,.52.14A.38.38,0,0,0,6,2.1Z"/><path class="cls-5" d="M3.81,1.89A1.92,1.92,0,1,0,5.73,3.81,1.92,1.92,0,0,0,3.81,1.89Z"/><path class="cls-4" d="M3.81,1.73A2.09,2.09,0,1,0,5.9,3.81,2.08,2.08,0,0,0,3.81,1.73Zm0,4A1.92,1.92,0,1,1,5.73,3.81,1.92,1.92,0,0,1,3.81,5.73Z"/><path class="cls-3" d="M4.87,3.32H4.19a.38.38,0,0,1-.76,0H2.75a.21.21,0,0,0-.21.21V5.12H3V3.89a.06.06,0,0,1,.12,0V5.12H4.52V3.89a.07.07,0,0,1,.07-.06.06.06,0,0,1,.06.06V5.12h.43V3.53A.21.21,0,0,0,4.87,3.32Z"/><path class="cls-3" d="M3.81,2.24a.49.49,0,1,0,0,1,.49.49,0,1,0,0-1Z"/></svg>