<svg id="Layer_1" data-name="Layer 1" xmlns="http://www.w3.org/2000/svg" viewBox="0 0 7.58 7.62"><defs><style>.cls-1{fill:#52546d;}.cls-2{fill:#e7e6ea;}.cls-3{fill:#181a24;}.cls-4{fill:#1762a9;}.cls-5{fill:#ade7ec;}.cls-6{fill:#18a95e;}.cls-7{fill:#3a18a9;}</style></defs><path class="cls-1" d="M3.77,7.62A3.81,3.81,0,0,0,3.77,0h0a3.81,3.81,0,0,0,0,7.62"/><path class="cls-2" d="M6.47,3.23A1.94,1.94,0,1,1,4.54,1.29,1.93,1.93,0,0,1,6.47,3.23Z"/><path class="cls-3" d="M4.54,5.24H4.46l-.2,0a.06.06,0,0,1-.06-.08.08.08,0,0,1,.08-.07l.18,0a1.86,1.86,0,1,0,.15-3.72A1.83,1.83,0,0,0,2.75,2.71a.09.09,0,0,1-.1,0,.07.07,0,0,1,0-.09A2,2,0,1,1,4.54,5.24Z"/><path class="cls-4" d="M4.43,3.33H3.75a1.63,1.63,0,0,0,.18.59,2.62,2.62,0,0,1,.5-.07Z"/><path class="cls-4" d="M4.37,4.82a3.57,3.57,0,0,1-.54-.66,2.91,2.91,0,0,0-.43.19A1.57,1.57,0,0,0,4.37,4.82Z"/><path class="cls-4" d="M4.64,3.12h.68a1.61,1.61,0,0,0-.19-.61,2.51,2.51,0,0,1-.49.08Z"/><path class="cls-4" d="M3.74,2.45a3.49,3.49,0,0,1-.47-.2,1.78,1.78,0,0,0-.33.87h.61A1.72,1.72,0,0,1,3.74,2.45Z"/><path class="cls-4" d="M4.37,1.64a1.6,1.6,0,0,0-1,.45,2.91,2.91,0,0,0,.43.19A3.69,3.69,0,0,1,4.37,1.64Z"/><path class="cls-4" d="M5.23,2.28a2.91,2.91,0,0,0,.43-.19,1.6,1.6,0,0,0-1-.45A3.69,3.69,0,0,1,5.23,2.28Z"/><path class="cls-4" d="M5.52,3.12h.61a1.6,1.6,0,0,0-.33-.87,3,3,0,0,1-.47.2A1.72,1.72,0,0,1,5.52,3.12Z"/><path class="cls-4" d="M4,4.11a3.73,3.73,0,0,0,.4.48V4.05A1.76,1.76,0,0,0,4,4.11Z"/><path class="cls-4" d="M4.64,3.85a2.51,2.51,0,0,1,.5.07,1.36,1.36,0,0,0,.18-.59H4.64Z"/><path class="cls-4" d="M4.64,4.59A3.73,3.73,0,0,0,5,4.11a1.76,1.76,0,0,0-.4-.06Z"/><path class="cls-4" d="M5.34,4a3,3,0,0,1,.47.21,1.61,1.61,0,0,0,.32-.86H5.52A1.53,1.53,0,0,1,5.34,4Z"/><path class="cls-5" d="M3.55,3.33H2.94a1.61,1.61,0,0,0,.32.86A3,3,0,0,1,3.73,4,1.69,1.69,0,0,1,3.55,3.33Z"/><path class="cls-4" d="M5,2.33a2.48,2.48,0,0,0-.38-.47v.53A2.32,2.32,0,0,0,5,2.33Z"/><path class="cls-4" d="M4.7,4.82a1.62,1.62,0,0,0,1-.47,3.63,3.63,0,0,0-.44-.19A3.21,3.21,0,0,1,4.7,4.82Z"/><path class="cls-4" d="M4.43,1.86a2.94,2.94,0,0,0-.38.47,2.32,2.32,0,0,0,.38.06Z"/><path class="cls-4" d="M4.43,2.59a2.51,2.51,0,0,1-.49-.08,1.67,1.67,0,0,0-.19.61h.68Z"/><path class="cls-6" d="M2.42,3.77a.77.77,0,0,1,0-.15H1.58a.77.77,0,0,0,0,.15.68.68,0,0,0,0,.14h.86A.68.68,0,0,1,2.42,3.77Z"/><path class="cls-3" d="M1.58,3.62H1.35a.15.15,0,0,0-.14.15.14.14,0,0,0,.14.14h.23a.68.68,0,0,1,0-.14A.77.77,0,0,1,1.58,3.62Z"/><path class="cls-3" d="M4,3.77A.81.81,0,0,0,3.23,3a.8.8,0,0,0-.79.66.77.77,0,0,0,0,.15.68.68,0,0,0,0,.14.8.8,0,0,0,.79.67A.81.81,0,0,0,4,3.77Z"/><path class="cls-4" d="M3.83,3.77a.6.6,0,0,0-1.19-.11s0,.07,0,.11,0,.07,0,.1a.61.61,0,0,0,.59.5A.6.6,0,0,0,3.83,3.77Z"/><path class="cls-6" d="M4.75,2.49a.21.21,0,0,0-.21-.21.2.2,0,0,0-.21.17.06.06,0,0,0,0,0,.08.08,0,0,0,0,0,.2.2,0,0,0,.21.17A.21.21,0,0,0,4.75,2.49Z"/><path class="cls-7" d="M5.63,3.23A.21.21,0,0,0,5.42,3a.2.2,0,0,0-.21.17.06.06,0,0,0,0,0,.08.08,0,0,0,0,0,.2.2,0,0,0,.21.17A.21.21,0,0,0,5.63,3.23Z"/><path class="cls-7" d="M3.45,3.77a.22.22,0,0,0-.43,0v.08a.22.22,0,0,0,.43,0Z"/><rect class="cls-4" x="3.36" y="5.44" width="0.53" height="0.83"/><rect class="cls-6" x="2.58" y="4.9" width="0.53" height="1.38"/><polyline class="cls-4" points="1.81 6.27 2.35 6.27 2.35 4.19 1.81 4.19 1.81 6.27"/></svg>