<svg id="Layer_1" data-name="Layer 1" xmlns="http://www.w3.org/2000/svg" viewBox="0 0 7.62 7.62"><defs><style>.cls-1{fill:#52546d;}.cls-2{fill:#31354a;}.cls-3{fill:#18a95e;}.cls-4{fill:#1762a9;}.cls-5{fill:#3a18a9;}.cls-6{fill:#e7e6ea;}</style></defs><path class="cls-1" d="M3.81,0A3.81,3.81,0,1,0,7.62,3.81,3.82,3.82,0,0,0,3.81,0Z"/><polygon class="cls-2" points="1.93 3.08 2.28 3.08 2.23 3.73 2.87 3.08 4.6 3.08 4.6 1.14 1.93 1.14 1.93 3.08"/><rect class="cls-3" x="2.12" y="1.36" width="2.29" height="1.51"/><polygon class="cls-2" points="3.3 4.59 5.03 4.59 5.66 5.24 5.61 4.59 5.96 4.59 5.96 2.65 3.3 2.65 3.3 4.59"/><rect class="cls-4" x="3.49" y="2.87" width="2.29" height="1.51"/><polygon class="cls-2" points="1.93 6.1 2.28 6.1 2.23 6.75 2.87 6.1 4.6 6.1 4.6 4.16 1.93 4.16 1.93 6.1"/><rect class="cls-5" x="2.12" y="4.38" width="2.29" height="1.51"/><rect class="cls-6" x="2.38" y="1.67" width="1.77" height="0.2"/><rect class="cls-6" x="2.38" y="5.03" width="0.69" height="0.2"/><rect class="cls-6" x="3.45" y="5.03" width="0.69" height="0.2"/><rect class="cls-6" x="2.38" y="2.14" width="1.2" height="0.2"/><path class="cls-6" d="M4,3.43a.19.19,0,0,0-.19.19A.18.18,0,0,0,4,3.81a.19.19,0,0,0,.19-.19A.2.2,0,0,0,4,3.43Z"/><path class="cls-6" d="M4.63,3.43a.19.19,0,0,0-.19.19.19.19,0,1,0,.38,0A.19.19,0,0,0,4.63,3.43Z"/><path class="cls-6" d="M5.28,3.43a.2.2,0,0,0-.19.19.19.19,0,0,0,.19.19.18.18,0,0,0,.19-.19A.19.19,0,0,0,5.28,3.43Z"/></svg>