<svg id="Layer_1" data-name="Layer 1" xmlns="http://www.w3.org/2000/svg" viewBox="0 0 7.62 7.63"><defs><style>.cls-1{fill:#52546d;}.cls-2{fill:#181a24;}.cls-3{fill:#e7e6ea;}.cls-4{fill:#1762a9;}.cls-5{fill:#18a95e;}.cls-6{fill:#3a18a9;}</style></defs><path class="cls-1" d="M3.81,7.62A3.81,3.81,0,1,0,0,3.81,3.8,3.8,0,0,0,3.81,7.62"/><path class="cls-2" d="M2.35,5.7a.22.22,0,0,0-.22.23.23.23,0,1,0,.45,0A.23.23,0,0,0,2.35,5.7Z"/><path class="cls-2" d="M5.27,5.7A.23.23,0,0,0,5,5.93a.23.23,0,0,0,.46,0A.23.23,0,0,0,5.27,5.7Z"/><path class="cls-2" d="M5,3.37v0a.37.37,0,0,1-.37.37H3a.36.36,0,0,1-.37-.37v0H2.13l-.5,2.56H6L5.49,3.37Z"/><rect class="cls-3" x="2.67" y="1.47" width="2.29" height="1.53"/><rect class="cls-2" x="2.95" y="1.75" width="1.72" height="0.13"/><rect class="cls-2" x="2.95" y="2.57" width="1.72" height="0.13"/><rect class="cls-2" x="2.95" y="2.16" width="1.72" height="0.13"/><path class="cls-4" d="M2.29,4.19l-.24,1.2a.22.22,0,0,0,.21.25h3.1a.21.21,0,0,0,.21-.25l-.23-1.2A.21.21,0,0,0,5.13,4H2.5A.21.21,0,0,0,2.29,4.19Z"/><path class="cls-5" d="M4.63,5.3H3a.09.09,0,0,0-.1.1.1.1,0,0,0,.1.11H4.63a.11.11,0,0,0,.11-.11A.1.1,0,0,0,4.63,5.3Z"/><path class="cls-5" d="M2.8,4.22a.11.11,0,0,0-.11.12.12.12,0,0,0,.11.12.12.12,0,0,0,.12-.12A.12.12,0,0,0,2.8,4.22Z"/><path class="cls-5" d="M3.14,4.22A.12.12,0,0,0,3,4.34a.12.12,0,0,0,.12.12.13.13,0,0,0,.12-.12A.12.12,0,0,0,3.14,4.22Z"/><path class="cls-5" d="M3.48,4.22a.12.12,0,0,0-.12.12.12.12,0,0,0,.12.12.12.12,0,0,0,.11-.12A.11.11,0,0,0,3.48,4.22Z"/><path class="cls-5" d="M3.81,4.22a.12.12,0,0,0-.12.12.13.13,0,0,0,.12.12.12.12,0,0,0,.12-.12A.12.12,0,0,0,3.81,4.22Z"/><path class="cls-5" d="M4.15,4.22A.12.12,0,0,0,4,4.34a.12.12,0,0,0,.12.12.13.13,0,0,0,.12-.12A.12.12,0,0,0,4.15,4.22Z"/><path class="cls-5" d="M4.48,4.22a.11.11,0,0,0-.11.12.12.12,0,0,0,.11.12.12.12,0,0,0,.12-.12A.12.12,0,0,0,4.48,4.22Z"/><path class="cls-5" d="M4.82,4.22a.12.12,0,0,0-.12.12.13.13,0,0,0,.12.12.12.12,0,0,0,.12-.12A.12.12,0,0,0,4.82,4.22Z"/><path class="cls-5" d="M2.64,4.56a.11.11,0,0,0-.12.11.12.12,0,0,0,.12.12.11.11,0,0,0,.11-.12A.11.11,0,0,0,2.64,4.56Z"/><path class="cls-5" d="M3,4.56a.12.12,0,0,0-.12.11A.12.12,0,0,0,3,4.79a.12.12,0,0,0,.12-.12A.11.11,0,0,0,3,4.56Z"/><path class="cls-5" d="M3.31,4.56a.11.11,0,0,0-.12.11.12.12,0,0,0,.12.12.12.12,0,0,0,.12-.12A.12.12,0,0,0,3.31,4.56Z"/><path class="cls-5" d="M3.64,4.56a.11.11,0,0,0-.11.11.11.11,0,0,0,.11.12.12.12,0,0,0,.12-.12A.11.11,0,0,0,3.64,4.56Z"/><path class="cls-5" d="M4,4.56a.11.11,0,0,0-.12.11.12.12,0,1,0,.24,0A.11.11,0,0,0,4,4.56Z"/><path class="cls-5" d="M4.32,4.56a.11.11,0,0,0-.12.11.12.12,0,0,0,.12.12.12.12,0,0,0,.12-.12A.12.12,0,0,0,4.32,4.56Z"/><path class="cls-5" d="M4.65,4.56a.12.12,0,0,0-.12.11.12.12,0,0,0,.12.12.12.12,0,0,0,.12-.12A.11.11,0,0,0,4.65,4.56Z"/><path class="cls-5" d="M5,4.56a.11.11,0,0,0-.12.11A.12.12,0,0,0,5,4.79a.12.12,0,0,0,.12-.12A.12.12,0,0,0,5,4.56Z"/><path class="cls-5" d="M2.47,4.89A.12.12,0,0,0,2.35,5a.12.12,0,0,0,.12.12A.12.12,0,0,0,2.59,5,.13.13,0,0,0,2.47,4.89Z"/><path class="cls-5" d="M2.8,4.89A.12.12,0,0,0,2.69,5a.11.11,0,0,0,.11.12A.12.12,0,0,0,2.92,5,.12.12,0,0,0,2.8,4.89Z"/><path class="cls-5" d="M3.14,4.89A.12.12,0,0,0,3,5a.12.12,0,0,0,.12.12A.12.12,0,0,0,3.26,5,.13.13,0,0,0,3.14,4.89Z"/><path class="cls-5" d="M3.48,4.89A.12.12,0,0,0,3.36,5a.12.12,0,0,0,.12.12A.11.11,0,0,0,3.59,5,.12.12,0,0,0,3.48,4.89Z"/><path class="cls-5" d="M3.81,4.89A.13.13,0,0,0,3.69,5a.12.12,0,0,0,.12.12A.12.12,0,0,0,3.93,5,.12.12,0,0,0,3.81,4.89Z"/><path class="cls-5" d="M4.15,4.89A.12.12,0,0,0,4,5a.12.12,0,0,0,.12.12A.12.12,0,0,0,4.27,5,.13.13,0,0,0,4.15,4.89Z"/><path class="cls-5" d="M4.48,4.89A.12.12,0,0,0,4.37,5a.11.11,0,0,0,.11.12A.12.12,0,0,0,4.6,5,.12.12,0,0,0,4.48,4.89Z"/><path class="cls-5" d="M4.82,4.89A.13.13,0,0,0,4.7,5a.12.12,0,0,0,.12.12A.12.12,0,0,0,4.94,5,.12.12,0,0,0,4.82,4.89Z"/><path class="cls-5" d="M5.16,4.89A.12.12,0,0,0,5,5a.12.12,0,0,0,.12.12A.12.12,0,0,0,5.28,5,.13.13,0,0,0,5.16,4.89Z"/><rect class="cls-2" x="1.91" y="3.13" width="3.81" height="0.12"/><rect class="cls-6" x="2.13" y="2.99" width="3.36" height="0.38"/><rect class="cls-2" x="5.72" y="2.88" width="0.23" height="0.61"/><rect class="cls-6" x="5.95" y="2.78" width="0.23" height="0.8"/><rect class="cls-2" x="1.68" y="2.88" width="0.23" height="0.61"/><rect class="cls-6" x="1.45" y="2.78" width="0.23" height="0.8"/></svg>