<svg id="Layer_1" data-name="Layer 1" xmlns="http://www.w3.org/2000/svg" viewBox="0 0 7.62 7.62"><defs><style>.cls-1{fill:#52546d;}.cls-2{fill:#e7e6ea;}.cls-3{fill:#1762a9;}.cls-4{fill:#18a95e;}.cls-5{fill:#3a18a9;}.cls-6{fill:#181a24;}</style></defs><path class="cls-1" d="M3.81,0A3.81,3.81,0,1,0,7.62,3.81,3.82,3.82,0,0,0,3.81,0"/><path class="cls-2" d="M3.82.91h0a.14.14,0,1,0,0,.27A.13.13,0,0,0,4,1.05.13.13,0,0,0,3.82.91Z"/><path class="cls-2" d="M4.46,1h0a.11.11,0,0,0-.15.1.13.13,0,0,0,.1.16h0a.13.13,0,0,0,0-.26Z"/><path class="cls-2" d="M5.07,1.2h0A.13.13,0,0,0,5,1.44l.06,0a.14.14,0,0,0,.06-.26Z"/><path class="cls-2" d="M5.62,1.55h0a.14.14,0,0,0-.19,0,.13.13,0,0,0,0,.19.16.16,0,0,0,.09,0,.12.12,0,0,0,.1-.05A.13.13,0,0,0,5.62,1.55Z"/><path class="cls-2" d="M6.64,3.16a.14.14,0,0,0-.16-.1.14.14,0,0,0-.11.16h0a.13.13,0,0,0,.13.1h0a.13.13,0,0,0,.1-.16Z"/><path class="cls-2" d="M6.08,2a.14.14,0,0,0-.21.17h0a.16.16,0,0,0,.1,0,.11.11,0,0,0,.09,0,.12.12,0,0,0,0-.18Z"/><path class="cls-2" d="M6.42,2.56h0a.13.13,0,0,0-.18-.06.14.14,0,0,0-.06.18h0a.14.14,0,0,0,.12.08h.06A.13.13,0,0,0,6.42,2.56Z"/><path class="cls-2" d="M6.58,3.68a.13.13,0,0,0-.14.13A.14.14,0,0,0,6.58,4a.13.13,0,0,0,.13-.14h0A.13.13,0,0,0,6.58,3.68Z"/><path class="cls-2" d="M3.81,1.62A2.19,2.19,0,1,0,6,3.81,2.19,2.19,0,0,0,3.81,1.62Z"/><path class="cls-3" d="M3.92,2V3.71h1.7A1.82,1.82,0,0,0,3.92,2Z"/><path class="cls-3" d="M3.92,5.62A1.81,1.81,0,0,0,5,5.14L3.92,4Z"/><path class="cls-4" d="M3.71,5.62V3.92H2A1.82,1.82,0,0,0,3.71,5.62Z"/><path class="cls-5" d="M2,3.71H3.71V2A1.83,1.83,0,0,0,2,3.71Z"/><path class="cls-6" d="M5.14,5a1.79,1.79,0,0,0,.48-1.12H4Z"/><path class="cls-2" d="M5.62,3.81v.11h.93V3.71H5.62Z"/><path class="cls-2" d="M3.71,2h.21V1.05H3.71Z"/><path class="cls-2" d="M1.75,3.71v.21H2V3.71Z"/><path class="cls-2" d="M3.92,3.71V2H3.71V3.71H2v.21H3.71v1.7h.21V4L5,5.14a.47.47,0,0,0,.1-.1L4,3.92H5.62V3.71Z"/><rect class="cls-2" x="1.98" y="3.39" width="1.73" height="0.05"/><rect class="cls-2" x="1.98" y="3.12" width="1.73" height="0.05"/><rect class="cls-2" x="1.98" y="2.86" width="1.73" height="0.05"/><rect class="cls-2" x="2.18" y="2.59" width="1.52" height="0.05"/><rect class="cls-2" x="2.45" y="2.32" width="1.26" height="0.05"/><path class="cls-4" d="M1.47,5.34l.2.2-.28.28a.11.11,0,0,0,0,.15.11.11,0,0,0,.08,0,.09.09,0,0,0,.07,0l.29-.28.2.2V5.34Z"/></svg>