<svg id="Layer_1" data-name="Layer 1" xmlns="http://www.w3.org/2000/svg" viewBox="0 0 7.63 7.63"><defs><style>.cls-1{fill:#52546d;}.cls-2{fill:#3a18a9;}.cls-3{fill:#181a24;}.cls-4{fill:#e7e6ea;}.cls-5{fill:#18a95e;}.cls-6{fill:#1762a9;}</style></defs><circle class="cls-1" cx="3.81" cy="3.81" r="3.81"/><rect class="cls-2" x="2.49" y="1.94" width="3.94" height="2.65" rx="0.51"/><path class="cls-3" d="M5.92,1.78H3a.67.67,0,0,0-.67.67V4.07A.68.68,0,0,0,3,4.75H5.92a.68.68,0,0,0,.67-.68V2.45A.67.67,0,0,0,5.92,1.78Zm.51,2.29a.51.51,0,0,1-.51.52H3a.51.51,0,0,1-.51-.52V2.45A.51.51,0,0,1,3,1.94H5.92a.51.51,0,0,1,.51.51Z"/><rect class="cls-4" x="2.49" y="3.46" width="3.94" height="0.61"/><rect class="cls-5" x="1.86" y="2.56" width="3.94" height="2.65" rx="0.51"/><path class="cls-3" d="M5.28,2.4H2.37a.67.67,0,0,0-.67.67V4.69a.67.67,0,0,0,.67.67H5.28A.67.67,0,0,0,6,4.69V3.07A.67.67,0,0,0,5.28,2.4ZM5.8,4.69a.51.51,0,0,1-.52.51H2.37a.51.51,0,0,1-.51-.51V3.07a.51.51,0,0,1,.51-.51H5.28a.51.51,0,0,1,.52.51Z"/><rect class="cls-4" x="1.86" y="4.08" width="3.94" height="0.61"/><rect class="cls-6" x="1.2" y="3.17" width="3.94" height="2.65" rx="0.51"/><path class="cls-3" d="M4.62,3H1.71A.68.68,0,0,0,1,3.69V5.3A.67.67,0,0,0,1.71,6H4.62a.67.67,0,0,0,.67-.68V3.69A.68.68,0,0,0,4.62,3ZM5.14,5.3a.52.52,0,0,1-.52.52H1.71A.51.51,0,0,1,1.2,5.3V3.69a.51.51,0,0,1,.51-.52H4.62a.52.52,0,0,1,.52.52Z"/><rect class="cls-4" x="1.2" y="4.69" width="3.94" height="0.61"/><path class="cls-2" d="M4.37,3.49a.44.44,0,0,0-.32.13.44.44,0,0,1,.13.32.44.44,0,0,1-.13.31.45.45,0,1,0,.32-.76Z"/><path class="cls-5" d="M3.74,3.49a.45.45,0,1,0,0,.89.44.44,0,0,0,.31-.13.44.44,0,0,1-.13-.31.44.44,0,0,1,.13-.32A.44.44,0,0,0,3.74,3.49Z"/><path class="cls-4" d="M3.92,3.94a.44.44,0,0,0,.13.31.44.44,0,0,0,.13-.31.44.44,0,0,0-.13-.32A.44.44,0,0,0,3.92,3.94Z"/><rect class="cls-3" x="1.58" y="4.24" width="1.24" height="0.14"/><rect class="cls-3" x="1.58" y="3.49" width="1.24" height="0.14"/><rect class="cls-3" x="1.58" y="3.87" width="1.24" height="0.14"/></svg>