<svg id="Layer_1" data-name="Layer 1" xmlns="http://www.w3.org/2000/svg" viewBox="0 0 7.62 7.63"><defs><style>.cls-1{fill:#52546d;}.cls-2{fill:#181a24;}.cls-3{fill:#1762a9;}.cls-4{fill:#e7e6ea;}.cls-5{fill:#18a95e;}.cls-6{fill:#3a18a9;}</style></defs><path class="cls-1" d="M3.81,7.62A3.81,3.81,0,1,0,0,3.81,3.8,3.8,0,0,0,3.81,7.62"/><polygon class="cls-2" points="1.84 3.54 1.31 5.81 6.32 5.81 5.78 3.54 1.84 3.54"/><polygon class="cls-3" points="2.17 3.72 1.75 5.48 5.88 5.48 5.46 3.72 2.17 3.72"/><polygon class="cls-4" points="3.49 4.19 3.41 4.54 4.21 4.54 4.13 4.19 3.49 4.19"/><path class="cls-4" d="M3.81,1.55a1,1,0,0,0-1,1,1,1,0,0,0,.08.39,5.93,5.93,0,0,0,.84,1.24,0,0,0,0,0,0,0s0,0,0,0a5.57,5.57,0,0,0,.84-1.24.89.89,0,0,0,.09-.39A1,1,0,0,0,3.81,1.55ZM3.81,3a.51.51,0,1,1,.5-.5A.5.5,0,0,1,3.81,3Z"/><path class="cls-5" d="M3.81,2.23a.27.27,0,0,0-.28.28.28.28,0,0,0,.28.29.29.29,0,0,0,.29-.29A.28.28,0,0,0,3.81,2.23Z"/><path class="cls-2" d="M5,4.42H5v.1A.07.07,0,0,0,5,4.6a.08.08,0,0,0,.07-.07v-.1H5Z"/><path class="cls-2" d="M5,4.83A.07.07,0,0,0,5,4.9v0h0a.07.07,0,0,0,0,.14H5A.08.08,0,0,0,5.11,5V4.9A.08.08,0,0,0,5,4.83Z"/><path class="cls-2" d="M3.49,4.93H3.31a.07.07,0,1,0,0,.14h.18a.07.07,0,0,0,0-.14Z"/><path class="cls-2" d="M4,4.93H3.85a.07.07,0,1,0,0,.14H4a.07.07,0,0,0,0-.14Z"/><path class="cls-2" d="M3,4.93H2.77a.07.07,0,0,0,0,.14H3a.07.07,0,0,0,0-.14Z"/><path class="cls-2" d="M4.58,4.93H4.39a.07.07,0,0,0,0,.14h.19a.07.07,0,0,0,0-.14Z"/><path class="cls-6" d="M5,3.9a.26.26,0,0,0-.26.26A.26.26,0,0,0,5,4.42H5.1a.27.27,0,0,0,.2-.26A.26.26,0,0,0,5,3.9Z"/><path class="cls-6" d="M2.59,4.74A.25.25,0,0,0,2.33,5a.26.26,0,0,0,.26.26A.26.26,0,0,0,2.85,5,.26.26,0,0,0,2.59,4.74Z"/></svg>