<svg id="Layer_1" data-name="Layer 1" xmlns="http://www.w3.org/2000/svg" viewBox="0 0 7.62 7.62"><defs><style>.cls-1{fill:#52546d;}.cls-2{fill:#e7e6ea;}.cls-3{fill:#1762a9;}.cls-4{fill:#18a95e;}.cls-5{fill:#181a24;}.cls-6{fill:#3a18a9;}</style></defs><path class="cls-1" d="M3.81,7.62A3.81,3.81,0,1,0,0,3.81,3.8,3.8,0,0,0,3.81,7.62"/><circle class="cls-2" cx="3.81" cy="3.81" r="2.22"/><circle class="cls-3" cx="3.81" cy="3.81" r="1.96"/><polygon class="cls-4" points="4.17 3.91 5.15 4.7 5.15 4.7 5.15 3.04 4.17 3.91"/><polygon class="cls-4" points="3.53 3.85 3.58 3.89 3.6 3.91 3.6 3.91 3.6 3.91 3.81 4.09 4.02 3.91 4.02 3.91 4.02 3.91 4.09 3.85 5.15 2.92 2.48 2.92 3.53 3.85 3.53 3.85"/><polygon class="cls-4" points="3.87 4.16 3.81 4.22 3.75 4.16 3.53 3.97 2.62 4.7 5 4.7 4.1 3.97 3.87 4.16"/><polygon class="cls-5" points="5.15 2.92 5.15 2.92 4.09 3.85 4.02 3.91 3.81 4.09 3.6 3.91 3.6 3.91 3.58 3.89 3.53 3.85 2.48 2.92 2.48 2.92 2.48 3.04 3.46 3.91 2.48 4.7 2.62 4.7 3.53 3.97 3.75 4.16 3.81 4.22 3.87 4.16 4.1 3.97 5 4.7 5.15 4.7 4.17 3.91 5.15 3.04 5.15 2.92"/><polygon class="cls-4" points="2.48 3.04 2.48 4.7 2.48 4.7 3.46 3.91 2.48 3.04"/><path class="cls-5" d="M4.1,3.59l0,0L4,3.65l-.11,0H3.75a.22.22,0,0,1-.11,0,.27.27,0,0,1-.07-.08.23.23,0,0,1,0-.11.29.29,0,0,1,0-.09.11.11,0,0,1,0-.08l.06-.07a.19.19,0,0,1,.09,0h.2l.08,0,.05.06a.22.22,0,0,1,0,.08.3.3,0,0,1,0,.1L4,3.5l0,0H4v0l0-.25H3.91v0a.09.09,0,0,0-.09,0,.15.15,0,0,0-.1,0,.28.28,0,0,0-.07.09.23.23,0,0,0,0,.11.12.12,0,0,0,0,.09s0,0,.06.05a.11.11,0,0,0,.08,0,.13.13,0,0,0,.07,0s0,0,0,0h0s.07,0,.09,0a.16.16,0,0,0,.08-.06.22.22,0,0,0,0-.08.29.29,0,0,0,0-.09.2.2,0,0,0,0-.11.15.15,0,0,0-.06-.09L4,3.08l-.13,0a.4.4,0,0,0-.15,0,.28.28,0,0,0-.11.08.28.28,0,0,0-.08.11.59.59,0,0,0,0,.14.51.51,0,0,0,0,.13.28.28,0,0,0,.08.11.24.24,0,0,0,.11.06.41.41,0,0,0,.16,0H4l.09,0,.07-.05h0v0A0,0,0,0,0,4.1,3.59Zm-.23-.16a.43.43,0,0,1,0,.07.09.09,0,0,1-.06,0l0,0a.14.14,0,0,1,0-.07.24.24,0,0,1,0-.08.09.09,0,0,1,0-.06.05.05,0,0,1,.05,0h0a0,0,0,0,1,0,0s0,0,0,0v0A.17.17,0,0,1,3.87,3.43Z"/><path class="cls-3" d="M1.84,1.45a.43.43,0,0,0-.28.11.4.4,0,0,0,0,.56.39.39,0,0,0,.56,0,.4.4,0,0,0,0-.56A.43.43,0,0,0,1.84,1.45Z"/><path class="cls-3" d="M6.06,5.5a.41.41,0,0,0-.56,0,.4.4,0,0,0,0,.56.39.39,0,0,0,.56,0A.4.4,0,0,0,6.06,5.5Z"/><path class="cls-4" d="M1.84,5.39a.43.43,0,0,0-.28.11.4.4,0,0,0,0,.56.39.39,0,0,0,.56,0,.4.4,0,0,0,0-.56A.43.43,0,0,0,1.84,5.39Z"/><path class="cls-4" d="M5.78,2.24a.39.39,0,0,0,.28-.12.4.4,0,0,0,0-.56.41.41,0,0,0-.56,0,.4.4,0,0,0,0,.56A.39.39,0,0,0,5.78,2.24Z"/><path class="cls-6" d="M6.39,3.81A2.6,2.6,0,0,1,6,5.17l.16.09a2.71,2.71,0,0,0,0-2.9A.51.51,0,0,1,6,2.45,2.63,2.63,0,0,1,6.39,3.81Z"/><path class="cls-6" d="M3.81,1.24a2.57,2.57,0,0,1,1.37.39.89.89,0,0,1,.08-.17,2.77,2.77,0,0,0-2.9,0,.56.56,0,0,1,.09.17A2.52,2.52,0,0,1,3.81,1.24Z"/><path class="cls-6" d="M1.24,3.81a2.54,2.54,0,0,1,.39-1.36.56.56,0,0,1-.17-.09,2.77,2.77,0,0,0,0,2.9l.17-.09A2.52,2.52,0,0,1,1.24,3.81Z"/><path class="cls-6" d="M3.81,6.39A2.6,2.6,0,0,1,2.45,6a.51.51,0,0,1-.09.16,2.71,2.71,0,0,0,2.9,0L5.18,6A2.67,2.67,0,0,1,3.81,6.39Z"/></svg>