<svg id="Layer_1" data-name="Layer 1" xmlns="http://www.w3.org/2000/svg" viewBox="0 0 7.62 7.62"><defs><style>.cls-1{fill:#52546d;}.cls-2{fill:#181a24;}.cls-3{fill:#1762a9;}.cls-4{fill:#e7e6ea;}</style></defs><path class="cls-1" d="M3.81,0A3.81,3.81,0,1,0,7.62,3.81,3.82,3.82,0,0,0,3.81,0"/><path class="cls-2" d="M2,1.83A.12.12,0,0,0,1.83,2h0A.12.12,0,0,0,2,2.07l.05,0A.1.1,0,0,0,2.07,2,.12.12,0,0,0,2,1.83Z"/><path class="cls-2" d="M2.57,1.83h0A.11.11,0,0,0,2.45,2a.12.12,0,0,0,.12.11A.11.11,0,0,0,2.69,2,.12.12,0,0,0,2.57,1.83Z"/><path class="cls-2" d="M3.19,1.83h0A.12.12,0,0,0,3.07,2a.12.12,0,0,0,.12.11A.11.11,0,0,0,3.31,2,.12.12,0,0,0,3.19,1.83Z"/><path class="cls-2" d="M4.44,1.83h0a.12.12,0,1,0,0,.23A.12.12,0,0,0,4.56,2,.12.12,0,0,0,4.44,1.83Z"/><path class="cls-2" d="M5.06,1.83h0a.12.12,0,0,0,0,.23A.12.12,0,0,0,5.18,2,.12.12,0,0,0,5.06,1.83Z"/><path class="cls-2" d="M3.82,1.83h0A.12.12,0,0,0,3.69,2a.12.12,0,0,0,.13.11A.11.11,0,0,0,3.93,2,.11.11,0,0,0,3.82,1.83Z"/><path class="cls-2" d="M5.68,1.83h0A.12.12,0,0,0,5.56,2a.11.11,0,0,0,0,.05.12.12,0,0,0,.11.07A.13.13,0,0,0,5.8,2,.12.12,0,0,0,5.68,1.83Z"/><path class="cls-2" d="M5.68,3.07a.12.12,0,0,0-.12.12.12.12,0,0,0,.12.12.12.12,0,0,0,.12-.12h0A.12.12,0,0,0,5.68,3.07Z"/><path class="cls-2" d="M5.68,2.45a.12.12,0,0,0-.12.12.12.12,0,0,0,.12.12.12.12,0,0,0,.12-.12h0A.12.12,0,0,0,5.68,2.45Z"/><path class="cls-2" d="M5.68,5.56h0a.12.12,0,0,0-.07.11.12.12,0,0,0,.12.12.13.13,0,0,0,.12-.12h0A.12.12,0,0,0,5.68,5.56Z"/><path class="cls-2" d="M5.05,5.56a.11.11,0,0,0-.11.12.12.12,0,0,0,.11.12h0a.12.12,0,0,0,.11-.12A.12.12,0,0,0,5.05,5.56Z"/><path class="cls-2" d="M3.19,5.56a.12.12,0,0,0-.12.12.12.12,0,0,0,.12.12h0a.12.12,0,0,0,0-.24Z"/><path class="cls-2" d="M2.56,5.56a.11.11,0,0,0-.11.12.12.12,0,0,0,.11.12h0a.12.12,0,0,0,.12-.12A.12.12,0,0,0,2.56,5.56Z"/><path class="cls-2" d="M3.81,5.56a.12.12,0,0,0-.12.12.12.12,0,0,0,.12.12h0a.12.12,0,0,0,.11-.12A.12.12,0,0,0,3.81,5.56Z"/><path class="cls-2" d="M4.43,5.56a.12.12,0,0,0-.12.12.13.13,0,0,0,.12.12h0a.12.12,0,0,0,.11-.12A.12.12,0,0,0,4.43,5.56Z"/><path class="cls-2" d="M2,5.56a.12.12,0,0,0-.12.12A.12.12,0,0,0,2,5.8H2a.13.13,0,0,0,.12-.12.08.08,0,0,0,0,0A.11.11,0,0,0,2,5.56Z"/><path class="cls-2" d="M2,4.94a.11.11,0,0,0-.12.11h0a.12.12,0,0,0,.23,0A.11.11,0,0,0,2,4.94Z"/><path class="cls-2" d="M2,4.31a.12.12,0,0,0-.12.12h0a.12.12,0,1,0,.23,0A.12.12,0,0,0,2,4.31Z"/><path class="cls-2" d="M2,2.45a.12.12,0,0,0-.12.12h0A.12.12,0,0,0,2,2.69a.12.12,0,0,0,.11-.12A.11.11,0,0,0,2,2.45Z"/><path class="cls-2" d="M2,3.69a.12.12,0,0,0-.12.12h0A.11.11,0,0,0,2,3.93a.12.12,0,0,0,.11-.12A.11.11,0,0,0,2,3.69Z"/><path class="cls-2" d="M2,3.07a.12.12,0,0,0-.12.12h0A.12.12,0,0,0,2,3.31a.12.12,0,0,0,.11-.12A.11.11,0,0,0,2,3.07Z"/><rect class="cls-3" x="4.85" y="3.73" width="0.94" height="1.43" rx="0.11"/><path class="cls-4" d="M4.22,2.52a.55.55,0,0,0-.22,0c-.17,0-.3.2-.33.5a1.17,1.17,0,0,0,.05.48H2.91a.26.26,0,0,0-.21.26.25.25,0,0,0,.1.2.27.27,0,0,0-.1.21.28.28,0,0,0,.1.21.24.24,0,0,0-.07.17.25.25,0,0,0,.21.25.2.2,0,0,0,0,.13.28.28,0,0,0,.24.26H4.62a.11.11,0,0,0,.12-.11V3.92c0-.19-.44-.52-.56-.88A1.77,1.77,0,0,1,4.22,2.52Z"/><path class="cls-2" d="M5.32,4.72a.15.15,0,0,0-.15.15A.16.16,0,0,0,5.32,5a.16.16,0,0,0,.16-.16A.16.16,0,0,0,5.32,4.72Z"/></svg>