<svg id="Layer_1" data-name="Layer 1" xmlns="http://www.w3.org/2000/svg" viewBox="0 0 7.62 7.62"><defs><style>.cls-1{fill:#52546d;}.cls-2{fill:#e7e6ea;}.cls-3{fill:#1762a9;}.cls-4{fill:#18a95e;}.cls-5{fill:#181a24;}.cls-6{fill:#3a18a9;}</style></defs><path class="cls-1" d="M3.81,7.62A3.81,3.81,0,1,0,0,3.81,3.8,3.8,0,0,0,3.81,7.62"/><rect class="cls-2" x="1.53" y="3.24" width="4.57" height="2.07"/><path class="cls-3" d="M1.26,5.57H6.37V3H1.26Zm.27-2.33H6.1V5.3H1.53Z"/><path class="cls-4" d="M3.36,4.43H1.84v1.5h2V4.43h-.5ZM3,5.51H2.66l.07-.33a.19.19,0,0,1,.12-.34A.19.19,0,0,1,3,5,.2.2,0,0,1,3,5.18Z"/><path class="cls-3" d="M5.8,2.09h-4a.57.57,0,0,0-.57.58V3H6.37v-.3A.58.58,0,0,0,5.8,2.09Z"/><rect class="cls-4" x="1.53" y="2.53" width="3.5" height="0.44"/><rect class="cls-5" x="5.31" y="2.53" width="0.79" height="0.42"/><rect class="cls-6" x="5.18" y="3.5" width="0.66" height="0.66"/><rect class="cls-6" x="5.18" y="4.37" width="0.66" height="0.66"/><rect class="cls-6" x="4.3" y="3.5" width="0.66" height="0.66"/><path class="cls-5" d="M4.89,4.63H4.3V4.5L4,4.7l.35.2V4.77h.59a.07.07,0,1,0,0-.14Z"/><path class="cls-6" d="M2.84,3.5a.76.76,0,0,0-.76.76v.17h.23V4.26a.59.59,0,0,1,0-.14.52.52,0,0,1,1,0,.59.59,0,0,1,0,.14v.17h.23V4.26A.76.76,0,0,0,2.84,3.5Z"/><path class="cls-5" d="M3,5a.19.19,0,0,0-.19-.19.19.19,0,0,0-.12.34l-.07.33H3L3,5.18A.2.2,0,0,0,3,5Z"/></svg>