<svg id="Layer_1" data-name="Layer 1" xmlns="http://www.w3.org/2000/svg" viewBox="0 0 7.62 7.62"><defs><style>.cls-1{fill:#52546d;}.cls-2{fill:#ff926e;}.cls-3{fill:#1762a9;}.cls-4{fill:#e7e6ea;}.cls-5{fill:#18a95e;}.cls-6{fill:#3a18a9;}.cls-7{fill:#adebf6;}.cls-8{fill:#fff;}.cls-9{fill:#181a24;}</style></defs><path class="cls-1" d="M3.81,0A3.81,3.81,0,1,0,7.62,3.81,3.82,3.82,0,0,0,3.81,0"/><path class="cls-2" d="M2.24,4.41h0s.08.2.25.37.32.27.36.24h0s-.08-.19-.25-.36S2.28,4.39,2.24,4.41Z"/><path class="cls-3" d="M2.94,3.78,1.45,5.27A.38.38,0,0,0,2,5.81L3.48,4.33a.38.38,0,0,0,0-.54A.37.37,0,0,0,2.94,3.78Z"/><path class="cls-3" d="M3.1,1.9a1.6,1.6,0,1,0,2.26,0A1.6,1.6,0,0,0,3.1,1.9Z"/><path class="cls-4" d="M3.38,2.18a1.2,1.2,0,0,0,0,1.7,1.18,1.18,0,0,0,1.7,0,1.2,1.2,0,1,0-1.7-1.7Z"/><path class="cls-5" d="M3.52,2.33a1,1,0,0,0,0,1.41.07.07,0,1,0,.1-.1.86.86,0,0,1,0-1.22.88.88,0,0,1,1.22,0,.07.07,0,0,0,.1,0,.08.08,0,0,0,0-.09A1,1,0,0,0,3.52,2.33Z"/><path class="cls-5" d="M3.77,2.57a.65.65,0,0,0,0,.93.07.07,0,0,0,.09,0,.07.07,0,0,0,0-.1.52.52,0,0,1,0-.73.51.51,0,0,1,.74,0,.07.07,0,0,0,.09,0,.07.07,0,0,0,0-.1A.64.64,0,0,0,3.77,2.57Z"/><path class="cls-6" d="M2.49,4.78c-.17-.17-.28-.33-.25-.37h0l-.82.82A.43.43,0,0,0,2,5.85L2.84,5h0S2.65,4.94,2.49,4.78Z"/><polygon class="cls-7" points="2.85 5.02 2.85 5.02 2.85 5.02 2.85 5.02"/><polygon class="cls-7" points="2.24 4.41 2.24 4.41 2.24 4.41 2.24 4.41"/><path class="cls-8" d="M5.34,3.7a.47.47,0,1,0,.47.47A.47.47,0,0,0,5.34,3.7Z"/><path class="cls-9" d="M5.34,3.92a.25.25,0,1,0,.25.25A.25.25,0,0,0,5.34,3.92Z"/><path class="cls-5" d="M6.07,3.92a.42.42,0,0,0,0-.1l.23-.31a.53.53,0,0,0-.12-.14A.53.53,0,0,0,6,3.25l-.31.23-.1,0-.06-.38a1.15,1.15,0,0,0-.37,0l-.06.38-.1,0-.32-.22-.14.12a.76.76,0,0,0-.11.14l.22.31,0,.1L4.23,4a1.15,1.15,0,0,0,0,.37l.38.06,0,.1-.23.31L4.54,5l.14.12L5,4.85l.1.05.06.38a1.15,1.15,0,0,0,.37,0l.06-.38.1-.05L6,5.08A.53.53,0,0,0,6.14,5a.53.53,0,0,0,.12-.14L6,4.51a.42.42,0,0,0,0-.1l.39-.06a1.15,1.15,0,0,0,0-.37Zm-.73.71a.47.47,0,1,1,.47-.46A.47.47,0,0,1,5.34,4.63Z"/><path class="cls-9" d="M4.17,5.33l0-.06.15-.19a.69.69,0,0,0-.17-.17l-.19.15L3.86,5l0-.24H3.6l0,.24-.06,0-.2-.15a.65.65,0,0,0-.16.17l.14.19,0,.06L3,5.37s0,.08,0,.12,0,.07,0,.11l.24,0,0,.06-.14.2a.61.61,0,0,0,.16.16l.2-.14.06,0,0,.24h.23l0-.24.07,0,.19.14a.65.65,0,0,0,.17-.16l-.15-.2,0-.06.24,0s0-.07,0-.11,0-.08,0-.12Zm-.46.45A.29.29,0,1,1,4,5.49.29.29,0,0,1,3.71,5.78Z"/></svg>