<svg id="Layer_1" data-name="Layer 1" xmlns="http://www.w3.org/2000/svg" viewBox="0 0 7.62 7.62"><defs><style>.cls-1{fill:#52546d;}.cls-2{fill:#e7e6ea;}.cls-3{fill:#181a24;}.cls-4{fill:#1762a9;}.cls-5{fill:#18a95e;}.cls-6{fill:#3a18a9;}</style></defs><path class="cls-1" d="M3.81,7.62A3.81,3.81,0,1,0,0,3.81,3.8,3.8,0,0,0,3.81,7.62"/><path class="cls-2" d="M3.71,3.57V1.91a1.87,1.87,0,0,0-1.17.48Z"/><path class="cls-2" d="M2.4,5.09,3.57,3.91H1.91A1.87,1.87,0,0,0,2.4,5.09Z"/><path class="cls-2" d="M1.91,3.71H3.57L2.4,2.54A1.83,1.83,0,0,0,1.91,3.71Z"/><path class="cls-2" d="M3.91,3.57,5.09,2.39a1.92,1.92,0,0,0-1.18-.48Z"/><path class="cls-2" d="M5.23,5.09a2,2,0,0,0,.49-1.18H4.06Z"/><path class="cls-2" d="M4.06,3.71H5.72a1.94,1.94,0,0,0-.49-1.17Z"/><path class="cls-3" d="M4.06,3.71,5.23,2.54l-.14-.15L3.91,3.57V1.91h-.2V3.57L2.54,2.39l-.14.15L3.57,3.71H1.91v.2h1.8v.15L3.81,4l.1.11V3.91H5.72v-.2Z"/><path class="cls-4" d="M3.81,2.38A1.43,1.43,0,1,0,5.24,3.81,1.43,1.43,0,0,0,3.81,2.38Z"/><path class="cls-5" d="M3.81,2.6A1.21,1.21,0,0,0,2.72,4.34a.08.08,0,0,0,.09,0,.07.07,0,0,0,0-.09,1.08,1.08,0,1,1,1.94,0,.08.08,0,0,0,0,.09h0a.07.07,0,0,0,.06,0A1.21,1.21,0,0,0,3.81,2.6Z"/><path class="cls-6" d="M3.11,4.37l-.71.72.14.14a1.87,1.87,0,0,0,1.17.48h.2a1.92,1.92,0,0,0,1.18-.48l.14-.14-.72-.72Z"/><path class="cls-3" d="M4.23,3a.06.06,0,0,0-.09,0l-.39.8s0,.08,0,.09h0a.05.05,0,0,0,.06,0L4.26,3A.07.07,0,0,0,4.23,3Z"/><path class="cls-5" d="M3.81,3.48a.34.34,0,0,0,0,.67.34.34,0,1,0,0-.67Z"/><path class="cls-3" d="M3.81,1.43a2.39,2.39,0,0,0-1.9,3.82.1.1,0,0,0,.16-.12A2.19,2.19,0,1,1,6,3.81a2.16,2.16,0,0,1-.44,1.32.1.1,0,0,0,0,.14l.06,0a.09.09,0,0,0,.07,0A2.34,2.34,0,0,0,6.2,3.81,2.39,2.39,0,0,0,3.81,1.43Z"/><rect class="cls-2" x="3.11" y="4.77" width="1.4" height="0.42"/></svg>