<?xml version="1.0" encoding="UTF-8"?><svg xmlns="http://www.w3.org/2000/svg" viewBox="0 0 600 400"><defs><style>.cls-1{fill:#f0f0f0;}.cls-2,.cls-3{fill:#fff;}.cls-4{letter-spacing:0em;}.cls-5{fill:#8cb0ff;}.cls-6,.cls-7{fill:#6695ff;}.cls-8{fill:#455a64;}.cls-9{fill:#244a96;}.cls-10{isolation:isolate;}.cls-7{font-size:34.93px;}.cls-7,.cls-3{font-family:Kanit-Bold, Kanit;}.cls-3{font-size:19.16px;}.cls-11{fill:#e0e0e0;}.cls-12{fill:#d8dce5;}.cls-13{fill:#9fc2ff;}.cls-14{fill:#eb996e;}.cls-15{letter-spacing:-.02em;}.cls-16{fill:#ffbe9d;}.cls-17{fill:#afafaf;}.cls-18{letter-spacing:-.06em;}.cls-19{fill:#a6aaad;}.cls-20{fill:#355eaf;}.cls-21{fill:#dd8762;}.cls-22{fill:#3362cc;}.cls-23{fill:#263238;}</style></defs><g class="cls-10"><g id="OBJECTS"><g><path class="cls-12" d="M80.92,346.81s-32.27-43.4-21.14-101.26c11.91-61.85,89.05-70.3,127.16-129.96,38.11-59.66,101.88-82.64,168.18-71.78,81.48,13.34,91.02,123.51,120.39,152.4,29.37,28.89,79.31,103.13,21.22,150.6H80.92Z"/><path class="cls-19" d="M494.89,347.48H82.29c-.55,0-1.08-.27-1.4-.72l-.45-.62H497.54l-.91,.73c-.49,.4-1.11,.61-1.74,.61Z"/><g><rect class="cls-1" x="50" y="52.57" width="225.57" height="325.81" rx="5" ry="5"/><rect class="cls-2" x="61.67" y="108.13" width="124.89" height="181.58"/><g><path class="cls-6" d="M268.87,52.57H56.7c-3.7,0-6.7,3-6.7,6.7v38.53h225.57V59.27c0-3.7-3-6.7-6.7-6.7Z"/><g><text class="cls-7" transform="translate(74.97 146.47)"><tspan x="0" y="0">T</tspan></text><rect class="cls-8" x="99.66" y="126.02" width="73.72" height="3.75"/><rect class="cls-8" x="99.66" y="133.73" width="49.66" height="3.75"/><rect class="cls-8" x="99.66" y="141.81" width="73.72" height="3.75"/><rect class="cls-8" x="74.83" y="149.92" width="98.56" height="3.75"/><rect class="cls-8" x="74.83" y="157.9" width="84.07" height="3.75"/><rect class="cls-8" x="74.83" y="165.89" width="92" height="3.75"/><rect class="cls-8" x="74.83" y="223.13" width="98.56" height="3.75"/><rect class="cls-8" x="74.83" y="231.11" width="84.07" height="3.75"/><rect class="cls-8" x="74.83" y="239.1" width="92" height="3.75"/><rect class="cls-8" x="74.83" y="254.72" width="84.07" height="3.75"/><rect class="cls-8" x="74.83" y="262.71" width="92" height="3.75"/><rect class="cls-6" x="74.96" y="175.19" width="98.43" height="41.7"/></g><rect class="cls-6" x="194.6" y="108.13" width="72.02" height="17.89"/><rect class="cls-6" x="194.6" y="241.4" width="72.02" height="17.89"/><rect class="cls-6" x="61.67" y="297.19" width="204.96" height="17.89"/><rect class="cls-17" x="194.6" y="129.87" width="72.02" height="106.33"/><path class="cls-17" d="M61.67,315.08h204.96v39.86c0,4.91-3.99,8.9-8.9,8.9H70.57c-4.91,0-8.9-3.99-8.9-8.9v-39.86h0Z"/><text class="cls-3" transform="translate(67.51 82.67)"><tspan x="0" y="0">B</tspan><tspan class="cls-18" x="12.4" y="0">L</tspan><tspan class="cls-15" x="21.27" y="0">O</tspan><tspan class="cls-4" x="34.36" y="0">G</tspan></text></g></g><g><g><path class="cls-21" d="M529.68,173.39v-3.61c1.62-.35,4.67-1.17,4.28-2.42-.53-1.69-4.24-1.24-4.24-1.24,0,0,4.86-.55,4.17-2.57-.48-1.42-2.85-1.7-4.21-1.75v-.46c3.3-.57,4.3-2.58,3.73-4.02-.57-1.43-3.73-1.15-3.73-1.15,0,0-4.02,16.36-4.02,16.79s2.3,5.88,4.02,5.6c1.72-.29,5.31-2.58,3.88-4.59-1.43-2.01-3.88-.57-3.88-.57Z"/><g><path class="cls-8" d="M508.63,191.67c0,.46,.36,.84,.83,.84h18.73c1.04,0,1.89-.83,1.91-1.87l.42-46.51c0-.92-.45-1.78-1.21-2.29h0c-.16-.11-.35-.15-.54-.13l-18.45,1.91c-.42,.04-.73,.39-.74,.81l-.95,47.25Z"/><path class="cls-13" d="M526.17,146.11v42.01c0,.47-.38,.85-.85,.85l-13.18-.17c-.47,0-.85-.38-.85-.85l.43-40.82c0-.44,.33-.8,.76-.85l12.76-1.02c.51-.05,.95,.34,.95,.85Z"/><path class="cls-23" d="M529.31,141.84c-.16-.11-.35-.15-.54-.13l-.18,.02-.53,50.79h.13c1.04,0,1.89-.83,1.91-1.87l.42-46.51c0-.92-.45-1.78-1.21-2.29Z"/><path class="cls-23" d="M512.74,144.84c0,.36-.24,.66-.53,.66s-.53-.29-.53-.66,.24-.66,.53-.66,.53,.29,.53,.66Z"/><path class="cls-23" d="M515.05,145.06c-.26,0-.48-.2-.5-.46-.02-.28,.18-.52,.46-.54l7.38-.61c.3-.02,.52,.18,.54,.46,.02,.28-.18,.52-.46,.54l-7.38,.61s-.03,0-.04,0Z"/></g><path class="cls-16" d="M512.72,192.51c2.25-4.37,1.52-8.72,1.6-10.92,.08-2.29,4.23-7.28,4.77-12,.54-4.72-2.29-6.74-3.91-3.64s-5.93,8.22-5.93,8.22v-14.02s-1.3,1.47-2.38,2.28c-1.08,.81-6.01,5.44-5.87,12.28,.14,6.84-1.32,20.36-2.54,24s-3.37,6.2-3.37,6.2l12.03,5.93s5.22-2.43,7.19-4.18,2.89-8.9,2.89-8.9l1.95-5.26h-6.44Z"/><polygon class="cls-21" points="519.17 192.51 512.72 192.51 518.14 195.28 519.17 192.51"/><path class="cls-21" d="M506.15,181.93c-.13-2.84,.96-5.85,3.11-7.75-1.3,2.55-2.19,5.04-3.11,7.75h0Z"/><path class="cls-21" d="M514.37,183.91c1.16,4.92-1.06,10.26-4.68,13.64,2.75-4.04,4.76-8.68,4.68-13.64h0Z"/></g><path class="cls-22" d="M512.21,211.65l-15.04-8.16c-1-.54-2.26-.24-2.9,.71l-21.38,31.75c-1.83,2.85-2.68,3.22-5.51,1.36l-22.01-11.2c-13.4-6.21-22.36-12.31-35.41-12.31h-15.7s-.7-.02-1.96,0c-25.68,.48-48.16,17.39-56.05,41.83l-27.7,85.81h23.89l29.12-83.18-.79,83.18h69.2v-89.91l17.92,7.88c11.28,5.89,29.14,12.95,38.87-4.1,.42-.74,.84-1.48,1.31-2.2l24.93-38.31c.71-1.08,.34-2.54-.8-3.16Z"/><path class="cls-14" d="M373.63,189.45v28.89h.04c.44,11.02,9.49,19.82,20.61,19.82s20.17-8.8,20.61-19.82h.04v-28.89h-41.31Z"/><path class="cls-23" d="M345.65,157.65s-8.62-9.28-8.62-34.01,21.28-41.52,40.82-43.11c19.54-1.6,22.74-9.17,27.12-5.58s-8.52,11.57-8.52,11.57c0,0,36.84-13.96,41.23-9.17,4.39,4.79-14.36,11.57-14.36,11.57,0,0,22.45,5.73,26.44,17.69,3.99,11.97-6.5,12.37-6.5,12.37,0,0,7.4,19.11-1.88,45.07-10.1,28.26-73.92,31.38-75.11,30.59-1.2-.8-20.61-36.97-20.61-36.97Z"/><path class="cls-16" d="M436.68,151.8s-.07,0-.1,0c-.07,1.29-.13,2.08-.13,2.08l-1.67,13.43c-.24,1.94-2.84,2.44-3.76,.72-2.26-4.25-4.39-11.94-1.22-23.97-1.8-2.91-3.13-6.1-3.88-9.47l-.46-2.04c-9.04,2.34-9.47,.04-15.49-2.69-.05-.02-.1,.03-.06,.06,2.25,2.02,8.33,8.11,3.99,11.48-4.8,3.72-20.34-8.89-23.38-11-.12-.08-.28,.04-.23,.17,.71,1.9,2.9,8.51-.28,9.63-4.89,1.72-13.83-11.79-16.37-15.83-.14-.21-.46-.09-.42,.16,.49,2.66,1.18,8.67-2.18,10.14-3.15,1.38-6.58-5.2-8.24-8.96-.27-.61-1.15-.46-1.22,.2-.68,5.71-2.74,11.18-4.88,15.61,4.19,13.48,1.92,21.94-.5,26.48-.92,1.73-3.52,1.22-3.76-.72l-1.67-13.43s-.06-.8-.13-2.08c-8.53,.12-15.41,7.05-15.41,15.61s6.99,15.62,15.62,15.62c.19,0,.38-.02,.57-.03,3.52,20.19,21.11,36.88,42.31,36.88s38.79-16.69,42.31-36.88c.22,0,.43,.03,.65,.03,8.63,0,15.62-6.99,15.62-15.62s-6.99-15.62-15.62-15.62Z"/><g><path class="cls-23" d="M379.55,187.33c4.71,5.12,10.84,8.79,17.93,7.97-6.87,2.98-14.93-1.55-17.93-7.97h0Z"/><g><g><path class="cls-23" d="M374.8,162.95c0,2.02-1.64,3.66-3.66,3.66s-3.66-1.64-3.66-3.66,1.64-3.66,3.66-3.66,3.66,1.64,3.66,3.66Z"/><path class="cls-23" d="M367.51,159.29c-.16-1.55,.81-3.11,2.14-4.07,1.36-.95,2.99-1.35,4.54-1.41,.76-.06,1.63,.04,2.43,.23,.81,.24,1.58,.61,2.24,1.13,1.3,1.05,2.11,2.59,2.1,4.13-1-1.13-2.07-1.93-3.17-2.42-1.12-.46-2.24-.62-3.51-.57-1.29,.03-2.53,.18-3.69,.6-1.14,.42-2.24,1.14-3.08,2.39Z"/><path class="cls-23" d="M365.65,150.61c2.44-.44,7.33-1.11,14.21-.95,.82,.02,1.37-.65,.95-1.17-1.05-1.32-3.4-3.19-8.09-2.88-5.3,.35-7.44,2.45-8.29,3.92-.35,.6,.36,1.24,1.22,1.08Z"/></g><g><path class="cls-23" d="M405.94,162.95c0,2.02,1.64,3.66,3.66,3.66s3.66-1.64,3.66-3.66-1.64-3.66-3.66-3.66-3.66,1.64-3.66,3.66Z"/><path class="cls-23" d="M419.41,159.29c.16-1.55-.81-3.11-2.14-4.07-1.36-.95-2.99-1.35-4.54-1.41-.76-.06-1.63,.04-2.43,.23-.81,.24-1.58,.61-2.24,1.13-1.3,1.05-2.11,2.59-2.1,4.13,1-1.13,2.07-1.93,3.17-2.42,1.12-.46,2.24-.62,3.51-.57,1.29,.03,2.53,.18,3.69,.6,1.14,.42,2.24,1.14,3.08,2.39Z"/><path class="cls-23" d="M419.69,150.61c-2.44-.44-7.33-1.11-14.21-.95-.82,.02-1.37-.65-.95-1.17,1.05-1.32,3.4-3.19,8.09-2.88,5.3,.35,7.44,2.45,8.29,3.92,.35,.6-.36,1.24-1.22,1.08Z"/></g></g><path class="cls-23" d="M394.65,160.18c2.38,5.57,4.36,11.27,6.23,17.01l.68,2.16c.98,2.59-1.23,5.68-3.99,5.52-3.03-.09-6.04-.27-9.06-.54,3.01-.27,6.04-.45,9.04-.55,1.98-.08,3.39-2.16,2.7-4.01,0,0-.71-2.15-.71-2.15-1.83-5.75-3.57-11.53-4.9-17.44h0Z"/><path class="cls-21" d="M347.13,158.13c-2.06,.84-3.86,2.18-5.1,3.87-1.27,1.69-1.78,3.79-1.79,5.89-.04,2.11,.5,4.21,1.7,5.93,1.21,1.7,3.07,2.98,5.19,3.66-2.21-.19-4.45-1.24-5.96-3.06-1.52-1.81-2.2-4.22-2.18-6.53,.02-2.3,.69-4.74,2.28-6.49,1.52-1.78,3.67-2.89,5.86-3.26Z"/><path class="cls-21" d="M439.76,177.46c2.06-.84,3.86-2.18,5.1-3.87,1.27-1.69,1.78-3.79,1.79-5.89,.04-2.11-.5-4.21-1.7-5.93-1.21-1.7-3.07-2.98-5.19-3.66,2.21,.19,4.45,1.24,5.96,3.06,1.52,1.81,2.2,4.22,2.18,6.53-.02,2.3-.69,4.74-2.28,6.49-1.52,1.78-3.67,2.89-5.86,3.26Z"/></g><g><path class="cls-8" d="M392.52,131.9c4.73,3.14,14.55,10.44,20.18,9.37,2.44-.8,2.03-3.59,.93-5.48-2.41-4.4-6.31-7.99-9.94-11.46-3.78-3.48-7.71-6.83-11.73-10.09,4.36,2.79,8.55,5.85,12.51,9.22,3.95,3.45,7.88,6.98,10.49,11.65,1.5,2.55,1.61,6.51-1.87,7.52-6.46,1.24-15.91-6.73-20.58-10.73h0Z"/><path class="cls-8" d="M409.56,129.17c5,3.59,11.5,4.6,17.2,2.24,1.33-.45,2.65-1.15,3.95-1.71-.72,.64-1.47,1.28-2.27,1.85-5.89,4.11-14.37,3.41-18.88-2.38h0Z"/><path class="cls-8" d="M383.35,120.14c4.22,3.74,11.72,14.06,7.48,19.54,2.15-5.49-4.93-14.54-7.48-19.54h0Z"/><path class="cls-8" d="M409.03,87.17c12.07-.83,24.38,3.41,33.87,10.82,.63,.5,1.26,1,1.88,1.52-10.57-7.17-22.92-11.82-35.74-12.33h0Z"/><path class="cls-8" d="M443.26,118.96c-9.43,2.85-19.85-.43-27.98-5.43,1.17,.35,2.3,.77,3.44,1.16,7.9,2.62,16.13,4.9,24.54,4.26h0Z"/><path class="cls-8" d="M367.49,133.47c-5.43-5.02-7.56-12.79-8.24-19.94,2.03,6.8,3.96,14.17,8.24,19.94h0Z"/></g></g><g><path class="cls-8" d="M469.34,379.79h-154.73c-4.96,0-9.12-3.73-9.66-8.66l-8.59-78.49c-.63-5.75,3.88-10.78,9.66-10.78h171.91c5.79,0,10.29,5.03,9.66,10.78l-8.59,78.49c-.54,4.93-4.7,8.66-9.66,8.66Z"/><path class="cls-23" d="M487.24,288.83c-1.18-3.99-4.86-6.97-9.32-6.97h-171.91c-4.45,0-8.13,2.98-9.32,6.97h190.54Z"/><path class="cls-11" d="M400.41,335.27c0,4.66-3.78,8.44-8.44,8.44s-8.44-3.78-8.44-8.44,3.78-8.44,8.44-8.44,8.44,3.78,8.44,8.44Z"/></g><g><g><rect class="cls-6" x="293.03" y="20.21" width="86.52" height="49.09"/><g><circle class="cls-9" cx="336.29" cy="44.07" r="12.96" transform="translate(10.21 137.38) rotate(-23.43)"/><path class="cls-1" d="M333.96,41.28v6.05c0,1.06,1.21,1.65,2.05,1.01l4.02-3.08c.67-.52,.66-1.53-.02-2.04l-4.02-2.97c-.84-.62-2.03-.02-2.03,1.03Z"/></g><g><path class="cls-9" d="M371.03,63.38h-72.03c-.55,0-.99-.45-.99-.99h0c0-.55,.45-.99,.99-.99h72.03c.55,0,.99,.45,.99,.99h0c0,.55-.45,.99-.99,.99Z"/><path class="cls-1" d="M371.03,61.39h-50.21v1.99h50.21c.55,0,.99-.45,.99-.99h0c0-.55-.45-.99-.99-.99Z"/><path class="cls-9" d="M320.72,61.39h-21.72c-.55,0-.99,.45-.99,.99h0c0,.55,.45,.99,.99,.99h21.72v-1.99Z"/><g><path class="cls-9" d="M323.33,62.39c0,1.37-1.11,2.48-2.48,2.48s-2.48-1.11-2.48-2.48,1.11-2.48,2.48-2.48,2.48,1.11,2.48,2.48Z"/><path class="cls-5" d="M322.03,62.39c0,.65-.53,1.18-1.18,1.18s-1.18-.53-1.18-1.18,.53-1.18,1.18-1.18,1.18,.53,1.18,1.18Z"/></g></g></g><g><path class="cls-6" d="M443.88,322.15v28.17c0,2.43,1.97,4.41,4.41,4.41h51.23c.97,0,1.91,.32,2.68,.91l11.25,8.6c2.9,2.22,7.09,.15,7.09-3.5v-38.58c0-2.43-1.97-4.41-4.41-4.41h-67.84c-2.43,0-4.41,1.97-4.41,4.41Z"/><g><circle class="cls-1" cx="470.45" cy="336.79" r="2.94"/><path class="cls-1" d="M486.15,336.79c0,1.62-1.31,2.94-2.94,2.94s-2.94-1.31-2.94-2.94,1.31-2.94,2.94-2.94,2.94,1.31,2.94,2.94Z"/><path class="cls-1" d="M498.9,336.79c0,1.62-1.31,2.94-2.94,2.94s-2.94-1.31-2.94-2.94,1.31-2.94,2.94-2.94,2.94,1.31,2.94,2.94Z"/></g></g><g><path class="cls-6" d="M550,100.04v29.24c0,2.14-1.73,3.87-3.87,3.87h-58.09c-.85,0-1.68,.28-2.35,.8l-12.26,9.37c-2.55,1.95-6.22,.13-6.22-3.08v-40.21c0-2.14,1.73-3.87,3.87-3.87h75.06c2.14,0,3.87,1.73,3.87,3.87Z"/><g><path class="cls-20" d="M489.81,114.52c0,4.2-3.4,7.6-7.6,7.6s-7.6-3.4-7.6-7.6,3.4-7.6,7.6-7.6,7.6,3.4,7.6,7.6Z"/><g><path class="cls-2" d="M495.32,112.09l1.25-3.7h2.02l-1,3.7h-2.28Zm2.84,0l1.25-3.7h2.02l-1,3.7h-2.28Z"/><path class="cls-2" d="M533.28,121.39l1.25-3.7h2.02l-1,3.7h-2.28Zm2.84,0l1.25-3.7h2.02l-1,3.7h-2.28Z"/><rect class="cls-9" x="502.85" y="109.66" width="39.26" height="1.75"/><rect class="cls-9" x="495.32" y="113.91" width="44.6" height="1.75"/><rect class="cls-9" x="495.32" y="118.17" width="36.77" height="1.75"/></g></g></g><g><rect class="cls-6" x="212.04" y="167.03" width="95.91" height="54.42"/><rect class="cls-20" x="216.56" y="171.9" width="86.12" height="44.43"/><path class="cls-9" d="M216.56,216.33l24.4-32.76c2.65-3.56,7.98-3.59,10.67-.05l17.91,23.53,9.87-9.28c2.9-2.72,7.51-2.33,9.91,.84l13.36,17.72h-86.12Z"/><path class="cls-2" d="M277.43,185.53c0,3.92-3.18,7.1-7.1,7.1s-7.1-3.18-7.1-7.1,3.18-7.1,7.1-7.1,7.1,3.18,7.1,7.1Z"/></g></g></g></g></g></svg>