<?xml version="1.0" encoding="UTF-8"?><svg xmlns="http://www.w3.org/2000/svg" viewBox="0 0 600 400"><defs><style>.cls-1,.cls-2,.cls-3{fill:#fff;}.cls-4{fill:#37474f;}.cls-5{fill:#f5f5f5;}.cls-6{fill:#455a64;}.cls-7{fill:#f28f8f;}.cls-8{fill:#e0e0e0;}.cls-9{opacity:.35;}.cls-2{opacity:.8;}.cls-10{stroke:#e6e6e6;stroke-miterlimit:10;}.cls-10,.cls-11{fill:none;}.cls-12{opacity:.15;}.cls-13{opacity:.45;}.cls-14{fill:#27debf;}.cls-15{opacity:.55;}.cls-16{opacity:.1;}.cls-11{stroke:#455a64;stroke-linecap:round;stroke-linejoin:round;stroke-width:1.5px;}.cls-3{opacity:.6;}.cls-17{fill:#263238;}.cls-18{fill:#ffa8a7;}</style></defs><g id="Floor"><ellipse id="Floor-2" class="cls-5" cx="303.04" cy="285.01" rx="233.2" ry="134.64"/></g><g id="Shadows"><ellipse id="Shadow" class="cls-8" cx="371.15" cy="212.37" rx="34.19" ry="19.74"/><path id="Shadow-2" class="cls-8" d="M423.94,235.12l67.05,38.71c1.67,.97,4.39,.97,6.06,0l10.19-5.88c1.67-.97,1.67-2.53,0-3.5l-67.05-38.71c-1.67-.97-4.39-.97-6.06,0l-10.19,5.88c-1.67,.97-1.67,2.53,0,3.5Z"/><path id="Shadow-3" class="cls-8" d="M206.65,349.15l92.68,53.51c2.29,1.32,5.99,1.32,8.28,0l147.04-84.89c2.29-1.32,2.29-3.46,0-4.78l-92.68-53.51c-2.29-1.32-5.99-1.32-8.28,0l-147.04,84.89c-2.29,1.32-2.29,3.46,0,4.78Z"/><path id="Shadow-4" class="cls-8" d="M190.56,289.62l-18.9-10.91c-2.29-1.32-5.99-1.32-8.28,0l-61.61,35.57c-2.29,1.32-5.99,1.32-8.28,0l-7.25-4.19c-2.29-1.32-2.29-3.46,0-4.78l193.63-111.79c2.29-1.32,5.99-1.32,8.28,0l7.25,4.19c2.29,1.32,2.29,3.46,0,4.78l-61.61,35.57c-2.29,1.32-2.29,3.46,0,4.78l18.9,10.91c2.29,1.32,2.29,3.46,0,4.78l-53.85,31.09c-2.29,1.32-5.99,1.32-8.28,0Z"/></g><g id="Device_3"><g><g id="Device"><g><path class="cls-14" d="M212.47,339.06l88.81,51.26c1.21,.7,3.18,.7,4.39,0l143.17-82.65c1.21-.7,1.21-1.84,0-2.53l-88.81-51.26c-1.21-.7-3.18-.7-4.39,0l-143.17,82.65c-1.21,.7-1.21,1.84,0,2.53Zm132.17-75.2c1.04-.6,2.12-.25,3.16,.35l83.34,48.1c1.04,.6,1.04,1.57,0,2.17l-113.85,65.72c-1.04,.6-2.72,.6-3.77,0l-83.33-48.1c-1.04-.6-1.04-1.57,0-2.17l114.46-66.07Z"/><path class="cls-9" d="M212.47,339.06l88.81,51.26c1.21,.7,3.18,.7,4.39,0l143.17-82.65c1.21-.7,1.21-1.84,0-2.53l-88.81-51.26c-1.21-.7-3.18-.7-4.39,0l-143.17,82.65c-1.21,.7-1.21,1.84,0,2.53Zm132.17-75.2c1.04-.6,2.12-.25,3.16,.35l83.34,48.1c1.04,.6,1.04,1.57,0,2.17l-113.85,65.72c-1.04,.6-2.72,.6-3.77,0l-83.33-48.1c-1.04-.6-1.04-1.57,0-2.17l114.46-66.07Z"/><path class="cls-10" d="M259.94,363.15c2.21,1.28,5.79,1.28,8,0,2.21-1.28,2.21-3.34,0-4.62-2.21-1.28-5.79-1.28-8,0-2.21,1.28-2.21,3.34,0,4.62Z"/></g><g><path class="cls-14" d="M449.1,305.31c1.09,.77,1.94,2.33,1.94,3.63v2.9c0,1.4-.98,3.1-2.19,3.81l-143.16,82.65c-.46,.27-1.02,.43-1.61,.49-.19,.02-.39,.04-.59,.04,0,0,0,0,0,0v-7.97s0,0,0,0c.3,0,.6-.03,.89-.07,.48-.08,.93-.23,1.31-.45l143.17-82.65c1.11-.64,1.2-1.66,.25-2.36Z"/><path class="cls-15" d="M449.1,305.31c1.09,.77,1.94,2.33,1.94,3.63v2.9c0,1.4-.98,3.1-2.19,3.81l-143.16,82.65c-.46,.27-1.02,.43-1.61,.49-.19,.02-.39,.04-.59,.04,0,0,0,0,0,0v-7.97s0,0,0,0c.3,0,.6-.03,.89-.07,.48-.08,.93-.23,1.31-.45l143.17-82.65c1.11-.64,1.2-1.66,.25-2.36Z"/></g><path class="cls-14" d="M344.64,263.86c1.04-.6,2.12-.25,3.16,.35l83.34,48.1c1.04,.6,1.04,1.57,0,2.17l-113.85,65.72c-1.04,.6-2.72,.6-3.77,0l-83.33-48.1c-1.04-.6-1.04-1.57,0-2.17l114.46-66.07Z"/><path class="cls-1" d="M344.64,263.86c1.04-.6,2.12-.25,3.16,.35l83.34,48.1c1.04,.6,1.04,1.57,0,2.17l-113.85,65.72c-1.04,.6-2.72,.6-3.77,0l-83.33-48.1c-1.04-.6-1.04-1.57,0-2.17l114.46-66.07Z"/><g><path class="cls-14" d="M212.18,336.72c-.91,.71-.81,1.7,.29,2.34l88.81,51.27c.6,.35,1.4,.52,2.19,.52v7.97c-.8,0-1.58-.18-2.19-.53l-88.81-51.25c-1.21-.69-2.19-2.4-2.19-3.8v-2.91c0-1.28,.82-2.82,1.9-3.6Z"/><path class="cls-13" d="M212.18,336.72c-.91,.71-.81,1.7,.29,2.34l88.81,51.27c.6,.35,1.4,.52,2.19,.52v7.97c-.8,0-1.58-.18-2.19-.53l-88.81-51.25c-1.21-.69-2.19-2.4-2.19-3.8v-2.91c0-1.28,.82-2.82,1.9-3.6Z"/></g><g><path class="cls-17" d="M398.63,283.13c.37,.21,.96,.21,1.33,0,.37-.21,.37-.56,0-.77-.37-.21-.96-.21-1.33,0-.37,.21-.37,.56,0,.77Z"/><g><path class="cls-17" d="M400.76,289.17c.74,.42,1.93,.42,2.66,0,.73-.42,.73-1.11,0-1.54-.74-.42-1.93-.42-2.66,0-.73,.42-.73,1.11,0,1.54Z"/><path class="cls-17" d="M398.88,286.49c.49-.28,.46-.76-.06-1.06l-8.76-5.05c-.52-.3-1.34-.32-1.83-.03-.49,.28-.46,.76,.06,1.06l8.76,5.06c.52,.3,1.34,.32,1.83,.03Z"/></g></g></g><g><polygon class="cls-1" points="303.47 292.96 381.13 337.8 350.07 355.73 272.41 310.9 303.47 292.96"/><g><g><path class="cls-14" d="M330.63,278.96c-2.14,1.24-2.14,3.25,0,4.48,2.14,1.24,5.62,1.24,7.77,0,2.14-1.24,2.14-3.25,0-4.48-2.14-1.24-5.62-1.24-7.77,0Z"/><path class="cls-1" d="M335.39,281.11c-.62,.36-.62,.94,0,1.3,.62,.36,1.63,.36,2.26,0,.62-.36,.62-.94,0-1.3-.62-.36-1.63-.36-2.26,0Z"/></g><g><path class="cls-6" d="M344.39,289.82c.06,.04,.08,.08,.07,.14-.02,.06-.06,.11-.14,.16l-.79,.46c-.08,.05-.17,.07-.28,.08-.1,0-.19,0-.25-.04l-3.66-2.11c-.06-.04-.08-.08-.07-.14,.01-.06,.06-.11,.15-.16l7.2-4.16c.08-.05,.17-.08,.28-.08,.1,0,.19,0,.25,.04l.68,.39c.06,.04,.08,.08,.07,.14-.02,.06-.06,.11-.15,.16l-6.11,3.53,2.76,1.59Z"/><path class="cls-6" d="M351.77,288.87c.31,.18,.52,.37,.64,.59,.12,.22,.16,.44,.12,.67-.04,.23-.16,.47-.35,.7-.19,.23-.45,.46-.77,.66-.06,.04-.14,.09-.25,.15-.1,.06-.21,.12-.31,.18s-.21,.12-.31,.18c-.1,.06-.19,.1-.26,.14-.36,.18-.75,.33-1.15,.44-.4,.11-.81,.18-1.21,.2-.4,.02-.79,0-1.16-.07-.38-.07-.72-.19-1.02-.37-.31-.18-.52-.37-.64-.59-.12-.22-.16-.44-.13-.67,.04-.23,.15-.46,.34-.7,.19-.23,.45-.45,.77-.66,.06-.04,.14-.09,.24-.15,.1-.06,.2-.12,.3-.18s.21-.12,.32-.18c.11-.06,.2-.11,.27-.14,.36-.19,.74-.34,1.15-.44,.4-.11,.81-.18,1.21-.2,.4-.02,.79,0,1.17,.07,.38,.07,.72,.19,1.02,.37Zm-1.5,2.03c.21-.14,.36-.28,.45-.4,.09-.12,.13-.24,.12-.35,0-.11-.05-.2-.12-.28-.08-.08-.18-.16-.29-.23-.12-.07-.25-.12-.39-.17-.15-.05-.31-.07-.49-.07-.18,0-.38,.02-.6,.07-.22,.05-.45,.14-.69,.26-.07,.03-.14,.07-.24,.12-.09,.05-.19,.1-.28,.16-.1,.06-.19,.11-.28,.17-.09,.06-.16,.1-.2,.13-.21,.14-.36,.28-.45,.4-.09,.13-.13,.24-.12,.35,0,.11,.05,.2,.12,.28,.08,.08,.18,.16,.29,.23,.12,.07,.25,.12,.39,.17,.14,.04,.31,.07,.49,.07,.18,0,.38-.02,.6-.07,.22-.05,.45-.14,.7-.26,.06-.03,.13-.07,.23-.12s.19-.11,.28-.16c.1-.06,.19-.11,.28-.16,.09-.05,.16-.1,.21-.13Z"/><path class="cls-6" d="M355.42,292.65c-.33-.19-.67-.28-1.02-.25-.34,.03-.74,.17-1.19,.43l-2.9,1.67c-.08,.05-.17,.07-.28,.08-.1,0-.19,0-.25-.04l-.64-.37c-.06-.04-.08-.08-.07-.14,.02-.06,.06-.11,.15-.16l5.2-3c.08-.05,.17-.08,.28-.08,.1,0,.19,0,.25,.04l.64,.37c.06,.04,.08,.08,.07,.14-.02,.06-.06,.11-.15,.16l-.26,.15c.32-.02,.62,0,.88,.03,.26,.04,.52,.14,.79,.29l.38,.22c.06,.03,.08,.08,.07,.14-.02,.06-.06,.11-.15,.16l-.74,.42c-.08,.05-.17,.07-.28,.08-.1,0-.19,0-.25-.04l-.54-.31Z"/><path class="cls-6" d="M355.03,294.23c.42-.24,.86-.44,1.32-.6,.46-.16,.92-.26,1.37-.32,.45-.05,.88-.05,1.29,0,.41,.06,.77,.17,1.08,.35,.31,.18,.52,.39,.62,.62,.1,.23,.11,.48,.03,.73-.08,.25-.24,.5-.49,.76-.25,.26-.56,.49-.94,.71l-.5,.29c-.08,.05-.18,.08-.28,.08-.1,0-.19,0-.25-.04l-2.79-1.61c-.17,.1-.3,.2-.37,.31-.08,.11-.12,.21-.12,.31,0,.1,.04,.2,.11,.29,.07,.09,.17,.17,.29,.25,.18,.1,.35,.17,.51,.21,.16,.04,.31,.05,.46,.05,.12,0,.21,0,.27,.02,.06,.01,.13,.03,.19,.07l.67,.39c.06,.03,.09,.08,.07,.15-.01,.06-.06,.12-.15,.16-.11,.06-.29,.11-.53,.16-.25,.05-.53,.07-.84,.07-.32,0-.65-.04-1-.11-.35-.07-.68-.2-.99-.38-.31-.18-.52-.39-.63-.62-.11-.23-.12-.47-.03-.73,.09-.26,.27-.52,.55-.79,.27-.27,.63-.53,1.08-.79Zm3.72,.22c-.16-.09-.33-.15-.51-.18-.18-.03-.36-.04-.53-.03-.18,.01-.35,.04-.51,.09-.16,.05-.31,.1-.43,.16l1.89,1.09c.1-.07,.2-.15,.29-.24,.09-.09,.15-.18,.18-.28,.03-.1,.02-.2-.03-.3-.05-.1-.17-.2-.34-.31Z"/><path class="cls-6" d="M363.48,296.4c.35-.05,.68-.05,.98,0,.3,.04,.56,.12,.77,.24,.35,.2,.55,.42,.6,.65s0,.46-.16,.7c.22-.04,.44-.07,.67-.08,.22,0,.44,0,.64,.02,.2,.02,.39,.06,.56,.11,.17,.05,.32,.11,.44,.18,.32,.18,.51,.38,.58,.58,.07,.2,.05,.41-.05,.63-.11,.21-.29,.43-.55,.64-.26,.21-.57,.42-.92,.62l-3,1.73c-.08,.05-.17,.07-.28,.08-.1,0-.19,0-.25-.04l-.64-.37c-.06-.03-.08-.08-.07-.14,.02-.06,.06-.11,.14-.16l2.94-1.7c.51-.29,.79-.54,.84-.74,.06-.2-.05-.37-.31-.53-.22-.13-.51-.18-.86-.16-.35,.02-.78,.17-1.27,.44l-3,1.73c-.08,.05-.17,.08-.28,.08-.1,0-.19,0-.25-.04l-.64-.37c-.06-.04-.08-.08-.07-.14,.02-.06,.06-.11,.15-.16l2.94-1.7c.51-.29,.79-.54,.84-.74,.06-.2-.05-.37-.31-.53-.23-.13-.53-.19-.89-.16-.37,.02-.8,.18-1.3,.47l-2.94,1.7c-.08,.05-.17,.08-.28,.08-.1,0-.19,0-.25-.04l-.64-.37c-.06-.04-.08-.08-.07-.14,.02-.06,.06-.11,.15-.16l5.2-3c.08-.05,.17-.08,.28-.08,.1,0,.19,0,.25,.04l.64,.37c.06,.04,.08,.08,.07,.14-.02,.06-.06,.11-.15,.16l-.26,.15Z"/><path class="cls-6" d="M372.09,301.83c-.63,.35-1.26,.71-1.87,1.08-.82,.5-1.28,.95-1.36,1.34-.08,.39,.13,.73,.64,1.03,.22,.13,.46,.23,.7,.31,.24,.08,.5,.12,.78,.12,.28,0,.57-.03,.89-.1,.32-.07,.67-.18,1.06-.34,.1-.05,.18-.07,.25-.07,.07,0,.12,.01,.17,.04l.17,.1c.05,.03,.07,.07,.07,.11,0,.04-.04,.08-.12,.12-.28,.15-.6,.28-.97,.39-.37,.11-.76,.19-1.17,.22-.41,.03-.83,.01-1.27-.06-.43-.07-.84-.22-1.24-.45-.38-.22-.63-.45-.75-.7-.12-.24-.14-.5-.05-.76,.09-.26,.27-.52,.55-.78,.28-.26,.63-.53,1.06-.79,.29-.18,.61-.38,.96-.58,.35-.2,.69-.39,1.02-.57,.44-.24,.89-.45,1.35-.61,.46-.16,.92-.27,1.36-.32,.45-.05,.89-.04,1.31,.03,.42,.07,.83,.21,1.21,.43,.4,.23,.66,.47,.78,.72,.13,.25,.16,.49,.11,.73-.06,.24-.18,.46-.38,.67-.2,.21-.43,.4-.68,.56-.06,.04-.13,.06-.21,.07-.08,0-.14-.01-.19-.04l-.17-.1s-.07-.06-.07-.1c0-.04,.04-.09,.12-.14,.28-.23,.48-.43,.6-.62,.12-.18,.17-.36,.17-.52,0-.16-.08-.31-.21-.45-.13-.14-.31-.28-.53-.4-.51-.3-1.11-.42-1.78-.37-.67,.05-1.45,.31-2.32,.79Z"/><path class="cls-6" d="M379.85,305.08c.3,.17,.5,.37,.6,.57,.1,.21,.11,.42,.04,.64-.07,.22-.22,.44-.46,.67-.23,.23-.52,.45-.87,.66-.06,.03-.13,.08-.21,.12-.08,.05-.16,.1-.25,.15-.09,.05-.18,.1-.27,.15-.09,.05-.16,.09-.21,.12-.37,.2-.75,.37-1.14,.5-.39,.13-.78,.22-1.16,.26-.38,.04-.75,.03-1.11-.02-.36-.06-.69-.17-.99-.35-.3-.17-.5-.36-.6-.57-.1-.21-.11-.42-.04-.64,.07-.22,.22-.44,.45-.67,.23-.23,.52-.45,.87-.66,.05-.03,.12-.07,.2-.12,.08-.05,.17-.1,.26-.15,.09-.05,.18-.1,.26-.15,.08-.05,.16-.09,.22-.12,.36-.2,.74-.37,1.14-.5,.4-.13,.78-.22,1.16-.26,.38-.04,.75-.04,1.11,.02s.69,.17,.99,.35Zm-1.25,2.28c.62-.38,.98-.73,1.06-1.07,.09-.33-.07-.61-.46-.84-.39-.23-.87-.31-1.45-.26-.58,.05-1.19,.25-1.85,.61-.12,.06-.26,.14-.42,.23s-.3,.18-.4,.24c-.62,.38-.98,.73-1.06,1.07-.09,.33,.07,.61,.46,.84,.39,.23,.87,.31,1.45,.26,.58-.05,1.19-.25,1.85-.61,.12-.06,.26-.14,.42-.23s.3-.18,.4-.24Z"/><path class="cls-6" d="M382.63,307.55c.38-.06,.73-.07,1.04-.03,.32,.03,.62,.13,.9,.29,.32,.18,.5,.39,.54,.62,.04,.23-.04,.48-.25,.76,.45-.11,.89-.15,1.33-.11,.44,.03,.82,.14,1.14,.33,.22,.13,.38,.28,.46,.45,.09,.17,.1,.35,.04,.55-.06,.2-.2,.4-.42,.63-.22,.22-.53,.45-.93,.68l-3.25,1.87c-.16,.09-.31,.11-.43,.04l-.14-.08c-.12-.07-.1-.15,.06-.25l3.13-1.81c.36-.21,.64-.4,.82-.58s.29-.33,.33-.48c.04-.15,.02-.27-.06-.39-.08-.11-.19-.21-.34-.3-.13-.07-.29-.13-.48-.17-.19-.04-.41-.05-.67-.03-.25,.02-.53,.08-.84,.18-.31,.1-.64,.26-1.01,.47l-3.13,1.81c-.16,.09-.31,.11-.43,.04l-.14-.08c-.12-.07-.1-.15,.06-.25l3.13-1.81c.36-.21,.63-.4,.81-.58s.28-.34,.32-.48c.04-.15,.02-.27-.06-.39-.08-.11-.19-.21-.32-.29-.13-.07-.29-.13-.48-.17-.19-.04-.41-.05-.67-.03-.25,.02-.53,.08-.84,.18-.3,.1-.64,.25-1,.46l-3.14,1.82c-.16,.09-.31,.11-.43,.03l-.14-.08c-.12-.07-.1-.15,.06-.25l5.31-3.06c.16-.09,.31-.11,.43-.04l.14,.08c.12,.07,.1,.15-.06,.25l-.39,.22Z"/><path class="cls-6" d="M386.11,315.65c-.35-.2-.55-.42-.6-.64-.05-.23-.03-.45,.08-.68l-2.64,1.53c-.16,.09-.31,.11-.43,.04l-.14-.08c-.12-.07-.1-.15,.06-.25l7.43-4.29c.16-.09,.31-.11,.43-.04l.14,.08c.12,.07,.1,.15-.06,.25l-.52,.3c.39-.07,.78-.08,1.17-.05,.39,.03,.76,.15,1.11,.35,.32,.19,.52,.39,.59,.61,.07,.22,.06,.44-.05,.66-.11,.22-.29,.45-.54,.67-.25,.22-.54,.43-.85,.62-.11,.07-.23,.14-.36,.22-.13,.08-.26,.15-.38,.21-.34,.18-.7,.35-1.08,.49-.38,.15-.76,.25-1.15,.31-.39,.06-.77,.07-1.15,.03-.38-.04-.73-.16-1.05-.34Zm2.01-2.78c-.12,.06-.26,.14-.44,.25-.18,.1-.32,.19-.43,.26-.22,.13-.41,.28-.59,.44-.17,.16-.29,.33-.36,.49-.07,.17-.07,.33-.02,.5,.05,.16,.19,.31,.43,.45,.25,.14,.51,.23,.78,.26,.28,.03,.56,.02,.85-.03,.29-.05,.59-.13,.88-.25,.3-.12,.58-.25,.86-.4,.21-.12,.42-.24,.62-.36,.26-.16,.48-.33,.68-.5,.2-.17,.34-.34,.43-.51,.09-.17,.1-.33,.05-.5-.05-.16-.2-.31-.44-.45-.24-.14-.5-.22-.79-.25-.29-.03-.58-.02-.88,.03-.3,.05-.59,.12-.87,.22-.28,.1-.54,.22-.78,.35Z"/><path class="cls-6" d="M391.99,318.91c-.12-.07-.1-.15,.06-.25l.52-.3c-.15,.03-.32,.05-.51,.07-.18,.01-.38,0-.57-.01-.2-.02-.41-.06-.63-.12-.22-.06-.43-.15-.65-.28-.2-.12-.35-.25-.45-.41-.1-.15-.14-.31-.13-.48,.01-.16,.08-.33,.2-.49,.12-.16,.3-.31,.54-.45,.25-.15,.52-.25,.8-.32,.28-.07,.57-.11,.87-.11,.3,0,.6,.02,.9,.08,.3,.06,.6,.15,.89,.26l1.57,.62,.39-.23c.4-.23,.62-.46,.66-.7s-.14-.46-.53-.69c-.31-.18-.63-.27-.96-.28-.33,0-.61,.03-.84,.11-.11,.04-.2,.06-.26,.06-.06,0-.12-.01-.17-.04l-.12-.07c-.05-.03-.07-.07-.06-.12,.01-.05,.05-.09,.12-.13,.1-.06,.26-.12,.47-.18,.21-.06,.45-.09,.73-.11,.27-.01,.56,0,.87,.06,.3,.05,.59,.16,.87,.32,.33,.19,.54,.38,.64,.57,.1,.19,.11,.38,.04,.56-.07,.18-.19,.35-.37,.51-.18,.16-.39,.31-.61,.43l-3.71,2.14c-.16,.09-.31,.11-.43,.03l-.14-.08Zm-1.05-1.22c.19,.11,.41,.19,.67,.24,.25,.05,.53,.06,.83,.04,.3-.02,.62-.09,.95-.2,.33-.11,.67-.26,1.02-.46l.38-.22-1.28-.51c-1.1-.44-1.95-.48-2.57-.12-.19,.11-.31,.22-.38,.33-.07,.11-.1,.23-.09,.34,.01,.11,.06,.21,.15,.31,.09,.1,.2,.18,.32,.26Z"/><path class="cls-6" d="M397.5,321.81c-.16,.09-.31,.11-.43,.03l-.14-.08c-.12-.07-.1-.15,.06-.25l3.11-1.8c.6-.34,.95-.68,1.07-1,.12-.32-.03-.6-.45-.84-.4-.23-.89-.32-1.46-.26-.58,.05-1.16,.26-1.76,.6l-3.11,1.8c-.16,.09-.31,.11-.43,.04l-.14-.08c-.12-.07-.1-.15,.06-.25l5.31-3.06c.16-.09,.31-.11,.43-.04l.14,.08c.12,.07,.1,.15-.06,.25l-.52,.3c.41-.06,.8-.08,1.18-.05,.38,.03,.74,.15,1.11,.36,.28,.16,.47,.34,.55,.54,.09,.2,.09,.4,0,.61-.08,.21-.24,.43-.47,.64-.23,.22-.53,.43-.88,.64l-3.17,1.83Z"/><path class="cls-6" d="M397.59,324.4c-.06,.02-.12,.03-.18,.03-.06,0-.12-.01-.18-.04l-.17-.1s-.06-.06-.05-.11c.01-.04,.05-.08,.11-.12,.04-.02,.13-.05,.27-.1l2.65-.79,3.42-3.82c.08-.08,.14-.14,.17-.16,.06-.03,.13-.05,.21-.06,.08,0,.14,0,.18,.03l.18,.1c.06,.03,.08,.07,.08,.1,0,.04-.02,.07-.05,.11l-3.01,3.36,5.85-1.72c.06-.02,.12-.03,.18-.03,.06,0,.12,.01,.18,.04l.17,.1s.06,.06,.05,.11c-.01,.04-.05,.08-.11,.12-.04,.02-.13,.05-.27,.1l-9.68,2.84Z"/></g></g><path class="cls-4" d="M431.13,312.31l-83.34-48.1c-1.04-.6-2.12-.95-3.16-.35l-11.44,6.61,87.09,50.28,10.85-6.26c1.04-.6,1.04-1.58,0-2.17Z"/><g><g><path class="cls-1" d="M346.42,268.18l.59-.34c.13-.07,.31-.09,.4-.03l.05,.03c.1,.05,.07,.16-.06,.23l-.59,.34c-.13,.07-.31,.09-.4,.03l-.05-.03c-.1-.05-.07-.16,.06-.23Z"/><path class="cls-1" d="M347.21,268.64l1.01-.59c.13-.07,.31-.09,.4-.03l.05,.03c.1,.05,.07,.16-.06,.23l-1.01,.59c-.13,.07-.31,.09-.4,.03l-.05-.03c-.1-.06-.07-.16,.06-.23Z"/><path class="cls-1" d="M347.99,269.09l1.44-.83c.13-.07,.31-.09,.4-.03l.05,.03c.1,.05,.07,.16-.06,.23l-1.44,.83c-.13,.07-.31,.09-.4,.03l-.05-.03c-.1-.05-.07-.16,.06-.23Z"/><path class="cls-1" d="M348.78,269.54l2.49-1.44c.13-.07,.31-.09,.4-.03l.05,.03c.1,.06,.07,.16-.06,.23l-2.49,1.43c-.13,.07-.31,.09-.4,.03l-.05-.03c-.1-.05-.07-.16,.06-.23Z"/></g><g><path class="cls-1" d="M350.73,270.87s.02-.04,.06-.06l.36-.21-.88-.51s-.05-.06,0-.09l.13-.08s.06-.03,.08-.04c.02,0,.05-.01,.09-.02l2.24-.22s.07,0,.09,0c.02,0,.05,.01,.07,.03l.12,.07s.05,.04,.05,.06c0,.02-.02,.04-.06,.07l-1.27,.74,.19,.11s.05,.04,.05,.06c0,.02-.03,.04-.07,.06l-.09,.05s-.07,.03-.11,.04c-.03,0-.07,0-.1-.03l-.19-.11-.36,.21s-.07,.03-.11,.03c-.03,0-.07-.01-.11-.03l-.15-.09s-.06-.04-.05-.06Zm.79-.42l.91-.52-1.55,.16,.64,.37Z"/><path class="cls-1" d="M352,271.34c.02-.21,.22-.42,.58-.64,.36-.21,.73-.32,1.1-.34,.37-.01,.71,.07,1.02,.25,.13,.07,.23,.15,.31,.23,.08,.08,.13,.16,.14,.23,0,.02,0,.03-.02,.04-.01,0-.03,.01-.05,.02l-.24,.05s-.05,0-.06,0c0,0-.01-.01-.02-.03-.04-.12-.15-.23-.33-.33-.21-.12-.45-.18-.7-.17-.26,.01-.53,.1-.81,.26-.28,.16-.43,.32-.45,.46-.02,.15,.07,.28,.27,.4,.07,.04,.15,.08,.24,.11s.16,.05,.23,.07l.59-.34-.37-.21s-.05-.04-.05-.06c0-.02,.02-.04,.07-.06l.08-.05s.08-.04,.11-.04c.03,0,.06,0,.1,.03l.59,.34s.06,.05,.05,.07c0,.02-.03,.05-.08,.08l-.85,.49s-.06,.03-.08,.04c-.02,0-.05,0-.08,0-.29-.03-.59-.12-.88-.29-.31-.18-.46-.38-.43-.59Z"/></g><g><path class="cls-1" d="M425.9,311.61c.03-.13-.02-.25-.14-.32l-2.63-1.52c-.23-.13-.64-.1-.94,.08l-1.28,.74c-.17,.1-.28,.22-.31,.36-.01,.06-.01,.11,0,.16,.02,.06,.07,.12,.14,.16l2.63,1.52c.23,.13,.64,.1,.94-.08l1.28-.74c.17-.1,.28-.22,.31-.36Zm-5.09-.69s.07-.1,.15-.15l1.28-.74c.22-.13,.55-.16,.72-.06l2.63,1.52s.07,.05,.08,.08c0,.02,0,.03,0,.05-.01,.05-.07,.1-.15,.15l-1.28,.74c-.22,.13-.55,.16-.72,.06l-2.63-1.52c-.06-.04-.09-.08-.08-.13Z"/><path class="cls-1" d="M424.14,310.93l-1.51,.87-1.42-.82s-.03-.02-.04-.03c.01,0,.02-.01,.05-.03l1.15-.66c.16-.09,.42-.11,.53-.04l1.24,.71Z"/><path class="cls-1" d="M425.71,312.05c.1,.06-.04,.22-.3,.38l-.24,.14c-.26,.15-.56,.23-.66,.18l-.19-.1,1.21-.69s.08,.04,.18,.1Z"/></g><g><path class="cls-1" d="M357.21,274.14c-.28,.16-.74,.16-1.02,0s-.28-.43,0-.59c.28-.16,.74-.16,1.02,0s.28,.43,0,.59Z"/><path class="cls-1" d="M358.05,273.07c-.51-.3-1.25-.39-1.9-.27-.13,.02-.22,.1-.2,.18h0c.02,.1,.19,.17,.36,.14,.46-.08,.98-.02,1.34,.19,.36,.21,.47,.51,.33,.77-.05,.1,.06,.2,.24,.21h0c.14,0,.27-.04,.31-.11,.2-.38,.04-.8-.47-1.1Z"/><path class="cls-1" d="M358.86,272.6c-.76-.44-1.84-.6-2.82-.47-.15,.02-.25,.09-.23,.18h0c.02,.1,.18,.16,.34,.14,.8-.1,1.68,.02,2.31,.38,.62,.36,.85,.87,.67,1.33-.04,.09,.07,.19,.24,.2h0c.15,.01,.28-.05,.31-.13,.22-.57-.05-1.19-.82-1.63Z"/></g><g><path class="cls-1" d="M384.7,290.41s-.05,.02-.09,.02-.06,0-.09-.02l-.13-.07s-.03-.03-.03-.05,.01-.04,.03-.05l1.75-1.01-.9-.07s-.06,0-.08-.03c-.02-.02-.03-.03-.03-.05l.02-.1s.02-.03,.05-.05c.03-.01,.06-.02,.09-.01l1.2,.09s.06,0,.07,.02c.02,0,.04,.02,.05,.03l.13,.07s.03,.03,.04,.05c0,.02-.01,.04-.03,.05l-2.05,1.18Z"/><path class="cls-1" d="M386.85,290.03s.03,.03,.04,.05c0,.02-.01,.04-.04,.05l-.21,.12s-.05,.02-.08,.02c-.03,0-.06,0-.09-.02l-.21-.12s-.03-.03-.03-.05c0-.02,.01-.04,.03-.05l.21-.12s.05-.02,.09-.02c.03,0,.06,0,.08,.02l.21,.12Zm-1.11,.64s.03,.03,.04,.05c0,.02-.01,.04-.04,.05l-.21,.12s-.05,.02-.08,.02c-.03,0-.06,0-.09-.02l-.21-.12s-.03-.03-.03-.05c0-.02,.01-.04,.03-.05l.21-.12s.05-.02,.09-.02c.03,0,.06,0,.08,.02l.21,.12Z"/><path class="cls-1" d="M386.92,291.79s-.03-.03-.04-.05c0-.02,.01-.04,.03-.05l.44-.25-.99-.57s-.03-.03-.04-.05c0-.02,.01-.04,.03-.05l.11-.07s.04-.02,.06-.02c.03,0,.06-.01,.09-.01l2.31-.18s.08,0,.11,0c.03,0,.06,.01,.09,.03l.13,.07s.03,.03,.03,.05c0,.02-.01,.04-.03,.05l-1.32,.76,.27,.16s.03,.03,.04,.05c0,.02-.01,.04-.03,.05l-.11,.07s-.05,.02-.09,.02c-.03,0-.06,0-.09-.02l-.27-.16-.44,.25s-.05,.02-.09,.02c-.03,0-.06,0-.09-.02l-.13-.07Zm.72-.52l.89-.52-1.58,.12,.69,.4Z"/><path class="cls-1" d="M388.55,292.11s-.04,.05-.06,.08c-.01,.03-.02,.06,0,.1,.01,.04,.04,.08,.09,.12,.05,.05,.12,.1,.22,.16,.06,.04,.13,.07,.21,.09,.08,.03,.15,.04,.23,.05,.08,0,.15,0,.23-.01,.08-.01,.15-.04,.22-.08,.07-.04,.11-.08,.13-.12,.02-.04,.03-.08,.01-.12-.02-.04-.05-.08-.09-.12-.05-.04-.1-.08-.17-.12l-.27-.15s-.03-.03-.03-.05c0-.02,.01-.04,.03-.05l.11-.07s.04-.02,.07-.02c.03,0,.05,0,.07,0l1.19-.03-.91-.53s-.03-.03-.03-.05c0-.02,.01-.04,.03-.05l.11-.07s.05-.02,.09-.02c.03,0,.06,0,.09,.02l1.25,.72s.03,.03,.03,.05c0,.02-.01,.04-.04,.05l-.11,.07s-.04,.02-.07,.02c-.03,0-.06,0-.09,0l-1.17,.03c.1,.06,.18,.13,.24,.2,.06,.07,.09,.14,.1,.21,0,.07-.01,.13-.06,.2-.05,.07-.12,.13-.22,.18-.11,.06-.22,.11-.35,.13-.13,.03-.26,.03-.38,.03-.13,0-.26-.03-.38-.07-.13-.04-.25-.09-.35-.15-.14-.08-.25-.16-.32-.24-.07-.08-.11-.15-.12-.22-.02-.07,0-.13,.03-.19,.03-.06,.09-.11,.15-.15,.02-.01,.04-.02,.07-.02,.03,0,.05,0,.07,.02l.15,.08s.03,.03,.04,.04c0,.02,0,.03-.02,.04Z"/></g></g><path class="cls-6" d="M348.25,271.74l69.64,40.2c1.14,.66,1.2,1.71,.13,2.34-1.07,.63-2.87,.61-4.01-.05l-69.64-40.26c-1.14-.66-1.2-1.7-.13-2.32,1.07-.62,2.87-.59,4.01,.07Z"/><g><g><path class="cls-14" d="M349.9,304.21l-7.51,4.34c-1.14,.66-1.14,1.73,0,2.39l7.51,4.34c1.14,.66,3,.66,4.14,0l7.51-4.34c1.14-.66,1.14-1.73,0-2.39l-7.51-4.34c-1.14-.66-3-.66-4.14,0Z"/><path class="cls-1" d="M355.78,312.59l1.12-.64c.07-.04,.07-.11,0-.15l-.89-.64c-.06-.04-.07-.12-.02-.18,.13-.14,.23-.29,.32-.44,.04-.07,.12-.13,.2-.13l1.49-.09c.08,0,.14-.07,.14-.15v-.83c0-.08-.06-.14-.14-.15l-1.49-.09c-.08,0-.16-.07-.2-.13-.08-.15-.19-.3-.32-.44-.05-.06-.05-.14,.02-.18l.89-.64c.06-.04,.06-.11,0-.15l-1.12-.64c-.07-.04-.18-.04-.25-.01l-1.13,.52c-.07,.03-.19,.04-.26,.02-.28-.09-.58-.16-.88-.21-.08-.01-.15-.08-.16-.16l-.14-.75c-.01-.08-.09-.14-.17-.14h-1.64c-.08,0-.15,.06-.17,.14l-.14,.75c-.01,.08-.09,.15-.16,.16-.3,.05-.6,.12-.88,.21-.07,.02-.19,.02-.26-.02l-1.13-.52c-.07-.03-.18-.03-.25,.01l-1.12,.64c-.07,.04-.07,.11,0,.15l.89,.64c.06,.05,.07,.12,.02,.18-.13,.14-.23,.29-.32,.44-.04,.07-.12,.13-.2,.13l-1.49,.09c-.08,0-.14,.07-.14,.15v.83c0,.08,.06,.14,.14,.15l1.49,.09c.08,0,.16,.07,.2,.13,.08,.15,.19,.3,.32,.44,.05,.06,.05,.14-.02,.18l-.89,.64c-.06,.05-.06,.11,0,.15l1.12,.64c.07,.04,.18,.04,.25,.01l1.13-.52c.07-.03,.19-.04,.26-.02,.28,.09,.58,.16,.88,.21,.08,.01,.15,.08,.16,.16l.14,.75c.01,.08,.09,.14,.17,.14h1.64c.08,0,.15-.06,.17-.14l.14-.75c.01-.08,.09-.15,.16-.16,.3-.05,.6-.12,.88-.21,.07-.02,.19-.02,.26,.02l1.13,.52c.07,.03,.18,.03,.25-.01Zm-5.7-1.75c-1.04-.6-1.04-1.58,0-2.18,1.04-.6,2.73-.6,3.77,0,1.04,.6,1.04,1.58,0,2.18-1.04,.6-2.73,.6-3.77,0Z"/></g><g><path class="cls-14" d="M330.46,293.02l-7.51,4.34c-1.14,.66-1.14,1.73,0,2.39l7.51,4.34c1.14,.66,3,.66,4.14,0l7.51-4.34c1.14-.66,1.14-1.73,0-2.39l-7.51-4.34c-1.14-.66-3-.66-4.14,0Z"/><polygon class="cls-1" points="331.21 299.31 330.26 298.75 327.89 300.12 326.11 299.09 329.92 296.89 328.87 296.29 336.46 296.28 336.44 300.66 335.39 300.06 331.58 302.25 329.81 301.23 332.17 299.86 331.21 299.31"/></g><g><path class="cls-14" d="M369.3,315.43l-7.51,4.34c-1.14,.66-1.14,1.73,0,2.39l7.51,4.34c1.14,.66,3,.66,4.14,0l7.51-4.34c1.14-.66,1.14-1.73,0-2.39l-7.51-4.34c-1.14-.66-3-.66-4.14,0Z"/><g><path class="cls-1" d="M378.25,322.05c-.01-.05-.04-.11-.12-.15l-7.87-4.55c-.1-.06-.23-.07-.36-.06l.76,4.36,7.59,.39Z"/><path class="cls-1" d="M369.9,317.3c-.09,0-.18,.02-.24,.06l-5.66,3.25c-.08,.04-.11,.1-.12,.16l6.06,.31-.04-3.78Z"/><path class="cls-1" d="M378.25,322.05l-6.42,.02,.36,3.52-.79-3.51h-.97c-.26,0-.47-.21-.48-.47v-.2s-6.06-.64-6.06-.64c0,.07,.03,.14,.12,.19l7.88,4.56c.17,.1,.44,.1,.6,0l5.65-3.26c.09-.05,.13-.13,.12-.2Z"/><polygon class="cls-1" points="369.9 317.29 369.9 317.3 369.91 317.3 369.9 317.29"/><polygon class="cls-1" points="378.27 322.05 378.25 322.05 378.25 322.05 378.27 322.05"/></g></g></g><g><g><polygon class="cls-14" points="281.44 310.3 302.33 298.24 333.67 316.33 312.78 328.4 281.44 310.3"/><polygon class="cls-2" points="281.44 310.3 302.33 298.24 333.67 316.33 312.78 328.4 281.44 310.3"/><path class="cls-14" d="M318.68,314.59c-1.04,.6-1.04,1.58,0,2.18,1.04,.6,2.74,.6,3.78,0,1.04-.6,1.04-1.58,0-2.18-1.04-.6-2.74-.6-3.78,0Z"/><polygon class="cls-14" points="281.44 310.3 289.27 305.78 305.1 307.75 305.25 320.68 306.13 315.8 314.52 317.24 314.96 327.14 312.78 328.4 281.44 310.3"/></g><path class="cls-6" d="M340.29,320.15l20.72,11.96c.77,.44,.81,1.14,.09,1.56-.72,.42-1.93,.39-2.7-.05l-20.72-11.96c-.77-.44-.81-1.14-.09-1.56s1.93-.39,2.7,.05Z"/><g><path class="cls-8" d="M334.51,322.85l31.17,18c.46,.27,.54,.65,.18,.86-.36,.21-1.03,.16-1.49-.11l-31.17-17.99c-.46-.27-.54-.65-.18-.86,.36-.21,1.03-.16,1.49,.1Z"/><path class="cls-8" d="M331.9,324.36l31.17,18c.46,.27,.54,.65,.18,.86-.36,.21-1.03,.16-1.49-.11l-31.17-17.99c-.46-.27-.54-.65-.18-.86,.36-.21,1.03-.16,1.49,.1Z"/><path class="cls-8" d="M329.28,325.86l31.17,18c.46,.27,.54,.65,.18,.86-.36,.21-1.03,.16-1.49-.11l-31.17-17.99c-.46-.27-.54-.65-.18-.86,.36-.21,1.03-.16,1.49,.1Z"/><path class="cls-8" d="M326.67,327.37l10.28,5.93c.46,.27,.54,.65,.18,.86-.36,.21-1.03,.16-1.49-.11l-10.28-5.93c-.46-.27-.54-.65-.18-.86,.36-.21,1.03-.16,1.49,.1Z"/></g><path class="cls-14" d="M319.39,330.61l1.13-.65c.77-.44,2.02-.44,2.78,0l7.66,4.42c.77,.44,.77,1.16,0,1.61l-1.13,.65c-.77,.44-2.02,.44-2.78,0l-7.66-4.42c-.77-.44-.77-1.16,0-1.61Z"/><g><path class="cls-14" d="M344.34,343.47c.72,.42,.72,1.09,0,1.51-.72,.42-1.89,.42-2.61,0-.72-.42-.72-1.09,0-1.51,.72-.42,1.89-.42,2.61,0Z"/><path class="cls-14" d="M346.95,345.92h0c.4,0,.79,.09,1.06,.25,.21,.12,.29,.25,.29,.32s-.08,.2-.29,.32c-.27,.16-.65,.25-1.06,.25s-.79-.09-1.06-.25c-.21-.12-.29-.25-.29-.32s.08-.2,.29-.32c.27-.16,.66-.25,1.06-.25m0-.5c-.47,0-.95,.1-1.31,.31-.72,.42-.72,1.09,0,1.51,.36,.21,.83,.31,1.31,.31s.95-.1,1.31-.31c.72-.42,.72-1.09,0-1.51-.36-.21-.83-.31-1.31-.31h0Z"/><path class="cls-14" d="M350.87,348.18h0c.4,0,.79,.09,1.06,.25,.21,.12,.29,.25,.29,.32,0,.07-.08,.2-.29,.32-.27,.16-.65,.25-1.06,.25s-.79-.09-1.06-.25c-.21-.12-.29-.25-.29-.32s.08-.2,.29-.32c.27-.16,.66-.25,1.06-.25m0-.5c-.47,0-.95,.1-1.31,.31-.72,.42-.72,1.09,0,1.51,.36,.21,.83,.31,1.31,.31s.95-.1,1.31-.31c.72-.42,.72-1.09,0-1.51-.36-.21-.83-.31-1.31-.31h0Z"/></g></g><g><path class="cls-14" d="M269.76,313.85l75.18,43.4c.69,.4,.69,1.04,0,1.43l-5.28,3.05c-.69,.4-1.8,.4-2.48,0l-75.18-43.4c-.69-.4-.69-1.04,0-1.43l5.28-3.05c.69-.4,1.8-.4,2.48,0Z"/><path class="cls-3" d="M269.76,313.85l75.18,43.4c.69,.4,.69,1.04,0,1.43l-5.28,3.05c-.69,.4-1.8,.4-2.48,0l-75.18-43.4c-.69-.4-.69-1.04,0-1.43l5.28-3.05c.69-.4,1.8-.4,2.48,0Z"/><g><path class="cls-1" d="M336.09,359.32c-.96-.56-.7-1.61,.58-2.35,1.28-.74,3.11-.89,4.07-.34,.96,.56,.7,1.61-.58,2.35-1.28,.74-3.11,.89-4.07,.34Zm4.21-2.43c-.78-.45-2.25-.33-3.29,.27-1.04,.6-1.25,1.45-.47,1.9,.78,.45,2.25,.33,3.29-.27,1.04-.6,1.25-1.45,.47-1.9Z"/><path class="cls-1" d="M338.97,358.55l-1.74-1c-.09-.05-.07-.15,.06-.23,.12-.07,.3-.09,.39-.03l1.74,1c.09,.05,.07,.15-.06,.23-.12,.07-.3,.09-.39,.03Z"/><path class="cls-1" d="M337.21,358.63c-.05-.03-.07-.07-.05-.13,.04-.09,.19-.16,.34-.17l1.51-.02,.03-.87c0-.09,.13-.17,.29-.2,.16-.02,.28,.03,.27,.11l-.04,1.07s-.04,.1-.11,.14c-.07,.04-.16,.06-.24,.06l-1.86,.02c-.06,0-.12-.01-.15-.03Z"/></g><path class="cls-1" d="M266.63,316.53c-1.04,.6-1.04,1.58,0,2.18,1.04,.6,2.74,.6,3.78,0,1.04-.6,1.04-1.58,0-2.18-1.04-.6-2.74-.6-3.78,0Z"/><path class="cls-1" d="M274.91,320.01l52.69,30.42c.78,.45,.92,1.1,.31,1.45-.61,.35-1.74,.27-2.52-.18l-52.69-30.42c-.78-.45-.92-1.1-.31-1.45,.61-.35,1.74-.27,2.52,.18Z"/></g><g><path class="cls-14" d="M258.12,320.58l75.18,43.4c.69,.4,.69,1.04,0,1.43l-5.28,3.05c-.69,.4-1.8,.4-2.48,0l-75.18-43.4c-.69-.4-.69-1.04,0-1.43l5.28-3.05c.69-.4,1.8-.4,2.48,0Z"/><g><path class="cls-1" d="M324.44,366.04c-.96-.56-.7-1.61,.58-2.35,1.28-.74,3.11-.89,4.07-.34,.96,.56,.7,1.61-.58,2.35-1.28,.74-3.11,.89-4.07,.34Zm4.21-2.43c-.78-.45-2.25-.33-3.29,.27-1.04,.6-1.25,1.45-.47,1.9s2.25,.33,3.29-.27c1.04-.6,1.25-1.45,.47-1.9Z"/><path class="cls-1" d="M327.32,365.28l-1.74-1c-.09-.05-.07-.15,.06-.23,.12-.07,.3-.09,.39-.03l1.74,1c.09,.05,.07,.15-.06,.23-.12,.07-.3,.09-.39,.03Z"/><path class="cls-1" d="M325.56,365.36s-.07-.07-.05-.13c.04-.09,.19-.16,.34-.17l1.51-.02,.03-.87c0-.09,.13-.17,.29-.2,.16-.02,.28,.03,.27,.11l-.04,1.07s-.04,.1-.11,.14c-.07,.04-.16,.06-.24,.06l-1.86,.02c-.06,0-.12-.01-.15-.03Z"/></g><path class="cls-1" d="M254.98,323.25c-1.04,.6-1.04,1.58,0,2.18,1.04,.6,2.74,.6,3.78,0s1.04-1.58,0-2.18-2.74-.6-3.78,0Z"/><path class="cls-1" d="M263.3,326.76l52.69,30.42c.78,.45,.92,1.1,.31,1.45-.61,.35-1.74,.27-2.52-.18l-52.69-30.42c-.78-.45-.92-1.1-.31-1.45s1.74-.27,2.52,.18Z"/></g><g><path class="cls-14" d="M246.47,327.31l75.18,43.4c.69,.4,.69,1.04,0,1.43l-5.28,3.05c-.69,.4-1.8,.4-2.48,0l-75.18-43.4c-.69-.4-.69-1.04,0-1.43l5.28-3.05c.69-.4,1.8-.4,2.48,0Z"/><path class="cls-9" d="M246.47,327.31l75.18,43.4c.69,.4,.69,1.04,0,1.43l-5.28,3.05c-.69,.4-1.8,.4-2.48,0l-75.18-43.4c-.69-.4-.69-1.04,0-1.43l5.28-3.05c.69-.4,1.8-.4,2.48,0Z"/><g><path class="cls-1" d="M312.79,372.77c-.96-.56-.7-1.61,.58-2.35,1.28-.74,3.11-.89,4.07-.34,.96,.56,.7,1.61-.58,2.35-1.28,.74-3.11,.89-4.07,.34Zm4.21-2.43c-.78-.45-2.25-.33-3.29,.27-1.04,.6-1.25,1.45-.47,1.9,.78,.45,2.25,.33,3.29-.27,1.04-.6,1.25-1.45,.47-1.9Z"/><path class="cls-1" d="M315.68,372l-1.74-1c-.09-.05-.07-.15,.06-.23,.12-.07,.3-.09,.39-.03l1.74,1c.09,.05,.07,.15-.06,.23-.12,.07-.3,.09-.39,.03Z"/><path class="cls-1" d="M313.91,372.08s-.07-.07-.05-.13c.04-.09,.19-.16,.34-.17l1.51-.02,.03-.87c0-.09,.13-.17,.29-.2,.16-.02,.28,.03,.27,.11l-.04,1.07s-.04,.1-.11,.14c-.07,.04-.16,.06-.24,.06l-1.86,.02c-.06,0-.11-.01-.15-.03Z"/></g><path class="cls-1" d="M243.34,329.98c-1.04,.6-1.04,1.58,0,2.18,1.04,.6,2.74,.6,3.78,0,1.04-.6,1.04-1.58,0-2.18s-2.74-.6-3.78,0Z"/><path class="cls-1" d="M251.68,333.5l52.69,30.42c.78,.45,.92,1.1,.31,1.45s-1.74,.27-2.52-.18l-52.69-30.42c-.78-.45-.92-1.1-.31-1.45s1.74-.27,2.52,.18Z"/></g></g></g></g><g id="Device_2"><g><g id="Device-2"><g><g><path class="cls-4" d="M248.9,245.77l-54.21,31.31-.13-.07-20.6-11.9c-3.51-2.03-5.77-6.95-5-10.94l7.65-39.73,54.21-31.32-7.65,39.73c-.77,3.99,1.48,8.91,5,10.94l20.73,11.97Z"/><polygon class="cls-17" points="176.61 214.45 169.03 253.84 223.24 222.55 230.25 186.12 226.83 185.44 176.61 214.45"/><path class="cls-17" d="M194.69,277.09l-20.73-11.97c-3.51-2.03-5.76-6.95-5-10.94l7.65-39.73-9.04-5.22-8.74,45.45c-1.16,6.01,2.24,13.43,7.54,16.49l28.32,16.35v-10.44Z"/><polygon class="cls-6" points="248.9 245.77 194.69 277.09 194.69 287.53 248.9 256.21 248.9 245.77"/></g><g><path class="cls-6" d="M301.93-11.67c2.5,1.44,4.52,5.1,4.52,8.17V162.84c0,3.07-2.16,6.81-4.82,8.35l-207.35,119.71c-2.66,1.54-6.84,1.61-9.34,.17-2.5-1.44-4.52-5.1-4.52-8.17V116.56c0-3.07,2.16-6.81,4.82-8.35L292.59-11.5c2.66-1.54,6.84-1.61,9.34-.17Z"/><path class="cls-17" d="M93.71,291.19c-2.66,1.24-6.44,1.22-8.77-.12-2.5-1.44-4.52-5.1-4.52-8.17V116.56c0-1.53,.54-3.23,1.41-4.75l9.04,5.22c-.87,1.51-1.41,3.21-1.41,4.74v166.35c0,2.85,1.85,4.13,4.25,3.07Z"/><path class="cls-4" d="M306.45,162.84V-3.5c0-3.07-2.16-4.32-4.82-2.78L94.29,113.43c-2.66,1.54-4.82,5.27-4.82,8.35v166.35c0,3.07,2.16,4.32,4.82,2.78l207.35-119.71c2.66-1.54,4.82-5.27,4.82-8.35Z"/><path class="cls-14" d="M295.86,2.21L97.84,116.6c-2.13,1.23-3.86,4.22-3.86,6.68v147.69c0,2.46,1.73,3.45,3.86,2.23l198.02-114.39c2.13-1.23,3.86-4.22,3.85-6.68V4.44c0-2.46-1.73-3.45-3.86-2.23Z"/><path class="cls-13" d="M295.86,2.21L97.84,116.6c-2.13,1.23-3.86,4.22-3.86,6.68v147.69c0,2.46,1.73,3.45,3.86,2.23l198.02-114.39c2.13-1.23,3.86-4.22,3.85-6.68V4.44c0-2.46-1.73-3.45-3.86-2.23Z"/><g id="Window"><g><path class="cls-1" d="M103.59,260.94c-1.07,0-1.71-.88-1.71-2.35v-122.88L291.83,26.04v122.3c0,2.38-1.68,5.29-3.74,6.48l-182.97,105.64c-.54,.31-1.07,.48-1.53,.48h0Z"/><path class="cls-8" d="M291.33,26.9v121.44c0,2.19-1.6,4.95-3.49,6.05l-182.97,105.64c-.47,.27-.91,.41-1.28,.41-1.09,0-1.21-1.29-1.21-1.85v-122.59L291.33,26.9m1-1.73L101.38,135.42v123.17c0,1.81,.9,2.85,2.21,2.85,.54,0,1.14-.18,1.78-.55l182.97-105.64c2.2-1.27,3.99-4.37,3.99-6.91V25.17h0Z"/></g><g><path class="cls-4" d="M101.38,127.06c0-2.55,1.79-5.64,3.99-6.91L288.34,14.51c2.2-1.27,3.99-.24,3.99,2.3v8.36L101.38,135.42v-8.36Z"/><g><path class="cls-14" d="M269.86,29.48c-1.03,.6-1.87,2.05-1.87,3.24s.84,1.68,1.87,1.08c1.03-.6,1.87-2.05,1.87-3.24s-.84-1.68-1.87-1.08Z"/><path class="cls-14" d="M276.41,25.71c-1.03,.6-1.87,2.05-1.87,3.24s.84,1.68,1.87,1.08c1.03-.6,1.87-2.05,1.87-3.24s-.84-1.68-1.87-1.08Z"/><path class="cls-14" d="M282.97,21.94c-1.03,.6-1.87,2.05-1.87,3.24s.84,1.68,1.87,1.08c1.03-.6,1.87-2.05,1.87-3.24s-.84-1.68-1.87-1.08Z"/></g></g></g></g></g></g><g><g><g><path class="cls-14" d="M125.07,135.13c0,2.48,1.74,3.48,3.88,2.24s3.88-4.25,3.88-6.73c0-2.48-1.74-3.48-3.88-2.24-2.14,1.24-3.88,4.25-3.88,6.73Z"/><path class="cls-1" d="M129.32,132.08c0,.72,.51,1.01,1.13,.65,.62-.36,1.13-1.24,1.13-1.95s-.51-1.01-1.13-.65c-.62,.36-1.13,1.24-1.13,1.95Z"/></g><g><path class="cls-6" d="M141.36,128.64c.06-.04,.11-.03,.16,.01,.04,.04,.07,.11,.07,.21v.91c0,.09-.02,.19-.07,.28-.04,.09-.1,.16-.16,.19l-3.66,2.11c-.06,.04-.11,.03-.16-.01-.04-.04-.07-.11-.07-.21v-8.32c0-.09,.02-.19,.07-.28,.04-.09,.1-.16,.16-.19l.68-.39c.06-.04,.11-.03,.16,.01,.04,.04,.07,.11,.07,.21v7.06l2.76-1.59Z"/><path class="cls-6" d="M144.23,121.77c.31-.18,.58-.26,.83-.26,.25,0,.46,.08,.64,.23,.18,.15,.33,.37,.43,.65,.11,.28,.17,.61,.19,1,0,.07,0,.17,0,.29v.71c0,.12,0,.21,0,.29-.02,.41-.09,.81-.19,1.22-.11,.4-.25,.79-.43,1.14s-.4,.68-.64,.97c-.25,.29-.53,.52-.83,.7-.31,.18-.58,.26-.83,.26-.25,0-.46-.08-.64-.23s-.32-.36-.43-.65c-.11-.28-.17-.62-.19-1,0-.07-.01-.17-.01-.28,0-.11,0-.23,0-.35s0-.24,0-.36c0-.12,0-.22,.01-.3,.02-.4,.08-.81,.19-1.22,.11-.41,.25-.79,.43-1.15,.18-.36,.4-.69,.64-.98,.25-.29,.53-.52,.83-.7Zm1.01,2.31c-.02-.26-.06-.45-.12-.59-.06-.14-.14-.23-.24-.28-.09-.05-.2-.06-.31-.03-.11,.03-.23,.07-.34,.14-.12,.07-.23,.15-.34,.26-.11,.1-.21,.23-.31,.39-.1,.16-.17,.34-.24,.56-.06,.21-.1,.46-.12,.73,0,.07-.01,.16-.01,.27,0,.11,0,.21,0,.32s0,.22,0,.33c0,.11,0,.19,.01,.24,.02,.26,.06,.45,.12,.59,.06,.14,.14,.23,.24,.28,.09,.05,.2,.06,.31,.03,.11-.03,.23-.07,.34-.14,.12-.07,.23-.15,.34-.26,.11-.1,.21-.23,.31-.39,.1-.16,.17-.34,.24-.56,.06-.21,.1-.46,.12-.73,0-.06,0-.15,0-.26v-.65c0-.1,0-.19,0-.25Z"/><path class="cls-6" d="M149.32,120.5c-.33,.19-.58,.45-.72,.76-.15,.31-.22,.73-.22,1.24v3.35c0,.09-.02,.19-.07,.28-.05,.09-.1,.16-.16,.19l-.64,.37c-.06,.04-.11,.03-.16-.01-.04-.04-.07-.11-.07-.21v-6c0-.1,.02-.19,.07-.28,.04-.09,.1-.16,.16-.19l.64-.37c.06-.04,.11-.03,.16,.01,.04,.04,.07,.11,.07,.21v.3c.14-.29,.3-.54,.46-.75,.16-.21,.38-.39,.65-.54l.38-.22c.06-.04,.11-.03,.16,.01,.04,.04,.07,.11,.07,.21v.85c0,.09-.02,.19-.07,.28-.04,.09-.1,.16-.16,.19l-.54,.31Z"/><path class="cls-6" d="M150.5,121.62c0-.48,.05-.96,.14-1.44,.09-.48,.23-.93,.41-1.34,.18-.42,.39-.79,.65-1.11,.25-.33,.54-.58,.85-.76,.31-.18,.59-.25,.85-.23,.25,.03,.47,.14,.65,.33,.18,.19,.32,.46,.41,.8,.1,.34,.15,.73,.15,1.17v.58c0,.09-.02,.19-.07,.28-.04,.09-.1,.16-.16,.19l-2.79,1.61c0,.2,.03,.36,.08,.48,.05,.12,.12,.21,.21,.26,.09,.05,.19,.07,.31,.05,.12-.02,.24-.06,.36-.13,.18-.1,.32-.21,.44-.34,.11-.12,.2-.24,.28-.37,.06-.1,.11-.18,.15-.23,.04-.05,.09-.09,.16-.13l.67-.39c.06-.03,.12-.03,.16,0,.05,.04,.07,.11,.06,.21,0,.12-.05,.3-.13,.54-.08,.24-.2,.49-.36,.76-.16,.27-.36,.54-.6,.81-.24,.27-.51,.49-.82,.67s-.59,.26-.85,.24c-.25-.02-.47-.13-.65-.34-.18-.21-.31-.5-.41-.87-.1-.37-.14-.81-.14-1.33Zm2.05-3.11c-.16,.09-.3,.21-.41,.35-.11,.14-.21,.29-.29,.45-.08,.16-.14,.32-.18,.49-.04,.17-.07,.32-.08,.45l1.89-1.09c-.01-.12-.03-.25-.06-.37-.03-.12-.08-.22-.15-.3-.07-.08-.16-.12-.28-.12-.11,0-.26,.04-.44,.14Z"/><path class="cls-6" d="M156.6,115.39c.13-.33,.3-.61,.49-.85,.19-.24,.39-.42,.59-.54,.35-.2,.64-.27,.86-.19s.4,.24,.53,.49c.07-.21,.16-.42,.27-.62,.11-.2,.22-.38,.34-.54,.12-.16,.24-.31,.37-.43,.13-.12,.25-.22,.38-.29,.32-.18,.58-.25,.79-.21,.21,.04,.38,.16,.51,.36,.13,.2,.22,.46,.28,.8,.05,.33,.08,.7,.08,1.11v3.46c0,.09-.02,.19-.07,.28-.04,.09-.1,.16-.16,.19l-.64,.37c-.06,.04-.11,.03-.16-.01-.04-.04-.07-.11-.07-.21v-3.4c0-.58-.07-.95-.22-1.1-.14-.15-.35-.15-.61,0-.22,.13-.41,.35-.57,.66-.16,.32-.24,.76-.26,1.32v3.46c0,.09-.02,.19-.07,.28-.04,.09-.1,.16-.16,.19l-.64,.37c-.06,.04-.11,.03-.16-.01-.04-.04-.07-.11-.07-.21v-3.4c0-.58-.07-.95-.22-1.1-.14-.15-.35-.15-.61,0-.23,.13-.42,.36-.59,.69-.16,.33-.24,.78-.24,1.36v3.4c0,.09-.02,.19-.07,.28-.05,.09-.1,.16-.16,.19l-.63,.37c-.06,.04-.11,.03-.16-.01-.04-.04-.07-.11-.07-.21v-6c0-.1,.02-.19,.07-.28,.05-.09,.1-.16,.16-.19l.63-.37c.06-.04,.11-.03,.16,.01,.04,.04,.07,.11,.07,.21v.3Z"/><path class="cls-6" d="M165.61,110.66c-.02,.72-.02,1.44,0,2.16,.02,.97,.18,1.58,.48,1.85,.29,.27,.7,.25,1.21-.04,.22-.13,.43-.28,.62-.45,.19-.17,.35-.38,.49-.61,.14-.24,.26-.51,.36-.82,.1-.31,.18-.68,.23-1.09,.01-.11,.03-.19,.07-.25,.03-.06,.07-.1,.12-.13l.17-.1c.05-.03,.09-.03,.13,0,.04,.03,.05,.08,.05,.16-.01,.32-.06,.66-.14,1.03-.08,.38-.21,.75-.39,1.12-.18,.37-.41,.73-.69,1.07-.28,.34-.62,.62-1.01,.85-.38,.22-.71,.32-.98,.3-.27-.02-.5-.13-.68-.33-.18-.2-.32-.49-.41-.87-.09-.37-.14-.81-.15-1.31-.01-.35-.02-.72-.02-1.12s0-.79,.02-1.17c.01-.5,.06-1,.15-1.48,.09-.48,.22-.93,.41-1.34,.18-.41,.41-.79,.68-1.12,.27-.33,.6-.61,.98-.83,.4-.23,.73-.34,1.01-.32,.28,.02,.51,.11,.69,.27,.18,.17,.31,.39,.39,.67,.08,.28,.13,.57,.14,.87,0,.07,0,.14-.05,.21-.04,.07-.08,.12-.13,.15l-.17,.1s-.08,.03-.12,0c-.03-.02-.06-.08-.07-.17-.06-.35-.13-.63-.23-.82-.1-.2-.22-.33-.36-.4-.14-.07-.31-.09-.49-.04-.19,.04-.39,.13-.62,.26-.51,.3-.92,.75-1.21,1.36-.3,.61-.45,1.41-.48,2.4Z"/><path class="cls-6" d="M172.31,105.55c.3-.17,.57-.25,.8-.23,.23,.02,.42,.11,.57,.29,.15,.17,.27,.42,.35,.73,.08,.31,.13,.67,.14,1.08,0,.07,0,.15,0,.24,0,.09,0,.19,0,.29s0,.21,0,.3c0,.1,0,.18,0,.24-.01,.42-.06,.83-.14,1.24-.08,.41-.2,.79-.35,1.14-.15,.35-.34,.67-.57,.95-.23,.28-.49,.51-.8,.68-.3,.17-.57,.25-.79,.23-.23-.02-.42-.11-.57-.29-.15-.17-.27-.42-.36-.73-.08-.31-.13-.67-.13-1.08,0-.06,0-.14,0-.24,0-.1,0-.2,0-.3s0-.2,0-.3c0-.1,0-.18,0-.25,0-.42,.05-.83,.13-1.24,.08-.41,.2-.79,.36-1.14,.15-.35,.34-.67,.57-.95s.49-.51,.79-.68Zm1.35,2.22c-.02-.73-.15-1.21-.39-1.45-.24-.24-.56-.25-.95-.02-.39,.23-.71,.6-.95,1.12-.25,.52-.38,1.16-.39,1.91,0,.13,0,.29,0,.48s0,.35,0,.47c.02,.73,.15,1.21,.39,1.45,.25,.24,.56,.25,.95,.02,.39-.23,.71-.6,.95-1.12,.25-.52,.38-1.16,.39-1.91,0-.13,0-.29,0-.48s0-.35,0-.47Z"/><path class="cls-6" d="M175.83,104.38c.14-.35,.3-.66,.49-.92,.19-.26,.42-.47,.7-.63,.32-.18,.59-.24,.81-.16,.22,.08,.4,.28,.53,.6,.13-.44,.32-.85,.56-1.21,.25-.36,.53-.64,.86-.82,.22-.13,.43-.19,.62-.18,.19,.01,.35,.09,.49,.24,.14,.15,.25,.38,.33,.68,.08,.3,.12,.68,.12,1.15v3.75c0,.19-.06,.32-.18,.39l-.14,.08c-.12,.07-.18,.01-.18-.18v-3.62c0-.42-.03-.75-.09-1-.06-.24-.14-.42-.25-.52-.11-.11-.23-.15-.36-.14-.14,.01-.28,.06-.43,.15-.13,.07-.26,.18-.39,.33-.13,.14-.25,.33-.36,.56-.11,.23-.2,.5-.26,.82-.07,.32-.1,.69-.1,1.11v3.62c0,.19-.06,.32-.18,.39l-.14,.08c-.12,.07-.18,.01-.18-.18v-3.62c0-.42-.03-.75-.1-.99s-.15-.41-.26-.52c-.11-.11-.23-.15-.36-.14-.14,.01-.27,.06-.41,.14-.13,.07-.26,.18-.39,.33-.13,.15-.25,.33-.36,.56-.11,.23-.2,.5-.26,.81s-.1,.68-.1,1.1v3.63c0,.19-.06,.32-.18,.39l-.14,.08c-.12,.07-.18,.01-.18-.18v-6.13c0-.19,.06-.32,.18-.39l.14-.08c.12-.07,.18-.01,.18,.18v.45Z"/><path class="cls-6" d="M184.58,105.42c-.35,.2-.64,.27-.86,.2-.22-.07-.41-.2-.54-.41v3.05c0,.19-.06,.32-.18,.39l-.14,.08c-.12,.07-.18,.01-.18-.18v-8.57c0-.19,.06-.32,.18-.39l.14-.08c.12-.07,.18-.01,.18,.18v.6c.14-.37,.32-.72,.54-1.04,.22-.32,.51-.58,.86-.79,.32-.19,.6-.26,.82-.21,.23,.05,.41,.17,.55,.38,.14,.21,.24,.47,.31,.8,.06,.33,.1,.68,.11,1.05,0,.13,0,.27,0,.42s0,.3,0,.43c-.01,.38-.05,.78-.11,1.18-.06,.4-.17,.79-.31,1.15-.14,.37-.32,.71-.55,1.01-.22,.31-.5,.55-.82,.74Zm-1.4-3.13c0,.13,0,.3,0,.51s0,.37,0,.5c0,.25,.03,.5,.09,.73,.05,.23,.14,.42,.25,.56,.11,.14,.25,.23,.42,.27,.17,.04,.37-.01,.6-.15,.25-.14,.45-.32,.61-.55,.17-.22,.3-.47,.4-.75,.1-.28,.18-.57,.22-.89,.05-.31,.08-.63,.09-.95,0-.24,0-.48,0-.72-.01-.3-.04-.58-.09-.84-.05-.26-.12-.46-.22-.62-.1-.16-.24-.26-.4-.3-.16-.04-.37,.01-.61,.16-.24,.14-.44,.32-.61,.56-.17,.23-.31,.49-.41,.77-.11,.28-.19,.57-.24,.87-.05,.3-.08,.58-.09,.85Z"/><path class="cls-6" d="M190.35,101.96c-.12,.07-.18,.01-.18-.18v-.61c-.05,.15-.12,.31-.2,.47-.08,.17-.18,.33-.3,.49-.12,.16-.26,.32-.42,.48-.16,.16-.35,.3-.57,.43-.2,.12-.39,.18-.57,.18-.18,0-.34-.04-.48-.13-.14-.09-.25-.23-.33-.42-.08-.19-.12-.42-.12-.69,0-.29,.04-.58,.12-.86,.08-.28,.19-.55,.34-.81,.15-.26,.32-.51,.52-.74,.2-.23,.43-.45,.67-.64l1.32-1.05v-.45c0-.46-.09-.77-.27-.92s-.47-.12-.87,.11c-.31,.18-.55,.41-.72,.69-.17,.28-.28,.54-.32,.78-.02,.12-.05,.2-.08,.26-.03,.06-.07,.1-.12,.13l-.12,.07c-.05,.03-.09,.03-.13,0-.04-.03-.06-.09-.06-.17,0-.12,.03-.29,.08-.5,.06-.21,.15-.44,.27-.68,.13-.24,.29-.48,.48-.72,.2-.24,.43-.44,.71-.6,.33-.19,.6-.28,.82-.26,.21,.01,.38,.09,.51,.24,.12,.15,.21,.34,.25,.58,.05,.24,.07,.49,.07,.74v4.29c0,.19-.06,.32-.18,.39l-.14,.08Zm-1.58,.29c.19-.11,.37-.26,.54-.46,.17-.2,.32-.43,.45-.7,.13-.27,.23-.58,.3-.92,.07-.34,.11-.72,.11-1.12v-.44l-1.08,.85c-.93,.73-1.39,1.45-1.39,2.17,0,.21,.03,.38,.1,.5,.06,.12,.15,.2,.25,.24,.1,.04,.21,.05,.34,.03,.13-.03,.26-.08,.38-.15Z"/><path class="cls-6" d="M195.62,98.63c0,.19-.06,.32-.18,.39l-.14,.08c-.12,.07-.18,.01-.18-.18v-3.59c0-.69-.11-1.16-.33-1.43-.22-.27-.53-.28-.95-.04-.4,.23-.72,.61-.96,1.13-.24,.53-.36,1.13-.36,1.83v3.59c0,.19-.06,.32-.18,.39l-.14,.08c-.12,.07-.18,.01-.18-.18v-6.13c0-.19,.06-.32,.18-.39l.14-.08c.12-.07,.18-.01,.18,.18v.6c.15-.39,.33-.74,.54-1.05,.21-.31,.5-.57,.86-.78,.28-.16,.53-.23,.74-.21,.21,.02,.39,.12,.53,.3s.25,.42,.32,.73c.07,.31,.11,.67,.11,1.08v3.66Z"/><path class="cls-6" d="M197.9,99.85c-.02,.06-.04,.12-.07,.17-.03,.06-.07,.1-.13,.13l-.17,.1s-.08,.02-.12,0c-.03-.03-.05-.08-.05-.15,0-.04,.02-.14,.05-.29l.65-2.69-1.6-4.87c-.03-.11-.05-.19-.05-.23,0-.07,.02-.14,.05-.21,.03-.07,.07-.12,.12-.15l.18-.1c.06-.03,.1-.04,.13-.01,.03,.02,.05,.06,.07,.1l1.4,4.29,1.44-5.93c.02-.06,.04-.12,.07-.17,.03-.05,.07-.1,.13-.13l.17-.1s.08-.02,.12,0c.03,.03,.05,.08,.05,.15,0,.04-.02,.14-.05,.29l-2.38,9.8Z"/></g></g><g><g><path class="cls-14" d="M237.67,68.02v8.67c0,1.32,.93,1.85,2.07,1.19l7.51-4.34c1.14-.66,2.07-2.26,2.07-3.58v-8.67c0-1.32-.93-1.85-2.07-1.19l-7.51,4.34c-1.14,.66-2.07,2.26-2.07,3.58Z"/><path class="cls-1" d="M247.87,67.11v-1.29c0-.08-.06-.11-.13-.08l-.99,.45c-.07,.03-.14,0-.17-.08-.06-.18-.13-.35-.22-.49-.04-.07-.05-.17-.02-.24l.66-1.34c.03-.07,0-.16-.06-.19l-.72-.42c-.07-.04-.16-.02-.2,.05l-.83,1.24c-.04,.06-.14,.11-.22,.11-.17,0-.35,.01-.54,.05-.08,.02-.14-.03-.15-.11l-.11-1.09c0-.08-.07-.11-.13-.07l-1.12,.64c-.07,.04-.13,.13-.13,.21l-.11,1.24c0,.08-.06,.18-.12,.23-.22,.2-.42,.42-.62,.66-.05,.06-.15,.09-.22,.06l-.72-.25c-.07-.03-.16,0-.2,.07l-.82,1.42c-.04,.07-.02,.16,.04,.21l.58,.5c.06,.05,.08,.15,.06,.22-.11,.29-.19,.58-.26,.87-.02,.08-.08,.17-.14,.22l-1.02,.72c-.06,.04-.11,.14-.11,.22v1.29c0,.08,.06,.11,.13,.08l.99-.45c.07-.03,.14,0,.17,.08,.06,.18,.13,.35,.22,.49,.04,.07,.05,.17,.02,.24l-.66,1.34c-.03,.07,0,.16,.06,.19l.72,.42c.07,.04,.16,.02,.2-.05l.83-1.24c.04-.06,.14-.11,.22-.11,.17,0,.35-.01,.54-.05,.08-.02,.14,.03,.15,.11l.11,1.09c0,.08,.07,.11,.13,.07l1.12-.64c.07-.04,.13-.13,.13-.21l.11-1.24c0-.08,.06-.18,.12-.23,.22-.2,.42-.42,.62-.66,.05-.06,.15-.09,.22-.06l.72,.25c.07,.03,.16,0,.2-.07l.82-1.42c.04-.07,.02-.16-.04-.21l-.58-.5c-.06-.05-.08-.15-.06-.22,.11-.29,.19-.58,.26-.87,.02-.08,.08-.17,.14-.22l1.02-.72c.06-.04,.11-.14,.11-.22Zm-4.37,4.06c-1.04,.6-1.89,.11-1.89-1.09s.84-2.67,1.89-3.27c1.04-.6,1.89-.11,1.89,1.09s-.84,2.67-1.89,3.27Z"/></g><g><path class="cls-14" d="M218.26,79.25v8.67c0,1.32,.93,1.85,2.07,1.19l7.51-4.34c1.14-.66,2.07-2.26,2.07-3.58v-8.67c0-1.32-.93-1.85-2.07-1.19l-7.51,4.34c-1.14,.66-2.07,2.26-2.07,3.58Z"/><polygon class="cls-1" points="224.08 81.74 223.13 82.3 223.13 85.03 221.35 86.06 221.35 81.66 220.3 82.27 224.08 75.69 227.87 77.9 226.82 78.5 226.82 82.9 225.04 83.93 225.04 81.19 224.08 81.74"/></g><g><path class="cls-14" d="M257.09,56.82v8.67c0,1.32,.93,1.85,2.07,1.19l7.51-4.34c1.14-.66,2.07-2.26,2.07-3.58v-8.67c0-1.32-.93-1.85-2.07-1.19l-7.51,4.34c-1.14,.66-2.07,2.26-2.07,3.58Z"/><g><path class="cls-1" d="M267.3,52.38c-.05-.02-.11-.01-.18,.03l-7.87,4.55c-.1,.06-.17,.16-.23,.28l4.16,1.52,4.13-6.38Z"/><path class="cls-1" d="M259.01,57.23c-.04,.08-.07,.16-.07,.24v6.53c-.01,.09,.02,.15,.07,.18l3.3-5.09-3.29-1.86Z"/><path class="cls-1" d="M267.3,52.38l-3.19,5.57,3.22,1.45-3.44-1.07-.48,.85c-.13,.23-.42,.31-.65,.18l-.17-.1-3.58,4.93c.06,.04,.13,.04,.22-.01l7.89-4.55c.17-.1,.3-.33,.3-.52v-6.53c0-.11-.05-.18-.12-.2Z"/><polygon class="cls-1" points="259.01 57.23 259.01 57.23 259.01 57.23 259.01 57.23"/><polygon class="cls-1" points="267.31 52.37 267.3 52.38 267.3 52.38 267.31 52.37"/></g></g></g><g><polygon class="cls-1" points="125.07 148.58 268.74 65.63 268.74 110.47 125.07 193.41 125.07 148.58"/><g><g><polygon class="cls-14" points="132.84 184.45 132.84 148.58 179.43 121.68 179.43 157.54 132.84 184.45"/><polygon class="cls-2" points="132.84 184.45 132.84 148.58 179.43 121.68 179.43 157.54 132.84 184.45"/><path class="cls-14" d="M166.04,139.69c0,1.79,1.26,2.52,2.81,1.62,1.55-.9,2.81-3.07,2.81-4.87s-1.26-2.52-2.81-1.62c-1.55,.9-2.81,3.07-2.81,4.87Z"/><polygon class="cls-14" points="132.84 184.45 132.84 170.99 147.14 152.08 163.9 161.5 158.26 156.74 166.36 147.01 179.43 153.8 179.43 157.54 132.84 184.45"/></g><path class="cls-6" d="M189.27,116l30.81-17.79c1.14-.66,2.07-.19,2.07,1.05s-.93,2.78-2.07,3.44l-30.81,17.79c-1.14,.66-2.07,.19-2.07-1.05s.93-2.78,2.07-3.44Z"/><g><path class="cls-8" d="M188.44,125.44l71.29-41.16c.69-.4,1.24-.22,1.24,.4,0,.62-.56,1.44-1.24,1.84l-71.29,41.16c-.69,.4-1.24,.22-1.24-.4,0-.62,.56-1.44,1.24-1.84Z"/><path class="cls-8" d="M188.44,129.93l71.29-41.16c.69-.4,1.24-.22,1.24,.4,0,.62-.56,1.44-1.24,1.84l-71.29,41.16c-.69,.4-1.24,.22-1.24-.4,0-.62,.56-1.44,1.24-1.84Z"/><path class="cls-8" d="M188.44,134.41l71.29-41.16c.69-.4,1.24-.22,1.24,.4,0,.62-.56,1.44-1.24,1.84l-71.29,41.16c-.69,.4-1.24,.22-1.24-.4,0-.62,.56-1.44,1.24-1.84Z"/><path class="cls-8" d="M188.44,138.89l40.23-23.24c.69-.4,1.24-.22,1.24,.4,0,.62-.56,1.44-1.24,1.84l-40.23,23.24c-.69,.4-1.24,.22-1.24-.4,0-.62,.56-1.44,1.24-1.84Z"/></g><path class="cls-14" d="M187.2,150.67v-1.95c0-1.32,.93-2.92,2.07-3.58l11.39-6.58c1.14-.66,2.07-.12,2.07,1.19v1.95c0,1.32-.93,2.92-2.07,3.58l-11.39,6.58c-1.14,.66-2.07,.12-2.07-1.19Z"/><g><path class="cls-14" d="M247.38,113.83c1.07-.62,1.94-.12,1.94,1.12,0,1.24-.87,2.74-1.94,3.36s-1.94,.12-1.94-1.12c0-1.24,.87-2.74,1.94-3.36Z"/><path class="cls-14" d="M254.07,110.7h0c.52,0,.57,.62,.57,.89,0,1.06-.77,2.4-1.69,2.93-.22,.13-.44,.2-.62,.2-.16,0-.29-.06-.39-.18-.12-.15-.19-.41-.19-.71,0-1.06,.77-2.4,1.69-2.93,.22-.13,.44-.2,.62-.2m0-.5c-.26,0-.56,.09-.87,.27-1.07,.62-1.94,2.12-1.94,3.36,0,.88,.44,1.39,1.07,1.39,.26,0,.56-.09,.87-.27,1.07-.62,1.94-2.12,1.94-3.36,0-.88-.44-1.39-1.07-1.39h0Z"/><path class="cls-14" d="M259.9,107.34h0c.52,0,.57,.62,.57,.89,0,1.06-.77,2.4-1.69,2.93-.22,.13-.44,.2-.62,.2-.16,0-.29-.06-.39-.18-.12-.15-.19-.4-.19-.71,0-1.06,.77-2.4,1.69-2.93,.22-.13,.44-.2,.62-.2m0-.5c-.26,0-.56,.09-.87,.27-1.07,.62-1.94,2.12-1.94,3.36,0,.88,.44,1.39,1.07,1.39,.26,0,.56-.09,.87-.27,1.07-.62,1.94-2.12,1.94-3.36,0-.88-.44-1.39-1.07-1.39h0Z"/></g></g></g><g><path class="cls-14" d="M127.14,201.18l38.57-22.27c1.14-.66,2.07-.12,2.07,1.19v35.57c0,1.32-.93,2.92-2.07,3.58l-38.57,22.27c-1.14,.66-2.07,.12-2.07-1.19v-35.57c0-1.32,.93-2.92,2.07-3.58Z"/><path class="cls-3" d="M127.14,201.18l38.57-22.27c1.14-.66,2.07-.12,2.07,1.19v35.57c0,1.32-.93,2.92-2.07,3.58l-38.57,22.27c-1.14,.66-2.07,.12-2.07-1.19v-35.57c0-1.32,.93-2.92,2.07-3.58Z"/><g><path class="cls-1" d="M132.89,202.35c2.17-1.25,3.93-.26,3.93,2.21s-1.76,5.5-3.93,6.75-3.93,.26-3.93-2.21c0-2.48,1.76-5.5,3.93-6.75Z"/><path class="cls-1" d="M142.67,196.7l19.16-11.06c1.14-.66,2.07-.19,2.07,1.05s-.93,2.78-2.07,3.44l-19.16,11.06c-1.14,.66-2.07,.19-2.07-1.05,0-1.24,.93-2.78,2.07-3.44Z"/><path class="cls-1" d="M141.84,203.9l13.05-7.53c.69-.4,1.24-.22,1.24,.4s-.56,1.44-1.24,1.84l-13.05,7.53c-.69,.4-1.24,.22-1.24-.4,0-.62,.56-1.44,1.24-1.84Z"/><g><path class="cls-1" d="M130.19,217.36l32.46-18.74c.69-.4,1.24-.22,1.24,.4s-.56,1.44-1.24,1.84l-32.46,18.74c-.69,.4-1.24,.22-1.24-.4s.56-1.44,1.24-1.84Z"/><path class="cls-1" d="M130.19,221.84l32.46-18.74c.69-.4,1.24-.22,1.24,.4s-.56,1.44-1.24,1.84l-32.46,18.74c-.69,.4-1.24,.22-1.24-.4s.56-1.44,1.24-1.84Z"/><path class="cls-1" d="M130.19,226.32l32.46-18.74c.69-.4,1.24-.22,1.24,.4s-.56,1.44-1.24,1.84l-32.46,18.74c-.69,.4-1.24,.22-1.24-.4s.56-1.44,1.24-1.84Z"/></g><g><path class="cls-1" d="M162.65,219.22c-.96,.56-1.75-.2-1.75-1.68s.78-3.14,1.75-3.7c.96-.56,1.75,.2,1.75,1.68s-.78,3.14-1.75,3.7Zm0-4.86c-.78,.45-1.41,1.79-1.41,2.98s.63,1.8,1.41,1.36,1.41-1.79,1.41-2.98-.63-1.8-1.41-1.36Z"/><path class="cls-1" d="M163.43,216.34l-1.74,1c-.09,.05-.17-.02-.17-.16s.08-.3,.17-.36l1.74-1c.09-.05,.17,.02,.17,.16s-.08,.3-.17,.36Z"/><path class="cls-1" d="M162.62,217.9s-.1,.02-.13-.02c-.06-.08-.04-.25,.03-.38l.74-1.32-.74-.47c-.07-.05-.09-.2-.03-.35,.06-.15,.16-.23,.24-.18l.91,.57s.06,.09,.06,.17-.02,.17-.06,.24l-.91,1.62c-.03,.05-.07,.09-.1,.11Z"/></g></g></g><g><path class="cls-14" d="M177.59,172.04l38.57-22.27c1.14-.66,2.07-.12,2.07,1.19v35.57c0,1.32-.93,2.93-2.07,3.59l-38.55,22.27c-1.14,.66-2.07,.13-2.07-1.19l-.02-35.57c0-1.32,.92-2.92,2.07-3.58Z"/><g><path class="cls-1" d="M183.36,173.21c2.17-1.25,3.93-.26,3.93,2.21s-1.76,5.5-3.93,6.75c-2.17,1.25-3.93,.26-3.93-2.21,0-2.48,1.76-5.5,3.93-6.75Z"/><path class="cls-1" d="M193.15,167.56l19.16-11.06c1.14-.66,2.07-.19,2.07,1.05s-.93,2.78-2.07,3.44l-19.16,11.06c-1.14,.66-2.07,.19-2.07-1.05,0-1.24,.93-2.78,2.07-3.44Z"/><path class="cls-1" d="M192.32,174.76l13.05-7.53c.69-.4,1.24-.22,1.24,.4s-.56,1.44-1.24,1.84l-13.05,7.53c-.69,.4-1.24,.22-1.24-.4,0-.62,.56-1.44,1.24-1.84Z"/><g><path class="cls-1" d="M180.67,188.21l32.46-18.74c.69-.4,1.24-.22,1.24,.4s-.56,1.44-1.24,1.84l-32.46,18.74c-.69,.4-1.24,.22-1.24-.4s.56-1.44,1.24-1.84Z"/><path class="cls-1" d="M180.67,192.7l32.46-18.74c.69-.4,1.24-.22,1.24,.4s-.56,1.44-1.24,1.84l-32.46,18.74c-.69,.4-1.24,.22-1.24-.4s.56-1.44,1.24-1.84Z"/><path class="cls-1" d="M180.67,197.18l32.46-18.74c.69-.4,1.24-.22,1.24,.4s-.56,1.44-1.24,1.84l-32.46,18.74c-.69,.4-1.24,.22-1.24-.4s.56-1.44,1.24-1.84Z"/></g><g><path class="cls-1" d="M213.13,190.07c-.96,.56-1.75-.2-1.75-1.68s.78-3.14,1.75-3.7c.96-.56,1.75,.2,1.75,1.68s-.78,3.14-1.75,3.7Zm0-4.86c-.78,.45-1.41,1.79-1.41,2.98s.63,1.8,1.41,1.36c.78-.45,1.41-1.79,1.41-2.98s-.63-1.8-1.41-1.36Z"/><path class="cls-1" d="M213.91,187.19l-1.74,1c-.09,.05-.17-.02-.17-.16s.08-.3,.17-.36l1.74-1c.09-.05,.17,.02,.17,.16s-.08,.3-.17,.36Z"/><path class="cls-1" d="M213.1,188.76s-.1,.02-.13-.02c-.06-.08-.04-.25,.03-.38l.74-1.32-.74-.47c-.07-.05-.09-.2-.03-.35,.06-.15,.16-.23,.24-.18l.91,.57s.06,.09,.06,.17-.02,.17-.06,.24l-.91,1.62c-.03,.05-.07,.09-.1,.12Z"/></g></g></g><g><path class="cls-14" d="M228.04,142.9l38.57-22.27c1.14-.66,2.07-.12,2.07,1.19v35.57c0,1.32-.93,2.93-2.07,3.59l-38.52,22.27c-1.14,.66-2.07,.13-2.07-1.19l-.05-35.57c0-1.32,.92-2.92,2.07-3.58Z"/><path class="cls-9" d="M228.04,142.9l38.57-22.27c1.14-.66,2.07-.12,2.07,1.19v35.57c0,1.32-.93,2.93-2.07,3.59l-38.52,22.27c-1.14,.66-2.07,.13-2.07-1.19l-.05-35.57c0-1.32,.92-2.92,2.07-3.58Z"/><g><path class="cls-1" d="M233.84,144.06c2.17-1.25,3.93-.26,3.93,2.21s-1.76,5.5-3.93,6.75c-2.17,1.25-3.93,.26-3.93-2.21,0-2.48,1.76-5.5,3.93-6.75Z"/><path class="cls-1" d="M243.63,138.41l19.16-11.06c1.14-.66,2.07-.19,2.07,1.05s-.93,2.78-2.07,3.44l-19.16,11.06c-1.14,.66-2.07,.19-2.07-1.05s.93-2.78,2.07-3.44Z"/><path class="cls-1" d="M242.8,145.62l13.05-7.53c.69-.4,1.24-.22,1.24,.4s-.56,1.44-1.24,1.84l-13.05,7.53c-.69,.4-1.24,.22-1.24-.4s.56-1.44,1.24-1.84Z"/><g><path class="cls-1" d="M231.15,159.07l32.46-18.74c.69-.4,1.24-.22,1.24,.4s-.56,1.44-1.24,1.84l-32.46,18.74c-.69,.4-1.24,.22-1.24-.4s.56-1.44,1.24-1.84Z"/><path class="cls-1" d="M231.15,163.55l32.46-18.74c.69-.4,1.24-.22,1.24,.4s-.56,1.44-1.24,1.84l-32.46,18.74c-.69,.4-1.24,.22-1.24-.4s.56-1.44,1.24-1.84Z"/><path class="cls-1" d="M231.15,168.04l32.46-18.74c.69-.4,1.24-.22,1.24,.4s-.56,1.44-1.24,1.84l-32.46,18.74c-.69,.4-1.24,.22-1.24-.4s.56-1.44,1.24-1.84Z"/></g><g><path class="cls-1" d="M263.61,160.93c-.96,.56-1.75-.2-1.75-1.68s.78-3.14,1.75-3.7c.96-.56,1.75,.2,1.75,1.68s-.78,3.14-1.75,3.7Zm0-4.86c-.78,.45-1.41,1.79-1.41,2.98s.63,1.8,1.41,1.36c.78-.45,1.41-1.79,1.41-2.98s-.63-1.8-1.41-1.36Z"/><path class="cls-1" d="M264.39,158.05l-1.74,1c-.09,.05-.17-.02-.17-.16s.08-.3,.17-.36l1.74-1c.09-.05,.17,.02,.17,.16s-.08,.3-.17,.36Z"/><path class="cls-1" d="M263.57,159.61c-.05,.03-.1,.02-.13-.02-.06-.08-.04-.25,.03-.38l.74-1.32-.74-.47c-.07-.05-.09-.2-.03-.35,.06-.15,.16-.23,.24-.18l.91,.57s.06,.09,.06,.17-.02,.17-.06,.24l-.91,1.62c-.03,.05-.07,.09-.1,.12Z"/></g></g></g></g></g></g><g id="Plants"><g id="Plants-2"><g><path class="cls-14" d="M497.43,239.41s0-6.09,2.28-12.68c2.27-6.59,6.95-13.36,12.67-14.89,5.72-1.53,8.38,2.23,7.36,6.12-.88,3.35-5.03,6.32-8.15,9.36-3.11,3.05-8.84,10.32-10.18,17.13l-3.25,.53-.74-5.57Z"/><g class="cls-12"><path d="M497.43,239.41s0-6.09,2.28-12.68c2.27-6.59,6.95-13.36,12.67-14.89,5.72-1.53,8.38,2.23,7.36,6.12-.88,3.35-5.03,6.32-8.15,9.36-3.11,3.05-8.84,10.32-10.18,17.13l-3.25,.53-.74-5.57Z"/></g><path class="cls-1" d="M499.82,242.31c.19-.01,.35-.17,.34-.37-.29-16.91,15.71-27.23,15.87-27.33,.17-.11,.22-.33,.11-.5-.11-.17-.33-.22-.5-.11-.17,.1-16.51,10.64-16.21,27.96,0,.2,.17,.36,.37,.36,0,0,0,0,.01,0Z"/></g><path class="cls-14" d="M500.74,265.49s.05,.07,.08,.1c.53,.65,1.53,.91,2.32,.98,2.23,.2,4.47-.65,6.26-2,1.78-1.36,3.15-3.2,4.27-5.13,.54-.93,1.03-1.9,1.76-2.68,1.5-1.63,4.09-1.73,6.11-2.28,2.64-.72,4.99-2.76,5.62-5.42,.63-2.66,.15-5.83-2.37-7.39q1-.72,2-1.44c.91-.65,1.83-1.31,2.55-2.17,.72-.86,1.23-1.94,1.18-3.06-.08-1.65-1.39-3.05-2.93-3.65-1.54-.59-3.26-.51-4.88-.23-1.64,.28-3.25,.75-4.78,1.4-.43,.18-.87,.38-1.34,.38-.62,0-1.17-.36-1.7-.67-3.67-2.15-9.44-1.67-11.11,2.85-.25,.66-.38,1.37-.64,2.03-.98,2.44-4.12,1.89-6.06,3.11-1.26,.79-1.97,2.28-2.14,3.76-.27,2.37,.53,5.02,1.08,7.32,.54,2.23,1.23,4.43,1.97,6.6,.61,1.79,1.28,3.56,1.98,5.32,.29,.73,.32,1.64,.77,2.28Z"/><path class="cls-1" d="M498.45,260.07c1.54-5.27,4.43-9.64,7.79-13.21,.03-.08,.1-.15,.18-.19,1.06-1.11,2.16-2.14,3.28-3.09,.56-4.94-1.64-9.14-1.67-9.18-.09-.18-.03-.4,.15-.49,.18-.1,.4-.03,.49,.15,.09,.17,2.12,4.03,1.81,8.87,7.49-6.1,15.4-8.8,15.54-8.85,.19-.06,.4,.04,.46,.23,.06,.19-.04,.4-.23,.46-.15,.05-10.29,3.51-18.38,11.46,5.16-1.19,11.52,1,11.81,1.1,.19,.07,.29,.27,.22,.46-.05,.14-.18,.24-.32,.24-.05,0-.09,0-.14-.02-.08-.03-7.54-2.59-12.62-.72-3.31,3.5-6.17,7.8-7.68,12.98-.04,.15-.18,.25-.33,.26-.04,0-.08,0-.12-.01-.19-.06-.3-.26-.25-.45Z"/></g></g><g id="Device_1"><g><g id="Device-3"><g><path class="cls-14" d="M429.21,94.76V230.83c0,1.4,.98,3.1,2.19,3.8l60.34,34.83c1.21,.7,2.19,.13,2.19-1.27V132.13c0-1.4-.98-3.1-2.19-3.8l-60.34-34.83c-1.21-.7-2.19-.13-2.19,1.27Zm3.16,16.24c0-1.2,.84-1.69,1.88-1.08l54.86,31.67c1.04,.6,1.88,2.06,1.88,3.26v106.59c0,1.2-.85,1.69-1.88,1.09l-54.86-31.67c-1.04-.6-1.88-1.36-1.88-2.56V111Z"/><path class="cls-13" d="M429.21,94.76V230.83c0,1.4,.98,3.1,2.19,3.8l60.34,34.83c1.21,.7,2.19,.13,2.19-1.27V132.13c0-1.4-.98-3.1-2.19-3.8l-60.34-34.83c-1.21-.7-2.19-.13-2.19,1.27Zm3.16,16.24c0-1.2,.84-1.69,1.88-1.08l54.86,31.67c1.04,.6,1.88,2.06,1.88,3.26v106.59c0,1.2-.85,1.69-1.88,1.09l-54.86-31.67c-1.04-.6-1.88-1.36-1.88-2.56V111Z"/></g><g><path class="cls-14" d="M492.01,269.6c1.22,.56,2.99,.51,4.12-.14l2.51-1.45c1.22-.7,2.2-2.4,2.2-3.8V128.15c0-.53-.14-1.1-.38-1.64-.08-.18-.16-.35-.26-.53,0,0,0,0,0,0l-6.9,3.99h0c.15,.26,.28,.53,.38,.8,.17,.46,.27,.92,.27,1.36v136.07c0,1.29-.84,1.87-1.92,1.4Z"/><path class="cls-15" d="M492.01,269.6c1.22,.56,2.99,.51,4.12-.14l2.51-1.45c1.22-.7,2.2-2.4,2.2-3.8V128.15c0-.53-.14-1.1-.38-1.64-.08-.18-.16-.35-.26-.53,0,0,0,0,0,0l-6.9,3.99h0c.15,.26,.28,.53,.38,.8,.17,.46,.27,.92,.27,1.36v136.07c0,1.29-.84,1.87-1.92,1.4Z"/></g><path class="cls-10" d="M461.05,240.09c-1.91-1.1-3.46-.21-3.46,2s1.55,4.9,3.46,6c1.91,1.1,3.46,.21,3.46-2s-1.55-4.9-3.46-6Z"/><g><path d="M461.57,113.84c-.81-.47-1.47-.09-1.47,.85s.66,2.08,1.47,2.55c.81,.47,1.47,.09,1.47-.85,0-.94-.66-2.08-1.47-2.55Z"/><path d="M467.25,122.79l-11.36-6.56c-.68-.39-1.23-.11-1.23,.62,0,.73,.55,1.65,1.23,2.04l11.36,6.56c.68,.39,1.23,.11,1.23-.62s-.55-1.65-1.23-2.04Z"/></g><path class="cls-14" d="M432.37,218.29c0,1.2,.84,1.96,1.88,2.56l54.86,31.67c1.04,.6,1.88,.11,1.88-1.09v-106.59c0-1.2-.85-2.66-1.88-3.26l-54.86-31.67c-1.04-.6-1.88-.12-1.88,1.08v107.29Z"/><path class="cls-1" d="M432.37,218.29c0,1.2,.84,1.96,1.88,2.56l54.86,31.67c1.04,.6,1.88,.11,1.88-1.09v-106.59c0-1.2-.85-2.66-1.88-3.26l-54.86-31.67c-1.04-.6-1.88-.12-1.88,1.08v107.29Z"/><g><path class="cls-14" d="M429.23,94.41c.16-1.14,1.07-1.55,2.17-.92l60.34,34.83c.6,.35,1.15,.95,1.55,1.64l6.9-3.99c-.4-.69-.95-1.28-1.55-1.63l-60.33-34.84c-1.21-.7-3.17-.7-4.39,0l-2.52,1.44c-1.11,.65-2.03,2.13-2.17,3.45Z"/><path class="cls-9" d="M429.23,94.41c.16-1.14,1.07-1.55,2.17-.92l60.34,34.83c.6,.35,1.15,.95,1.55,1.64l6.9-3.99c-.4-.69-.95-1.28-1.55-1.63l-60.33-34.84c-1.21-.7-3.17-.7-4.39,0l-2.52,1.44c-1.11,.65-2.03,2.13-2.17,3.45Z"/></g></g><g><path class="cls-17" d="M489.11,141.58l-54.86-31.67c-1.04-.6-1.88-.12-1.88,1.08v12.31l58.62,33.84v-12.3c0-1.2-.85-2.66-1.88-3.26Z"/><path class="cls-6" d="M439.67,122.9c0,1.16,.92,2.65,2.06,3.31l34.7,20.28c1.14,.67,2.06,.2,2.06-1.04s-.93-2.78-2.07-3.44l-34.69-20.03c-1.14-.66-2.07-.25-2.07,.91Z"/><g><g><path class="cls-14" d="M456.64,159.42v10.01c0,1.52,.8,3.22,1.79,3.79l6.5,3.75c.99,.57,1.79-.2,1.79-1.72v-10.01c0-1.52-.8-3.22-1.79-3.79l-6.5-3.75c-.99-.57-1.79,.2-1.79,1.72Z"/><path class="cls-1" d="M465.46,170.27v-1.49c0-.09-.05-.2-.11-.24l-.86-.64c-.06-.05-.12-.17-.14-.28-.05-.28-.11-.56-.19-.83-.03-.12-.04-.26-.01-.3l.57-.77s0-.17-.05-.29l-.62-1.32c-.06-.12-.13-.2-.17-.18l-.72,.47s-.12-.04-.19-.13c-.15-.2-.3-.39-.47-.56-.07-.07-.12-.2-.13-.3l-.09-1.38c0-.1-.06-.2-.12-.24l-.97-.56c-.06-.03-.11,0-.12,.09l-.1,1.3c0,.08-.05,.14-.1,.13-.19-.02-.37,0-.54,.03-.04,.01-.13-.07-.19-.18l-.62-1.13c-.06-.11-.14-.18-.17-.15l-.71,.68s-.02,.16,.03,.29l.5,1.24c.05,.13,.07,.27,.05,.32-.09,.21-.17,.44-.22,.7-.01,.07-.07,.11-.12,.08l-.88-.36c-.05-.02-.1,.03-.1,.12v1.49c0,.09,.05,.2,.11,.24l.86,.64c.06,.05,.12,.17,.14,.28,.05,.28,.11,.56,.19,.83,.03,.12,.04,.26,.01,.3l-.57,.77s0,.17,.05,.29l.62,1.32c.06,.12,.13,.2,.17,.18l.72-.47s.12,.04,.19,.13c.15,.2,.3,.39,.47,.56,.07,.07,.12,.2,.13,.3l.09,1.38c0,.1,.06,.2,.12,.24l.97,.56c.06,.03,.11,0,.12-.09l.1-1.3c0-.08,.05-.14,.1-.13,.19,.02,.37,.01,.54-.03,.04-.01,.13,.07,.19,.18l.62,1.13c.06,.11,.14,.18,.17,.15l.71-.68s.02-.16-.03-.29l-.5-1.24c-.05-.13-.07-.27-.05-.32,.09-.21,.17-.44,.22-.7,.01-.07,.07-.11,.12-.08l.88,.36c.05,.02,.1-.03,.1-.12Zm-3.78-.41c-.9-.52-1.63-2.07-1.63-3.46s.73-2.09,1.63-1.57,1.63,2.07,1.63,3.46-.73,2.09-1.63,1.57Z"/></g><g><path class="cls-14" d="M439.82,149.74v10.01c0,1.52,.8,3.22,1.79,3.79l6.5,3.75c.99,.57,1.79-.2,1.79-1.72v-10.01c0-1.52-.8-3.22-1.79-3.79l-6.5-3.75c-.99-.57-1.79,.2-1.79,1.72Z"/><polygon class="cls-1" points="444.87 159.42 444.04 158.94 444.04 162.1 442.5 161.21 442.5 156.13 441.59 155.61 444.87 152.42 448.15 159.39 447.24 158.87 447.24 163.95 445.7 163.06 445.7 159.9 444.87 159.42"/></g><g><path class="cls-14" d="M473.45,169.15v10.01c0,1.52,.8,3.22,1.79,3.79l6.5,3.75c.99,.57,1.79-.2,1.79-1.72v-10.01c0-1.52-.8-3.22-1.79-3.79l-6.5-3.75c-.99-.57-1.79,.2-1.79,1.72Z"/><g><path class="cls-1" d="M482.29,175.93c-.04-.08-.1-.15-.16-.18l-6.82-3.94c-.09-.05-.15-.01-.2,.06l3.6,6.61,3.58-2.55Z"/><path class="cls-1" d="M475.12,171.87s-.06,.1-.06,.19v7.52c-.01,.1,.02,.21,.06,.3l2.86-2.03-2.85-5.99Z"/><path class="cls-1" d="M482.3,175.93l-2.77,2.71,2.79,5.43-2.98-5.25-.42,.41c-.11,.11-.36-.13-.56-.55l-.15-.32-3.1,1.52c.05,.11,.12,.2,.19,.25l6.83,3.95c.14,.08,.26-.03,.26-.25v-7.54c0-.13-.04-.26-.1-.37Z"/><polygon class="cls-1" points="475.11 171.86 475.12 171.87 475.12 171.87 475.11 171.86"/><polygon class="cls-1" points="482.3 175.93 482.29 175.93 482.3 175.93 482.3 175.93"/></g></g></g><g><g><path class="cls-1" d="M434.72,115.36v-.78c0-.17,.07-.27,.15-.22l.04,.02c.08,.05,.15,.22,.15,.39v.78c0,.17-.07,.27-.15,.22l-.04-.02c-.08-.05-.15-.22-.15-.39Z"/><path class="cls-1" d="M435.4,115.75v-1.35c0-.17,.07-.27,.15-.22l.04,.02c.08,.05,.15,.22,.15,.39v1.35c0,.17-.07,.27-.15,.22l-.04-.02c-.08-.05-.15-.22-.15-.39Z"/><path class="cls-1" d="M436.08,116.14v-1.92c0-.17,.07-.27,.15-.22l.04,.02c.08,.05,.15,.22,.15,.39v1.92c0,.17-.07,.27-.15,.22l-.04-.02c-.08-.05-.15-.22-.15-.39Z"/><path class="cls-1" d="M436.75,116.53v-3.32c0-.17,.07-.27,.15-.22l.04,.02c.08,.05,.15,.22,.15,.39v3.31c0,.17-.07,.27-.15,.22l-.04-.02c-.08-.05-.15-.22-.15-.39Z"/></g><g><path class="cls-1" d="M438.59,117.82s-.02-.07-.02-.12v-.49l-.76-.44s-.06-.07-.06-.14v-.17s0-.07,0-.09c0-.02,.01-.04,.03-.06l.81-1.28s.03-.04,.04-.04c.01,0,.03,0,.05,.01l.11,.06s.05,.04,.07,.08c.01,.03,.02,.08,.02,.13v1.7l.17,.1s.05,.04,.07,.07c.01,.03,.02,.07,.02,.13v.12c0,.05,0,.08-.02,.1-.01,.02-.03,.01-.07,0l-.17-.1v.49c0,.05,0,.08-.02,.1-.01,.01-.04,.01-.07,0l-.13-.07s-.05-.04-.07-.07Zm.03-1v-1.21l-.55,.89,.55,.32Z"/><path class="cls-1" d="M439.5,118.05c-.15-.35-.22-.77-.22-1.25s.08-.81,.22-.99c.15-.18,.36-.19,.63-.03,.11,.06,.21,.14,.31,.24,.09,.09,.17,.2,.24,.31,.01,.02,.02,.05,.02,.07,0,.01,0,.03,0,.05l-.07,.17s-.02,.03-.03,.02c0,0-.02-.02-.03-.04-.11-.17-.24-.3-.39-.39-.18-.11-.33-.1-.43,.03-.1,.12-.16,.37-.16,.75s.05,.68,.15,.92c.1,.24,.24,.41,.42,.51,.06,.04,.13,.06,.19,.08,.06,.02,.11,.02,.15,0v-.79l-.32-.18s-.05-.04-.07-.07c-.01-.03-.02-.07-.02-.13v-.11c0-.05,0-.09,.02-.1,.01-.01,.04-.01,.07,0l.51,.29s.06,.05,.08,.09c.02,.04,.02,.09,.02,.15v1.13s0,.07,0,.09c0,.02-.02,.03-.03,.04-.15,.08-.35,.05-.6-.1-.27-.16-.48-.41-.63-.76Z"/></g><g><path class="cls-1" d="M487.98,143.41c-.09-.22-.19-.38-.3-.45l-2.28-1.32c-.2-.11-.35,.11-.35,.52v1.71c0,.22,.05,.47,.13,.7,.04,.1,.08,.18,.12,.25,.06,.09,.12,.16,.18,.19l2.28,1.32c.2,.11,.35-.11,.35-.52v-1.71c0-.22-.05-.47-.13-.7Zm-2.72,1.03c-.03-.08-.05-.19-.05-.31v-1.71c0-.3,.12-.48,.27-.39l2.28,1.32s.07,.05,.1,.1c.01,.02,.03,.05,.04,.08,.03,.08,.05,.19,.05,.31v1.71c0,.3-.12,.48-.27,.39l-2.28-1.32c-.06-.03-.1-.1-.14-.18Z"/><path class="cls-1" d="M486.7,143.05v2.02l-1.23-.71s-.03-.03-.04-.03c0,0,0-.03,0-.07v-1.53c0-.22,.1-.35,.2-.29l1.07,.62Z"/><path class="cls-1" d="M488.23,144.18c.08,.05,.15,.37,.15,.72v.32c0,.35-.07,.6-.15,.56l-.15-.07v-1.61s.07,.04,.16,.09Z"/></g><g><path class="cls-1" d="M443.85,120.32c0,.38-.2,.57-.44,.43-.24-.14-.44-.56-.44-.94s.2-.57,.44-.43c.24,.14,.44,.56,.44,.94Z"/><path class="cls-1" d="M443.41,118.27c-.45-.26-.83-.1-1.03,.36-.04,.09-.02,.25,.05,.36h0c.08,.15,.21,.18,.26,.07,.14-.32,.41-.43,.72-.25,.31,.18,.59,.61,.72,1.09,.05,.17,.17,.28,.26,.23h0c.07-.04,.09-.17,.05-.31-.2-.68-.58-1.29-1.03-1.54Z"/><path class="cls-1" d="M443.41,117.18c-.66-.38-1.24-.19-1.58,.42-.05,.09-.03,.25,.04,.38h0c.08,.15,.2,.18,.25,.08,.27-.5,.75-.66,1.29-.35,.54,.31,1.02,1.02,1.29,1.84,.06,.17,.17,.27,.25,.22h0c.07-.05,.09-.19,.04-.34-.33-.99-.92-1.87-1.58-2.25Z"/></g><g><path class="cls-1" d="M458.72,129.36s0,.05-.02,.07c-.02,.01-.03,.02-.05,0l-.11-.06s-.04-.03-.05-.06-.02-.06-.02-.09v-2.33l-.44,.26s-.03,.01-.05,0c-.02-.02-.04-.04-.05-.07l-.07-.17s-.02-.06-.01-.09c0-.03,.01-.05,.03-.06l.59-.35s.03-.01,.04,0c.02,0,.03,.01,.04,.02l.11,.07s.04,.03,.05,.06c.01,.03,.02,.06,.02,.09v2.73Z"/><path class="cls-1" d="M459.37,127.86s.04,.03,.05,.06c.01,.03,.02,.06,.02,.09v.28s0,.05-.02,.07c-.01,.01-.03,.01-.05,0l-.18-.11s-.04-.03-.05-.06c-.02-.03-.02-.06-.02-.09v-.28s0-.05,.02-.07c.01-.01,.03-.02,.05,0l.18,.11Zm0,1.48s.04,.03,.05,.06c.01,.03,.02,.06,.02,.09v.28s0,.05-.02,.07c-.01,.01-.03,.02-.05,0l-.18-.11s-.04-.03-.05-.06c-.02-.03-.02-.06-.02-.09v-.28s0-.05,.02-.07c.01-.01,.03-.02,.05,0l.18,.11Z"/><path class="cls-1" d="M460.72,130.63s-.04-.03-.05-.06c-.01-.03-.02-.06-.02-.09v-.58l-.86-.5s-.04-.03-.05-.06c-.01-.03-.02-.06-.02-.09v-.15s0-.04,0-.06c0-.02,.02-.04,.03-.06l.87-1.25s.03-.04,.05-.05c.02,0,.04,0,.06,0l.11,.06s.04,.03,.05,.06c.01,.03,.02,.06,.02,.09v1.77l.24,.14s.04,.03,.05,.06c.01,.03,.02,.06,.02,.09v.15s0,.05-.02,.07c-.01,.01-.03,.02-.05,0l-.24-.14v.58s0,.05-.02,.07c-.01,.01-.03,.01-.05,0l-.11-.06Zm-.07-1.12v-1.19l-.6,.85,.6,.34Z"/><path class="cls-1" d="M461.68,130.47c0,.05,.02,.1,.04,.16s.04,.11,.07,.16c.03,.05,.08,.11,.13,.16,.05,.05,.13,.11,.21,.16,.06,.03,.11,.05,.16,.06,.05,0,.1,0,.14-.02,.04-.02,.07-.06,.09-.11,.02-.05,.04-.13,.04-.22s-.01-.17-.03-.25c-.02-.08-.05-.14-.09-.2-.04-.06-.08-.11-.13-.16-.05-.05-.11-.09-.17-.12l-.23-.13s-.04-.03-.05-.06c-.01-.03-.02-.06-.02-.09v-.15s0-.05,.01-.06c.01-.02,.02-.03,.03-.04l.49-.53-.79-.46s-.04-.03-.05-.06c-.01-.03-.02-.06-.02-.09v-.15s0-.05,.02-.07c.01-.01,.03-.02,.05,0l1.08,.62s.04,.03,.05,.06c.01,.03,.02,.06,.02,.09v.15s0,.05-.01,.07c0,.02-.02,.03-.04,.05l-.49,.53c.09,.06,.18,.13,.25,.21,.08,.08,.14,.18,.2,.29,.05,.11,.1,.22,.13,.34,.03,.12,.04,.25,.04,.38,0,.14-.02,.26-.05,.35-.04,.09-.09,.16-.15,.2-.06,.04-.13,.06-.22,.05-.08,0-.17-.04-.27-.09-.12-.07-.23-.15-.32-.25-.09-.09-.16-.19-.22-.3-.06-.1-.1-.21-.13-.31-.03-.11-.04-.2-.04-.3,0-.03,0-.04,.02-.05,.01-.01,.02-.01,.04,0l.13,.07s.04,.03,.05,.06c.01,.03,.02,.05,.02,.07Z"/></g></g><g><polygon class="cls-14" points="439.82 210.65 439.82 168.63 483.56 193.88 483.56 235.9 439.82 210.65"/><polygon class="cls-2" points="439.82 210.65 439.82 168.63 483.56 193.88 483.56 235.9 439.82 210.65"/><path class="cls-14" d="M470.99,196.63c0,2.24,1.18,4.74,2.64,5.58,1.46,.84,2.64-.3,2.64-2.54,0-2.24-1.18-4.74-2.64-5.58-1.46-.84-2.64,.29-2.64,2.54Z"/><polygon class="cls-14" points="439.82 210.65 439.82 193.82 453.25 188.23 468.98 221.21 463.69 208.13 471.29 206.19 483.56 231.21 483.56 235.9 439.82 210.65"/></g><g><path class="cls-14" d="M455.39,222.65c1.07,.62,1.94,2.28,1.94,3.71,0,1.43-.87,2.09-1.94,1.47-1.07-.62-1.94-2.28-1.94-3.71,0-1.43,.87-2.09,1.94-1.47Z"/><path class="cls-14" d="M460.45,225.78v.5c.15,0,.33,.06,.52,.17,.92,.53,1.69,2.03,1.69,3.28,0,.41-.08,.75-.24,.96-.11,.16-.26,.24-.44,.24-.15,0-.33-.06-.52-.17-.92-.53-1.69-2.03-1.69-3.28,0-.55,.18-1.2,.67-1.2v-.5m0,0c-.69,0-1.17,.64-1.17,1.7,0,1.43,.87,3.09,1.94,3.71,.27,.16,.53,.23,.77,.23,.69,0,1.17-.64,1.17-1.7,0-1.43-.87-3.09-1.94-3.71-.27-.16-.53-.23-.77-.23h0Z"/><path class="cls-14" d="M466.27,229.64h0c.15,0,.33,.06,.52,.17,.92,.53,1.69,2.03,1.69,3.28,0,.41-.08,.75-.24,.96-.11,.16-.26,.24-.44,.24-.15,0-.33-.06-.52-.17-.92-.53-1.69-2.03-1.69-3.28,0-.55,.18-1.2,.67-1.2m0-.5c-.69,0-1.17,.64-1.17,1.7,0,1.43,.87,3.09,1.94,3.71,.27,.16,.53,.23,.77,.23,.69,0,1.17-.64,1.17-1.7,0-1.43-.87-3.09-1.94-3.71-.27-.16-.53-.23-.77-.23h0Z"/></g><g><g><path class="cls-14" d="M437.81,135.45c0,2.09,1.1,4.43,2.46,5.21s2.46-.28,2.46-2.37c0-2.09-1.1-4.43-2.46-5.21-1.36-.79-2.46,.28-2.46,2.37Z"/><path class="cls-1" d="M440.51,136.5c0,.61,.32,1.29,.72,1.52,.4,.23,.72-.08,.72-.69s-.32-1.29-.72-1.52c-.4-.23-.72,.08-.72,.69Z"/></g><g><path class="cls-6" d="M448.15,143.88s.07,.07,.1,.15c.03,.07,.04,.15,.04,.23v.77c0,.08-.01,.14-.04,.18-.03,.04-.06,.05-.1,.03l-2.32-1.34s-.07-.07-.1-.14c-.03-.07-.04-.15-.04-.23v-7.03c0-.08,.01-.14,.04-.18,.03-.04,.06-.05,.1-.03l.43,.25s.07,.07,.1,.14c.03,.08,.04,.15,.04,.23v5.97l1.75,1.01Z"/><path class="cls-6" d="M449.96,140.52c.19,.11,.37,.28,.53,.49,.16,.21,.29,.46,.41,.75,.11,.28,.21,.59,.28,.92,.07,.33,.11,.67,.12,1.01,0,.07,0,.15,0,.25v.6c0,.1,0,.18,0,.24-.01,.33-.05,.61-.12,.87-.07,.25-.16,.45-.27,.6-.11,.15-.25,.24-.41,.27-.16,.03-.33,0-.53-.12-.19-.11-.37-.28-.53-.49-.16-.21-.29-.46-.41-.74-.11-.28-.21-.59-.27-.91-.07-.33-.11-.66-.12-1.01,0-.07,0-.15,0-.25,0-.1,0-.2,0-.3s0-.2,0-.3,0-.18,0-.25c.01-.33,.05-.62,.12-.87,.07-.25,.16-.45,.28-.6,.11-.15,.25-.24,.41-.28,.16-.03,.33,0,.53,.12Zm.64,2.82c-.01-.23-.04-.43-.08-.61-.04-.17-.09-.32-.15-.44-.06-.12-.13-.22-.2-.29-.07-.07-.14-.13-.22-.17-.07-.04-.15-.07-.22-.08-.07,0-.14,.01-.2,.07-.06,.05-.11,.14-.15,.27-.04,.13-.07,.3-.08,.52,0,.06,0,.13,0,.21,0,.09,0,.18,0,.27s0,.19,0,.28c0,.09,0,.16,0,.22,.01,.23,.04,.43,.08,.61,.04,.17,.09,.32,.15,.44,.06,.12,.13,.22,.2,.29,.07,.07,.14,.13,.22,.17s.15,.07,.22,.08c.07,0,.14-.02,.2-.07,.06-.05,.11-.14,.15-.27,.04-.13,.07-.3,.08-.52,0-.05,0-.12,0-.21v-.55c0-.09,0-.16,0-.22Z"/><path class="cls-6" d="M453.19,143.8c-.21-.12-.37-.11-.46,.02-.09,.14-.14,.42-.14,.86v2.83c0,.08-.01,.14-.04,.18-.03,.04-.06,.05-.1,.03l-.4-.23s-.07-.07-.1-.15c-.03-.07-.04-.15-.04-.23v-5.07c0-.08,.01-.14,.04-.18,.03-.04,.06-.05,.1-.03l.4,.23s.07,.07,.1,.14c.03,.07,.04,.15,.04,.23v.25c.09-.12,.19-.2,.29-.23,.1-.03,.24,0,.41,.1l.24,.14s.07,.07,.1,.14,.04,.15,.04,.23v.72c0,.08-.01,.14-.04,.18s-.06,.05-.1,.03l-.34-.2Z"/><path class="cls-6" d="M453.94,145.76c0-.41,.03-.77,.09-1.1,.06-.32,.15-.59,.26-.79,.11-.2,.25-.33,.41-.39,.16-.06,.34-.03,.54,.08,.2,.11,.38,.29,.54,.53s.3,.52,.41,.84c.11,.32,.2,.66,.26,1.03,.06,.37,.09,.74,.09,1.12v.49c0,.08-.01,.14-.04,.18-.03,.04-.06,.05-.1,.03l-1.77-1.02c0,.17,.02,.32,.05,.47,.03,.15,.08,.28,.13,.4,.06,.12,.12,.22,.2,.31,.07,.09,.15,.15,.23,.2,.11,.06,.21,.09,.28,.09,.07,0,.13-.03,.17-.08,.04-.04,.07-.06,.1-.06,.02,0,.06,0,.1,.03l.42,.24s.07,.07,.1,.15c.03,.08,.04,.15,.04,.23,0,.1-.03,.21-.08,.34-.05,.13-.13,.24-.23,.34-.1,.09-.23,.15-.38,.17-.15,.02-.32-.02-.52-.14-.2-.11-.38-.29-.54-.52-.16-.23-.3-.52-.41-.84-.11-.33-.2-.69-.26-1.08-.06-.39-.09-.81-.09-1.24Zm1.3-.88c-.1-.06-.19-.08-.26-.06-.07,.02-.13,.06-.18,.13-.05,.07-.09,.16-.11,.26-.03,.1-.04,.21-.05,.31l1.2,.69c0-.11-.02-.24-.04-.37-.02-.13-.05-.26-.1-.38-.04-.12-.1-.24-.18-.34-.07-.1-.17-.19-.28-.25Z"/><path class="cls-6" d="M457.81,145.71c.08-.16,.19-.26,.31-.31s.25-.03,.38,.05c.22,.13,.4,.32,.55,.57s.25,.54,.33,.86c.05-.12,.1-.22,.17-.29,.07-.08,.14-.13,.22-.17,.08-.04,.15-.05,.24-.04,.08,0,.16,.03,.24,.08,.2,.12,.37,.28,.5,.5,.13,.22,.24,.46,.33,.74s.14,.58,.18,.91c.03,.33,.05,.66,.05,1v2.93c0,.08-.01,.14-.04,.18-.03,.04-.06,.05-.1,.03l-.4-.23s-.07-.07-.1-.14c-.03-.07-.04-.15-.04-.23v-2.87c0-.49-.05-.87-.14-1.11-.09-.25-.22-.42-.39-.52-.14-.08-.26-.06-.36,.07-.1,.13-.15,.43-.16,.9v2.93c0,.08-.01,.14-.04,.18-.03,.04-.06,.05-.1,.03l-.4-.23s-.07-.07-.1-.15c-.03-.08-.04-.15-.04-.23v-2.87c0-.49-.05-.87-.14-1.11-.09-.25-.22-.42-.39-.52-.14-.08-.27-.06-.37,.09-.1,.14-.15,.45-.15,.94v2.87c0,.08-.01,.14-.04,.18-.03,.04-.06,.05-.1,.03l-.4-.23s-.07-.07-.1-.15c-.03-.07-.04-.15-.04-.23v-5.07c0-.08,.01-.14,.04-.18,.03-.04,.06-.05,.1-.03l.4,.23s.07,.07,.1,.14c.03,.07,.04,.15,.04,.23v.25Z"/><path class="cls-6" d="M463.53,149.4c-.01,.6-.01,1.21,0,1.83,.01,.84,.11,1.49,.3,1.97,.19,.48,.44,.81,.77,1,.14,.08,.27,.13,.39,.14,.12,.01,.22-.02,.31-.1,.09-.08,.17-.21,.23-.38,.06-.18,.11-.42,.15-.73,0-.08,.02-.13,.04-.16,.02-.02,.05-.02,.07,0l.11,.06s.06,.05,.08,.11c.02,.05,.03,.11,.03,.18,0,.26-.04,.51-.09,.75-.05,.24-.14,.45-.25,.61-.11,.16-.26,.27-.43,.32-.18,.05-.39,0-.64-.15-.24-.14-.45-.33-.62-.58-.17-.25-.32-.54-.43-.87-.11-.33-.2-.69-.26-1.08-.06-.39-.09-.8-.1-1.24,0-.3-.01-.62-.01-.96s0-.67,.01-.97c0-.42,.04-.79,.1-1.12,.06-.33,.14-.59,.26-.79,.11-.19,.26-.32,.43-.37,.17-.05,.38,0,.62,.14,.25,.14,.46,.34,.64,.59,.18,.25,.32,.52,.43,.82,.11,.29,.2,.59,.25,.9,.05,.31,.08,.59,.09,.86,0,.07,0,.11-.03,.14-.02,.03-.05,.03-.08,.01l-.11-.06s-.05-.05-.07-.09c-.02-.05-.04-.11-.04-.2-.04-.35-.08-.65-.15-.9-.06-.25-.14-.47-.23-.65-.09-.18-.19-.34-.31-.46-.12-.12-.25-.23-.39-.31-.33-.19-.58-.15-.77,.11-.19,.26-.29,.8-.3,1.62Z"/><path class="cls-6" d="M467.78,150.8c.19,.11,.36,.27,.5,.48,.14,.21,.27,.45,.36,.73,.1,.28,.17,.58,.22,.92,.05,.33,.08,.68,.09,1.03,0,.06,0,.13,0,.21,0,.08,0,.16,0,.25s0,.17,0,.26c0,.08,0,.15,0,.2,0,.34-.04,.65-.09,.93-.05,.27-.13,.49-.22,.66-.1,.17-.22,.27-.36,.31-.15,.04-.31,0-.5-.1-.19-.11-.36-.27-.5-.48-.14-.21-.27-.46-.36-.73-.1-.28-.17-.58-.22-.92-.05-.34-.08-.68-.09-1.03,0-.05,0-.12,0-.2,0-.08,0-.17,0-.26s0-.17,0-.25c0-.08,0-.15,0-.21,0-.35,.03-.66,.09-.93,.05-.27,.13-.49,.22-.66,.1-.17,.22-.27,.36-.31,.14-.04,.31-.01,.5,.1Zm.85,3.03c-.01-.63-.09-1.15-.25-1.56-.16-.41-.36-.69-.6-.83-.25-.14-.45-.1-.61,.14-.16,.23-.24,.66-.25,1.28,0,.11,0,.24,0,.4s0,.29,0,.41c.01,.63,.09,1.15,.25,1.56,.16,.41,.36,.69,.61,.83,.25,.14,.45,.1,.6-.14,.16-.23,.24-.66,.25-1.28,0-.11,0-.24,0-.4s0-.3,0-.41Z"/><path class="cls-6" d="M470.01,152.82c.09-.18,.19-.3,.31-.36,.12-.06,.27-.04,.45,.07,.2,.12,.37,.3,.51,.56,.14,.26,.25,.57,.33,.95,.08-.26,.2-.44,.36-.54,.16-.09,.34-.08,.54,.04,.14,.08,.27,.21,.39,.38,.12,.17,.22,.38,.31,.63,.09,.25,.16,.53,.21,.86,.05,.32,.08,.68,.08,1.07v3.17c0,.16-.04,.22-.12,.17l-.09-.05c-.08-.04-.12-.15-.12-.31v-3.06c0-.36-.02-.66-.06-.92-.04-.26-.09-.48-.16-.66-.07-.18-.14-.32-.23-.43-.09-.11-.18-.19-.27-.24-.08-.05-.16-.06-.25-.06-.08,.01-.16,.07-.23,.17-.07,.1-.12,.26-.17,.47s-.06,.49-.06,.85v3.06c0,.16-.04,.22-.12,.17l-.09-.05c-.08-.04-.12-.15-.12-.31v-3.06c0-.36-.02-.66-.06-.92-.04-.26-.1-.48-.16-.66-.07-.18-.14-.32-.23-.43-.09-.11-.17-.19-.26-.24-.08-.05-.16-.07-.25-.06-.08,.01-.16,.07-.23,.17-.07,.1-.12,.26-.17,.46-.04,.21-.06,.49-.06,.84v3.07c0,.16-.04,.22-.12,.17l-.09-.05c-.08-.04-.12-.15-.12-.31v-5.18c0-.16,.04-.22,.12-.17l.09,.05c.08,.04,.12,.15,.12,.31v.38Z"/><path class="cls-6" d="M475.56,161.18c-.22-.13-.4-.32-.55-.57-.14-.25-.26-.52-.35-.81v2.58c0,.16-.04,.22-.12,.17l-.09-.05c-.08-.05-.12-.15-.12-.31v-7.25c0-.16,.04-.22,.12-.17l.09,.05c.08,.04,.12,.15,.12,.31v.51c.09-.2,.2-.33,.35-.42,.14-.08,.32-.06,.55,.07,.21,.12,.38,.29,.52,.53,.14,.23,.26,.49,.35,.79,.09,.29,.15,.61,.19,.94,.04,.33,.06,.66,.07,.98,0,.11,0,.23,0,.36s0,.25,0,.36c0,.32-.03,.62-.07,.9-.04,.29-.11,.52-.19,.72-.09,.19-.2,.32-.35,.39-.14,.07-.32,.04-.52-.08Zm-.89-3.85c0,.11,0,.25,0,.42s0,.32,0,.43c0,.22,.02,.45,.06,.69,.03,.24,.09,.47,.16,.68,.07,.21,.16,.41,.27,.58,.11,.17,.23,.3,.38,.39,.16,.09,.29,.11,.39,.06,.1-.05,.19-.15,.25-.29,.07-.15,.11-.33,.14-.56s.05-.47,.06-.72c0-.2,0-.4,0-.61,0-.27-.03-.53-.06-.78-.03-.26-.08-.5-.14-.72-.06-.22-.15-.42-.25-.59-.1-.17-.23-.3-.39-.39-.15-.09-.28-.1-.39-.05-.11,.05-.19,.16-.26,.3-.07,.15-.12,.32-.15,.53-.03,.21-.05,.42-.06,.64Z"/><path class="cls-6" d="M479.22,163.18c-.08-.04-.12-.15-.12-.31v-.51c-.03,.08-.07,.16-.13,.23-.05,.07-.11,.13-.19,.16-.07,.04-.16,.05-.27,.05-.1,0-.22-.05-.36-.13-.13-.07-.25-.19-.36-.34-.11-.15-.22-.32-.3-.52-.09-.2-.16-.41-.21-.63s-.08-.45-.08-.69c0-.25,.03-.45,.08-.62,.05-.17,.12-.3,.22-.39,.09-.1,.2-.15,.33-.18,.13-.02,.27-.01,.43,.03l.84,.24v-.38c0-.39-.06-.73-.17-1.01-.11-.28-.3-.5-.55-.64-.2-.11-.35-.12-.46-.03-.11,.09-.18,.22-.2,.39-.01,.08-.03,.13-.05,.15-.02,.02-.05,.02-.08,0l-.07-.04s-.06-.06-.08-.12c-.02-.06-.03-.12-.03-.19,0-.1,.02-.22,.05-.35,.04-.13,.09-.25,.17-.35s.18-.17,.3-.2c.12-.03,.27,0,.45,.1,.21,.12,.38,.28,.52,.47,.14,.19,.24,.41,.32,.64,.08,.23,.13,.47,.16,.71,.03,.24,.05,.47,.05,.69v3.63c0,.16-.04,.22-.12,.17l-.09-.05Zm-1-1.1c.12,.07,.23,.09,.34,.07,.11-.02,.2-.09,.28-.21,.08-.12,.14-.29,.19-.52,.05-.23,.07-.51,.07-.85v-.37l-.68-.2c-.59-.17-.88,.04-.88,.65,0,.18,.02,.35,.06,.5,.04,.15,.09,.29,.16,.42,.06,.12,.14,.23,.22,.32,.08,.09,.16,.15,.24,.2Z"/><path class="cls-6" d="M482.56,164.87c0,.16-.04,.22-.12,.17l-.09-.05c-.08-.05-.12-.15-.12-.31v-3.04c0-.58-.07-1.08-.21-1.49-.14-.41-.34-.69-.6-.84-.25-.15-.46-.1-.61,.14-.15,.24-.23,.65-.23,1.24v3.04c0,.16-.04,.22-.12,.17l-.09-.05c-.08-.05-.12-.15-.12-.31v-5.18c0-.16,.04-.22,.12-.17l.09,.05c.08,.05,.12,.15,.12,.31v.51c.1-.2,.21-.34,.34-.42,.13-.08,.32-.06,.55,.08,.18,.1,.34,.26,.47,.46,.13,.2,.25,.44,.34,.71,.09,.27,.16,.57,.2,.89,.05,.32,.07,.66,.07,1.01v3.09Z"/><path class="cls-6" d="M484.01,167.86s-.02,.07-.04,.09c-.02,.02-.04,.02-.08,0l-.11-.06s-.05-.05-.07-.11c-.02-.05-.03-.11-.03-.17,0-.04,.01-.1,.03-.2l.41-1.72-1.01-5.48c-.02-.12-.03-.2-.03-.24,0-.06,.01-.1,.03-.13,.02-.03,.05-.04,.07-.02l.11,.06s.06,.05,.08,.09c.02,.04,.03,.09,.04,.14l.89,4.83,.91-3.78s.02-.07,.04-.09c.02-.02,.04-.02,.08,0l.11,.06s.05,.05,.07,.11c.02,.06,.03,.11,.03,.17,0,.04-.01,.1-.03,.2l-1.51,6.26Z"/></g></g></g></g></g><g id="Character"><g><g><path class="cls-18" d="M412.52,69.1c-3.45-2.73-4.41-1.39-4.39,2.05,.01,2.54-.53,4.28-.53,4.28-.34-1.02-.49-1.49-.83-1.98-.66-.97-1.57-.89-1.93-.68-.29,.16,.17,.84,.28,2.16,.14,1.69-.29,2.69,.32,4.44,.23,.65,.19,1.37-.06,2.01-1.18,2.98-5.3,7.92-8.47,12.21-2.45-2.83-8.72-10.1-11.14-13.06-4.16-5.09-5.43-7.29-10.15-7.69,0,0,1.72,.83,3.6,2.99,1.88,2.16-.25,12.55-.25,12.55,0,0,14.28,13.99,15.77,15.34,.22,.2,.9,.71,1.41,.94,1.72,.67,3.68,.02,4.72-1.51,2.97-4.35,7.26-12.56,9.25-17.15,1.14-2.63,2.36-4.72,2.99-6.45,2.2-6.03,1.55-8.74-.61-10.45Z"/><path class="cls-14" d="M376.15,72.63s3.38-.35,6.21,2.58c2.43,2.52,12.5,15.1,12.5,15.1,0,0-.56,5.76-7.04,8.25l-12.85-12.38,1.18-13.55Z"/><path class="cls-12" d="M376.15,72.63s3.38-.35,6.21,2.58c2.43,2.52,12.5,15.1,12.5,15.1,0,0-.56,5.76-7.04,8.25l-12.85-12.38,1.18-13.55Z"/></g><g><rect class="cls-18" x="354.25" y="202.82" width="6.17" height="11.01"/><polygon class="cls-18" points="375.66 202.24 381.83 202.46 382.14 190.81 375.66 190.58 375.66 202.24"/><path class="cls-4" d="M353.38,107.51c0,6.14,.9,55.56,.9,55.56-.14,1.77-1.73,5.03-1.39,11.81,.47,9.22,1.09,33.45,1.09,33.45,0,0,3,1.82,6.87,.14,0,0,5.84-33.56,6.95-42.69,.97-7.97,2.6-34.82,2.6-34.82l3.35,31.22s-1.14,4.76-.77,10.22c.29,4.23,2.27,26.24,2.27,26.24,0,0,2.91,2.05,7.13,.57,0,0,3.51-33.15,3.58-37.02,.08-4.42-2.05-54.73-2.05-54.73l-30.55,.07Z"/><path class="cls-17" d="M360.43,210.66v-.92c.59,.27,1.96,5.72,4.41,8.05,1.95,1.85,4.6,3.99,5.28,6.05,.7,2.15-3.7,3.33-5.52,2.99-2.11-.39-5.78-1.94-6.7-3.38-.92-1.44-1.35-3.56-2.1-4.61-.75-1.05-2.47-2.23-2.87-3.45-.22-.67,.04-2.14,.35-3.38,.29-1.14,.6-2.39,.97-2.28,0,.14,0,.7,0,.7,.45,.52,1.69,1.03,3.09,1.09,.9,.04,3.09-.15,3.09-.87Z"/><path class="cls-17" d="M381.9,200.47c.32,.01,.58,.48,1.29,1.28,.85,.96,2.25,2,3.63,2.72,2.31,1.21,6.81,3.06,8.84,4.01,1.27,.6,1.21,2.2-.1,3.11-1.31,.91-4.49,1.57-8.29,.68-2.07-.48-4.78-2.48-6.49-2.37-1.71,.11-4.91,.08-6.17-.82-1.26-.91-.76-2.84-.4-4.5,.39-1.81,.88-4.64,1.45-4.52v.63c.74,1.17,4.57,1.65,6.2,.79l.03-.99Z"/><path class="cls-17" d="M370.41,130.95s4.94-1.45,8.6-5.13c0,0-1.66,3.24-6.59,6.25l1.06,27.88-3.06-28.99Z"/></g><path class="cls-14" d="M356.38,73.73s-4.62,.72-4.27,9.93l1.07,14.66-.1,22c4.54,5.14,24.67,4.77,31.56-.41,0,0-.71-26.04-1.18-36.06-.33-7.12-1.97-10.71-8.97-11.5l-8.91-.71-9.2,2.08Z"/><g><path class="cls-4" d="M364.99,52.48c0,5.29,4.12,9.57,9.19,9.57s9.19-4.29,9.19-9.57-4.12-9.57-9.19-9.57-9.19,4.29-9.19,9.57Z"/><g><path class="cls-4" d="M358.64,56.87s1.41,6.9,1.98,8.03c.57,1.13,1.73,1.46,1.73,1.46l-.1-4.85-3.61-4.64Z"/><path class="cls-4" d="M360.41,46.99s-1.01-.25-2.08,1.42c-.92,1.44-1.13,4.67,.32,8.46l2.66,.32-.89-10.2Z"/><path class="cls-18" d="M362.09,57.19c-.53,.33-1.29-.73-1.95-1.45-.66-.72-2.8-1.69-3.87,.65-1.09,2.39,1,5.41,2.63,6.1,2.22,.94,3.35-.99,3.35-.99l.22,12.07c3.86,5.97,12.61,5.76,9.46-.29v-4.47s2.63,.42,3.91,.21c2.14-.34,3.49-2.1,4.13-4.51,1.04-3.87,1.44-7,.55-14.62-.97-8.35-10.29-8.44-15.33-5.14s-3.12,12.43-3.12,12.43Z"/><path class="cls-4" d="M362.09,58.13c-.27,0-1.29-1.75-1.95-2.38-.92-.87,.27-8.75,.27-8.75,0,0-.88-1.96,.89-3.99,1.26-1.44,3.36-1.6,6.95-2.19,1.4-.23,2.89-.38,4.26-.77,1.46-.41,2.9-1.38,4.26-2.07,.45-.23,.95-.46,1.44-.33,.47,.13,.79,.57,.92,1.04,.12,.47,.07,.96,.03,1.45,.83-.92,2.46-.78,3.31,.12,.85,.9,.97,2.33,.52,3.48-.45,1.15-1.38,2.06-2.41,2.76-4.51,3.05-9.84,2.2-14.89,1.6-.24-.03-.5-.05-.72,.05-.79,.36-.96,2.82-1.1,3.53-.47,2.39-.86,6.45-1.76,6.46Z"/><path class="cls-4" d="M360.41,47.4l-3.22-1.8c.46-.96,1.55-1.34,2.44-.84,.89,.5,1.24,1.68,.78,2.64Z"/><path class="cls-7" d="M371.93,68.82s-4.78-1-6.44-1.93c-1.12-.62-2.04-1.69-2.31-2.38,0,0,.31,1.48,1.31,2.8,1.22,1.63,7.44,2.82,7.44,2.82v-1.32Z"/></g><g><path class="cls-17" d="M370.2,55.66c0,.57-.43,1.03-.96,1.03-.53,0-.96-.47-.96-1.04s.43-1.03,.96-1.03c.53,0,.96,.47,.96,1.04Z"/><path class="cls-17" d="M368.56,51.52l-2.05,1.18c-.3-.61-.09-1.37,.48-1.7,.57-.33,1.27-.09,1.57,.52Z"/><path class="cls-7" d="M371.49,62.83l2.18,.85c-.22,.65-.88,.99-1.48,.75-.6-.24-.92-.96-.7-1.61Z"/><path class="cls-17" d="M379.76,52.48l-2.15-1.05c.25-.63,.93-.9,1.53-.61,.59,.29,.87,1.03,.63,1.66Z"/><path class="cls-17" d="M378.69,55.66c0,.57-.43,1.03-.96,1.03-.53,0-.96-.47-.96-1.04s.43-1.03,.96-1.03c.53,0,.96,.47,.96,1.04Z"/><polygon class="cls-7" points="372.92 54.92 373.03 60.97 376.46 60.18 372.92 54.92"/></g></g><g><path class="cls-17" d="M368.9,53.2c-1.38,0-2.5,1.14-2.5,2.54s1.12,2.54,2.5,2.54h.46c1.38,0,2.5-1.14,2.5-2.54s-1.12-2.54-2.5-2.54h-.46Zm-3,2.54c0-1.69,1.35-3.06,3-3.06h.46c1.66,0,3,1.37,3,3.06s-1.35,3.06-3,3.06h-.46c-1.66,0-3-1.37-3-3.06Z"/><path class="cls-17" d="M378.06,53.2c-1.38,0-2.5,1.14-2.5,2.54s1.12,2.54,2.5,2.54h.46c1.38,0,2.5-1.14,2.5-2.54s-1.12-2.54-2.5-2.54h-.46Zm-3,2.54c0-1.69,1.35-3.06,3-3.06h.46c1.66,0,3,1.37,3,3.06s-1.35,3.06-3,3.06h-.46c-1.66,0-3-1.37-3-3.06Z"/><path class="cls-17" d="M372.33,55.14c.28-.46,.9-.79,1.59-.82,.59-.03,1.11,.17,1.38,.53l.4-.31c-.38-.51-1.04-.78-1.81-.74-.86,.04-1.63,.46-1.99,1.07l.43,.27Z"/><path class="cls-17" d="M359.81,55.45h6.35v-.48h-7.43c.41,.11,.79,.25,1.08,.48Z"/></g><path class="cls-18" d="M341.82,94.68c1.94-4.89,3.63-8.78,5.83-13.41,2.33-4.92,3.66-7.12,8.16-7.31,0,0,1.03,3.19,.81,9.25-.1,2.86-3.03,7.62-3.03,7.62,0,0-6.69,11.29-8.06,12.75-.78,.83-.94,1.21-2.01,1.69"/><path class="cls-14" d="M356.38,73.73s-5.01-.3-6.84,2.97c-2.33,4.16-6.98,14.83-6.98,14.83,0,0,3.79,4.37,8.27,5.53,0,0,4.38-8.25,5.59-10.99,1.47-4.97,.88-9.58-.04-12.35Z"/><path class="cls-16" d="M356.38,73.73s-5.01-.3-6.84,2.97c-2.33,4.16-6.98,14.83-6.98,14.83,0,0,3.79,4.37,8.27,5.53,0,0,4.38-8.25,5.59-10.99,1.47-4.97,.88-9.58-.04-12.35Z"/><path class="cls-18" d="M343.52,105.27c-1.69,.75-3.67,.19-4.79-1.28-3.18-4.2-9.28-13.78-11.91-18.03-1.23-1.99-2.73-4.49-3.45-6.2-2.48-5.92-1.97-8.65,.11-10.47,3.31-2.89,4.33-1.6,4.48,1.84,.11,2.54,.73,4.25,.73,4.25,.29-1.04,.42-1.52,.73-2.02,.61-1,1.52-.96,1.9-.77,.29,.15-.13,.84-.18,2.17-.06,1.7,.42,2.68-.11,4.45-.2,.66,.13,1.37,.41,2,1.45,3.21,7.47,9.99,11.49,14.13"/><g><line class="cls-11" x1="334.72" y1="75.87" x2="401.09" y2="75.87"/><polyline class="cls-11" points="396.92 72.02 402.24 75.87 396.92 79.71"/><polyline class="cls-11" points="340.04 72.02 334.72 75.87 340.04 79.71"/></g></g></g></svg>