<?xml version="1.0" encoding="UTF-8"?><svg id="a" xmlns="http://www.w3.org/2000/svg" viewBox="0 0 419.3 201.25"><defs><style>.b{fill:#74a6a0;}.c{fill:#3d4957;}.d{fill:#fff;}.e{fill:#dbdbdb;}.f{fill:#664e44;}.g{fill:#8dc375;}.h{fill:#ff5e5e;}.i{fill:#5c5c5c;}.j{fill:#8f7156;}.k{fill:#95d8e9;}.l{fill:#d97777;}.m{fill:#dbc8e0;}.n{fill:#4a4a4a;}.o{fill:#8c8c8c;}.p{fill:#4d4d4d;}.q{fill:#bf5e5e;}.r{fill:#e8d7c3;}.s{opacity:.2;}.t{fill:#577d78;}.u{fill:#ffce8f;}.v{fill:#e57368;}.w{fill:#826456;}.x{fill:#ed9c98;}.y{fill:#c4ac91;}.a`{fill:#94d4cc;}.aa{fill:#bdbdbd;}.ab{fill:#333;}.ac{fill:#7d6087;}.ad{fill:#fae5ff;}.ae{fill:#64b044;}.af{fill:#34495e;}.ag{fill:#a15858;}.ah{fill:#828282;}.ai{opacity:.3;}.aj{fill:#523f36;}.ak{fill:#424242;}.al{fill:#f9b256;}.am{fill:#eddcdc;}.an{fill:#3b3b3b;}.ao{fill:#878787;}.ap{fill:#616161;}.aq{fill:#858585;}.ar{fill:#965353;}.as{fill:#ebebeb;}.at{fill:#526375;}.au{fill:#121212;}.av{fill:#ffb269;}.aw{fill:#ffca99;}.ax{fill:#474747;}.ay{fill:#e8e8e8;}.b`{fill:#383838;}.ba{fill:#ccc;}.bb{fill:#ababab;}.bc{fill:#615963;}.bd{fill:#1f1f1f;}.be{fill:#7a7a7a;}.bf{fill:#454545;}.bg{fill:#cf91ca;}.bh{fill:#7ba39b;}.bi{fill:#919191;}.bj{fill:#ffc773;}.bk{fill:#c4c4c4;}.bl{fill:#5e5e5e;}.bm{fill:#ededed;}</style></defs><g><g class="ai"><polygon points="166.7 174.8 149.01 136.09 149.74 135.75 146.52 128.79 92.7 153.62 95.92 160.59 96.9 160.14 114.62 198.83 166.7 174.8"/><path d="M182.61,168.01l-.03-.02c-.8-.45-1.81-.17-2.26,.63l-.5,.9-1.02-.57-1.09,1.95-4.8,9.51,.23,.13,5.21-9.28,.36,.2,.29-.51-13.22,23.53c-.37,.66-.23,1.47,.28,1.98l-.62,1.1c-.12,.21-.04,.48,.17,.59h0c.21,.12,.48,.05,.59-.16l.62-1.1c.71,.19,1.49-.11,1.87-.78l13.6-24.2h0l.27-.49,.66-1.17c.45-.8,.17-1.81-.63-2.26Z"/></g><g><rect class="ax" x="89.89" y="139.63" width="59.27" height="7.67" transform="translate(-49.12 63.29) rotate(-24.77)"/><rect class="ba" x="95.17" y="150.5" width="14.25" height="1.84" transform="translate(-54.03 56.8) rotate(-24.77)"/><rect class="bl" x="101.37" y="144.99" width="57.36" height="42.56" transform="translate(-57.7 69.79) rotate(-24.77)"/><rect class="o" x="106.33" y="148.84" width="45.11" height="29.81" transform="translate(-56.75 69.07) rotate(-24.77)"/></g><g><path class="as" d="M163.94,196.95h0c-.21-.12-.28-.39-.17-.6l.87-1.55,.77,.43-.87,1.55c-.12,.21-.38,.28-.59,.17Z"/><path class="ak" d="M164.76,195.54l-.03-.02c-.8-.45-1.08-1.46-.63-2.26l14.53-25.86c.45-.8,1.46-1.08,2.26-.63l.03,.02c.8,.45,1.08,1.46,.63,2.26l-14.53,25.86c-.45,.8-1.46,1.08-2.26,.63Z"/><path class="as" d="M168.76,188.45h0c-.21-.12-.19-.56,.05-.97l1.81-3.23c.23-.42,.59-.66,.8-.54h0c.21,.12,.19,.56-.05,.97l-1.81,3.23c-.23,.42-.59,.66-.8,.54Z"/><polygon class="as" points="177.97 168.58 178.13 168.31 177.11 167.73 176.02 169.68 171.22 179.19 171.46 179.32 176.67 170.05 177.04 170.25 177.7 169.07 180.62 170.71 180.89 170.22 177.97 168.58"/></g></g><g><rect class="l" x="229.63" y="157.43" width="31" height="41" rx="3.07" ry="3.07" transform="translate(-42.19 273.84) rotate(-54.43)"/><path class="av" d="M221.23,176.12l14.47-20.23c.98-1.38,2.9-1.7,4.28-.71l28.36,20.28c1.38,.99,1.7,2.9,.71,4.28l-47.1,.66c-1.38-.99-1.7-2.9-.71-4.28Z"/><g><rect class="ag" x="224.89" y="164.26" width="22.15" height="3.33" transform="translate(-36.26 261.36) rotate(-54.43)"/><rect class="ag" x="223.81" y="179.38" width="2.69" height="3.33" transform="translate(-53.08 258.89) rotate(-54.43)"/><rect class="ag" x="225.35" y="175.68" width="4.69" height="3.44" transform="translate(-49.05 259.43) rotate(-54.43)"/></g></g><g><path class="ai" d="M252.09,173.8c3.97,7.07,2.71,13.64-1.87,16.21-4.58,2.57-10.76,.18-14.73-6.89s-3.47-14.88,1.11-17.46c4.58-2.57,11.52,1.07,15.49,8.13Z"/><path class="d" d="M249.95,172.77c3.97,7.07,2.71,13.64-1.87,16.21-4.58,2.57-10.76,.18-14.73-6.89s-3.47-14.88,1.11-17.46c4.58-2.57,11.52,1.07,15.49,8.13Z"/><path class="n" d="M245.43,167.14l-7.01,3.94-.76-1.36c.39-.36,.5-.96,.23-1.45l-.59-1.05c-.27-.49-.84-.7-1.36-.56l-1.22-2.17-.5,.28,1.22,2.17c-.39,.36-.5,.96-.23,1.45l.59,1.05c.27,.49,.84,.7,1.36,.56l.76,1.36-7.01,3.94,.16,.83,14.98-8.42-.62-.57Z"/><path class="q" d="M236.55,166.8h.02c.58,0,1.05,.47,1.05,1.05v1.01c0,.58-.47,1.05-1.05,1.05h-.02c-.58,0-1.05-.47-1.05-1.05v-1.01c0-.58,.47-1.05,1.05-1.05Z" transform="translate(-52.08 136.86) rotate(-29.21)"/><path class="b" d="M247.81,182.12c.4,.71-.48,1.96-1.96,2.79-1.48,.83-3,.93-3.4,.22-.4-.71,.48-1.96,1.96-2.79,1.48-.83,3-.93,3.4-.22Z"/><path class="bb" d="M252.21,182.66l-.12,.65-4.12-7.33c-1.66-2.96-5.2-3.62-8.16-1.96l-.11,.06c-2.96,1.66-4.24,5.03-2.58,7.99l4.15,7.4-.62-.24-3.9-6.95c-1.78-3.16-.65-7.18,2.51-8.95l.11-.06c3.16-1.78,7.18-.65,8.95,2.51l3.86,6.88Z"/></g><g><circle class="s" cx="290.21" cy="161.59" r="17.19" transform="translate(-41.91 156.5) rotate(-28.23)"/><circle class="ay" cx="289.35" cy="159.97" r="15.89" transform="translate(-40.78 178.12) rotate(-32.08)"/><circle class="aa" cx="289.35" cy="159.97" r="11.83" transform="translate(65.17 402.99) rotate(-76.25)"/><path class="d" d="M299.17,162.97c-1.65,5.42-7.39,8.48-12.81,6.82-5.42-1.65-8.48-7.39-6.82-12.81,1.65-5.42,7.39-8.48,12.81-6.82,5.42,1.65,8.48,7.39,6.82,12.81Z"/><path class="f" d="M298.11,162.64c-1.47,4.84-6.59,7.56-11.43,6.09s-7.56-6.59-6.09-11.43c1.47-4.84,6.59-7.56,11.43-6.09,4.84,1.47,7.56,6.59,6.09,11.43Z"/><path class="w" d="M287.27,155.95c-3.73,1.99-4.58,7.83-4.58,7.83-1.99-3.73-.57-8.37,3.16-10.36,3.73-1.99,8.37-.57,10.36,3.16,0,0-5.21-2.62-8.94-.63Z"/><path class="d" d="M274.76,157.45l4.74,1.44,1.07-3.52-4.74-1.44c-.96-.29-1.98,.25-2.28,1.21v.04c-.3,.96,.24,1.98,1.2,2.28Z"/><g><path class="aj" d="M289.61,165.48c-.1,.31-.81,.37-1.6,.13-.79-.24-1.35-.69-1.25-1,.1-.31,.81-.37,1.6-.13,.79,.24,1.35,.69,1.25,1Z"/><path class="ah" d="M286.14,171.81h-.03c-.78-.25-1.14-1.17-.91-1.76l2.65,.89c-.13,.62-.93,1.11-1.71,.87Z"/><path class="e" d="M286.21,171.59h-.03c-.78-.25-1.21-.95-.97-1.54l2.12-5.34,1.76,.54-1.22,5.62c-.13,.62-.88,.97-1.66,.73Z"/></g></g><g><polygon class="ai" points="313.3 131.59 356.75 118.86 375.18 181.79 326.52 196.05 309.64 138.4 313.3 131.59"/><g><polygon class="d" points="312.31 131 355.75 118.27 374.18 181.2 325.53 195.46 308.65 137.81 312.31 131"/><polygon class="bb" points="313.85 136.29 312.31 131 308.65 137.81 313.85 136.29"/></g><g><path class="ae" d="M358.19,165.96c2.57-4.69,2.99-9.97,1.59-14.72l-10.22,2.99c.62,2.11,.41,4.51-.74,6.59l9.37,5.14Z"/><path class="g" d="M350.53,139.76c4.66,2.55,7.85,6.75,9.24,11.47l-10.22,2.99c-.62-2.11-2.04-3.99-4.13-5.14l5.11-9.33Z"/><path class="al" d="M345.42,149.09c-2.08-1.14-4.44-1.33-6.55-.71l-2.98-10.22c4.73-1.37,9.98-.94,14.64,1.61l-5.11,9.33Z"/><path class="k" d="M348.82,160.81c-1.14,2.09-3.04,3.55-5.16,4.17l2.98,10.22c4.76-1.38,8.98-4.58,11.55-9.26l-9.38-5.13Z"/><path class="x" d="M337.2,164.21c-2.08-1.14-3.55-3.04-4.17-5.16l-10.22,2.98c1.38,4.76,4.58,8.98,9.26,11.55l5.13-9.38Z"/><path class="v" d="M324.41,147.39c-2.55,4.66-2.98,9.91-1.61,14.64l10.22-2.98c-.62-2.11-.43-4.47,.71-6.55l-9.33-5.11Z"/><path class="u" d="M333.74,152.5c1.14-2.08,3.02-3.51,5.14-4.13l-2.99-10.22c-4.72,1.39-8.92,4.58-11.47,9.24l9.33,5.11Z"/><path class="bh" d="M332.05,173.58c4.69,2.57,9.97,2.99,14.72,1.59l-2.99-10.22c-2.11,.62-4.51,.41-6.59-.74l-5.14,9.37Z"/></g></g><g><polygon class="ai" points="14.43 127.61 .3 190.52 42.53 200.01 50.52 194.87 63.16 138.56 14.43 127.61"/><g><polygon class="d" points="42.23 199.07 0 189.58 14.13 126.67 62.87 137.62 50.22 193.92 42.23 199.07"/><polygon class="bb" points="43.72 192.46 42.23 199.07 50.22 193.92 43.72 192.46"/><rect class="b" x="29.7" y="125.38" width="5.96" height="29.45" transform="translate(-111.18 141.29) rotate(-77.34)"/><rect class="aq" x="34.36" y="129.18" width="1.71" height="37.91" transform="translate(-117.04 150.03) rotate(-77.34)"/><rect class="aq" x="33.31" y="133.84" width="1.71" height="37.91" transform="translate(-122.4 152.65) rotate(-77.34)"/><rect class="aq" x="28.6" y="154.81" width="1.71" height="37.91" transform="translate(-146.54 164.43) rotate(-77.34)"/><rect class="aq" x="27.56" y="159.47" width="1.71" height="37.91" transform="translate(-151.91 167.04) rotate(-77.34)"/><rect class="aq" x="17.88" y="171.04" width="1.71" height="20.22" transform="translate(-162.12 159.73) rotate(-77.34)"/><rect class="av" x="25.24" y="144.25" width="12.99" height="37.66" transform="translate(-134.34 158.3) rotate(-77.34)"/></g></g><g><polygon class="s" points="363.52 127.37 324.6 113.69 340.46 68.56 384.05 83.88 369.85 124.28 363.52 127.37"/><g><g><polygon class="d" points="363.52 126.48 324.6 112.8 340.46 67.66 384.05 82.98 369.85 123.38 363.52 126.48"/><polygon class="bb" points="365.19 121.74 363.52 126.48 369.85 123.38 365.19 121.74"/></g><g><path class="an" d="M347.69,108.84l-6.96-2.45,8.5-24.18,6.96,2.45c6.6,2.32,10.09,9.58,7.76,16.18l-.08,.23c-2.32,6.6-9.58,10.09-16.18,7.76Zm-5.62-3.09l5.97,2.1c6.05,2.13,12.71-1.07,14.84-7.12l.08-.23c2.13-6.06-1.07-12.71-7.12-14.84l-5.97-2.1-7.8,22.19Z"/><rect class="at" x="342.28" y="101.04" width="41.89" height=".53" transform="translate(147.2 410.38) rotate(-70.63)"/><rect class="h" x="354.74" y="119.52" width="3.09" height="3.09" transform="translate(123.94 417.06) rotate(-70.64)"/><rect class="h" x="368.63" y="80" width="3.09" height="3.09" transform="translate(170.51 403.74) rotate(-70.64)"/></g><path class="h" d="M364.99,101.64c-.32,.92-1.34,1.41-2.26,1.08-.92-.32-1.41-1.34-1.08-2.26,.32-.92,1.34-1.41,2.26-1.08,.92,.32,1.41,1.34,1.08,2.26Z"/><path class="h" d="M351.21,83.49c-.32,.92-1.34,1.41-2.26,1.08-.92-.32-1.41-1.34-1.08-2.26,.32-.92,1.34-1.41,2.26-1.08,.92,.32,1.41,1.34,1.08,2.26Z"/><path class="h" d="M343.01,106.82c-.32,.92-1.34,1.41-2.26,1.08-.92-.32-1.41-1.34-1.08-2.26,.32-.92,1.34-1.41,2.26-1.08s1.41,1.34,1.08,2.26Z"/></g></g><g><path class="ai" d="M93.74,85.86c-9.65-9.65-25.21-9.85-35.11-.62-4.06-2.79-9.4-2.01-13.09,1.69l-.15,.15c-4.15,4.15-4.64,10.38-.49,14.53l.5,.5,.15-.15c-1.54,1.54-1.54,4.04,0,5.58l.06,.06c1.54,1.54,4.04,1.54,5.58,0l15.02-15.03c1.54-1.54,1.54-4.04,0-5.58l-.06-.06c-1.54-1.54-4.04-1.54-5.58,0l-.48-.48c9.18-8.37,23.45-8.15,32.32,.73,8.88,8.88,9.1,23.14,.73,32.32l-.48-.48c1.54-1.54,1.54-4.04,0-5.58l-.06-.06c-1.54-1.54-4.04-1.54-5.58,0l-15.02,15.02c-1.54,1.54-1.54,4.04,0,5.58l.06,.06c1.54,1.54,4.04,1.54,5.58,0l-.15,.15,.5,.5c4.15,4.15,10.38,3.66,14.53-.49l.15-.15c3.69-3.69,4.48-9.03,1.69-13.09,9.23-9.9,9.02-25.46-.62-35.11Z"/><path class="b`" d="M92.62,118.73l-1.32-1.32c9.13-9.13,9.13-23.99,0-33.13-9.13-9.13-24-9.13-33.13,0l-1.32-1.32c9.86-9.86,25.91-9.86,35.77,0,9.86,9.86,9.86,25.91,0,35.77Z"/><rect class="b`" x="40.19" y="90.37" width="29.13" height="7.96" rx="3.94" ry="3.94" transform="translate(-50.68 66.35) rotate(-45)"/><path class="d" d="M43.78,98.7l.5,.5,15.17-15.17-.5-.5c-4.15-4.15-10.38-3.66-14.53,.49l-.15,.15c-4.15,4.15-4.64,10.38-.49,14.53Z"/><rect class="b`" x="66.65" y="116.84" width="29.13" height="7.96" rx="3.94" ry="3.94" transform="translate(-61.65 92.82) rotate(-45)"/><path class="d" d="M76.88,131.8l-.5-.5,15.17-15.17,.5,.5c4.15,4.15,3.66,10.38-.49,14.53l-.15,.15c-4.15,4.15-10.38,4.64-14.53,.49Z"/></g><g><polygon class="ai" points="154.28 102.97 143.38 95.15 133.31 111.82 141.81 114.33 154.28 102.97"/><polygon class="bf" points="141.22 92.85 126.55 107.53 123.43 98.09 131.78 89.73 141.22 92.85"/><rect class="d" x="116.74" y="95.82" width="27.72" height="3.55" transform="translate(-30.76 120.93) rotate(-45)"/><polygon class="bi" points="144.83 100.3 133.31 111.82 122.06 108.65 141.66 89.05 144.83 100.3"/><polygon class="ap" points="143.38 98.93 131.94 110.37 124.21 107.72 140.73 91.2 143.38 98.93"/><polygon class="i" points="143.01 101.18 139.84 104.35 139.61 104.06 142.86 100.81 143.01 101.18"/></g><g><polygon class="ai" points="301.43 92.14 282.57 95.19 300.49 113.09 313.85 102.58 301.43 92.14"/><polygon class="bf" points="300.09 101.52 285.41 86.84 294.86 83.72 303.21 92.08 300.09 101.52"/><rect class="d" x="293.57" y="77.04" width="3.55" height="27.72" transform="translate(22.23 235.47) rotate(-45)"/><polygon class="bi" points="292.64 105.12 281.12 93.6 284.29 82.35 303.89 101.95 292.64 105.12"/><polygon class="ap" points="294.01 103.67 282.57 92.24 285.22 84.51 301.74 101.02 294.01 103.67"/><polygon class="i" points="291.77 103.31 288.6 100.14 288.89 99.91 292.13 103.15 291.77 103.31"/></g><g><path class="ai" d="M198.81,171.65l-1.12-.53h0l-.05-.02-1.17-.56-.97,2.04-.23-.11-.45,.94-3.28,6.88c-.36,.77-.04,1.68,.73,2.05h.03c.77,.38,1.68,.05,2.05-.71l3.28-6.88,.45-.94-.23-.11,.97-2.04Z"/><path class="ab" d="M197.05,173.81l-3.28,6.88c-.36,.77-1.28,1.09-2.05,.73h-.03c-.77-.38-1.09-1.29-.73-2.06l3.28-6.88,2.8,1.33Z"/><rect class="ac" x="195.35" y="171.12" width="1.05" height="3.1" transform="translate(-44.27 275.23) rotate(-64.52)"/><rect class="m" x="195.46" y="169.89" width="2.26" height="2.6" transform="translate(-42.51 275.03) rotate(-64.53)"/><rect class="bc" x="195.57" y="170.72" width=".83" height=".46" transform="translate(-42.64 274.35) rotate(-64.52)"/><rect class="bc" x="196.77" y="171.29" width=".83" height=".46" transform="translate(-42.47 275.76) rotate(-64.53)"/><rect class="bc" x="195.46" y="171.13" width="2.26" height=".11" transform="translate(-42.51 275.02) rotate(-64.52)"/><rect class="ad" x="191.01" y="177.7" width="3.3" height=".46" transform="translate(-50.84 275.33) rotate(-64.53)"/></g><g><polygon class="ai" points="204.02 183.93 203.37 182.69 202.68 183.05 201.65 181.04 200.55 181.61 200.55 181.61 200.49 181.64 199.34 182.24 200.38 184.24 199.69 184.6 200.33 185.84 205.02 194.88 208.7 192.98 204.02 183.93"/><rect class="ad" x="201.19" y="183.83" width="4.15" height="10.19" transform="translate(-64.11 114.65) rotate(-27.38)"/><rect class="av" x="198.52" y="183.08" width="4.15" height="1.4" transform="translate(-62.05 112.85) rotate(-27.38)"/><rect class="m" x="198.46" y="181.03" width="2.6" height="2.26" transform="translate(-61.39 112.28) rotate(-27.38)"/><rect class="bc" x="198.98" y="182.07" width=".46" height=".83" transform="translate(-61.6 112.04) rotate(-27.38)"/><rect class="bc" x="200.15" y="181.46" width=".46" height=".83" transform="translate(-61.19 112.51) rotate(-27.38)"/><rect class="bc" x="199.7" y="181.03" width=".11" height="2.26" transform="translate(-61.39 112.27) rotate(-27.38)"/><polygon class="bb" points="202.41 184.63 203.68 187.08 201.71 188.07 200.44 185.62 202.41 184.63"/><polygon class="ar" points="202.73 184.6 203.71 186.49 201.1 187.82 200.12 185.93 202.73 184.6"/></g><g><polygon class="ai" points="397.88 186.33 373.47 161.93 373.47 161.93 388.39 147 412.8 171.41 397.88 186.33"/><polygon class="d" points="395.84 186.33 371.44 161.93 371.44 161.93 386.36 147 410.76 171.41 395.84 186.33"/><rect class="b" x="380.31" y="151.72" width="18.6" height="27.03" transform="translate(-2.73 323.89) rotate(-45)"/><rect class="ao" x="398.69" y="175.63" width="4.72" height="1.97" rx=".97" ry=".97" transform="translate(-7.42 335.31) rotate(-45)"/><rect class="ao" x="403.66" y="171.19" width="3.42" height="1.43" rx=".71" ry=".71" transform="translate(-2.83 336.98) rotate(-45)"/><path class="ao" d="M397.44,180.84l-1.42,1.42c-.28,.28-.72,.28-1,0h-.01c-.28-.29-.28-.73,0-1.01l1.42-1.42c.28-.28,.72-.28,1,0h.01c.28,.29,.28,.73,0,1.01Z"/><rect class="bj" x="378.07" y="159.04" width="6.24" height="8.48" transform="translate(-3.81 317.37) rotate(-45)"/><rect class="t" x="380.82" y="153.93" width="8.15" height="1.67" transform="translate(3.3 317.49) rotate(-45)"/><rect class="t" x="382.7" y="155.8" width="8.15" height="1.67" transform="translate(2.52 319.37) rotate(-45)"/><rect class="t" x="384.57" y="157.68" width="8.15" height="1.67" transform="translate(1.74 321.24) rotate(-45)"/><rect class="t" x="382.14" y="164.53" width="15.84" height="1.67" transform="translate(-2.68 324.25) rotate(-45)"/><rect class="t" x="384.39" y="166.78" width="15.84" height="1.67" transform="translate(-3.62 326.5) rotate(-45)"/><rect class="t" x="386.64" y="169.03" width="15.84" height="1.67" transform="translate(-4.55 328.75) rotate(-45)"/><rect class="t" x="389.4" y="172.5" width="12.41" height="1.67" transform="translate(-6.69 330.5) rotate(-45)"/></g><g><path class="ai" d="M311.34,122.04l-2.14-.48,.09-.57c.21-1.32-.69-2.58-2.01-2.79l-10.48-1.7c-1.29-.21-2.5,.64-2.77,2.02l-4.31-.7c.21-1.32-.69-2.58-2.01-2.79l-10.48-1.7c-1.32-.21-2.57,.69-2.79,2.01l-.08,.49-2.24-.16-.23,1.58,2.19,.35-.54,3.34c-.21,1.32,.69,2.58,2.01,2.79l9.46,1.53c1.32,.21,2.58-.69,2.76-1.9l.39-1.11c1.04,.05,2.11,.09,3.18,.14,.93,.28,1.85,.55,2.76,.82l.02,1.05c-.21,1.32,.69,2.58,2.01,2.79l9.46,1.53c1.32,.21,2.57-.69,2.79-2.01l.53-3.26,2.14,.27,.28-1.57Zm-19.75-1.04c-.9-.27-1.79-.55-2.69-.82l.24-.69,4.9,.79,.02,.81c-.82-.03-1.65-.06-2.47-.09Z"/><path class="au" d="M307.51,120.1s-32.45-1.38-32.2-1c.25,.38,.02,1.21-.18,1.11-.2-.1,32.17,1.41,32.17,1.41l.21-1.52Z"/><path class="bd" d="M273.34,114.27s32.59,9.77,32.24,10.05c-.36,.28-.4,1.14-.18,1.11,.22-.03-32.34-9.66-32.34-9.66l.28-1.51Z"/><rect class="ab" x="289.61" y="114.61" width="1.74" height="5.67" transform="translate(128.11 385.42) rotate(-80.8)"/><g><path class="b" d="M304.45,126.37l-9.46-1.53c-.96-.16-1.62-1.06-1.46-2.03l-.11-5.77c.16-.96,1.06-1.62,2.03-1.46l10.48,1.7c.96,.16,1.62,1.07,1.46,2.03l-.91,5.61c-.16,.96-1.06,1.62-2.03,1.46Z"/><path class="a`" d="M304.45,126.37l-9-10.8,10.48,1.7c.96,.16,1.62,1.07,1.46,2.03l-.91,5.61c-.16,.96-1.06,1.62-2.03,1.46Z"/><path class="ab" d="M304.34,127.03l-9.46-1.53c-1.32-.21-2.23-1.47-2.01-2.79l-.12-5.65c.22-1.44,1.47-2.35,2.8-2.13l10.48,1.7c1.32,.21,2.23,1.47,2.01,2.79l-.91,5.61c-.21,1.32-1.47,2.23-2.79,2.01Zm-9-10.8c-.6-.1-1.17,.31-1.27,.92l.12,5.65c-.11,.72,.3,1.29,.91,1.39l9.46,1.53c.6,.1,1.17-.31,1.27-.91l.91-5.61c.1-.6-.31-1.17-.91-1.27l-10.48-1.7Z"/></g><g><path class="b" d="M274.41,121.51l9.46,1.53c.96,.16,1.87-.5,2.03-1.46l1.93-5.44c.16-.96-.5-1.87-1.46-2.03l-10.48-1.7c-.96-.16-1.87,.5-2.03,1.46l-.91,5.61c-.16,.96,.5,1.87,1.46,2.03Z"/><path class="a`" d="M283.86,123.04c.96,.16,1.87-.5,2.03-1.46l1.93-5.44c.16-.96-.5-1.87-1.46-2.03l-10.48-1.7,7.98,10.63Z"/><path class="ab" d="M283.76,123.7l-9.46-1.53c-1.32-.21-2.23-1.47-2.01-2.79l.91-5.61c.21-1.32,1.47-2.23,2.79-2.01l10.48,1.7c1.32,.21,2.23,1.47,2.01,2.79l-1.96,5.56c-.18,1.21-1.44,2.11-2.76,1.9Zm-7.98-10.63c-.6-.1-1.17,.31-1.27,.92l-.91,5.61c-.1,.6,.31,1.17,.91,1.27l9.46,1.53c.6,.1,1.17-.31,1.27-.91l1.96-5.56c.07-.49-.34-1.06-.94-1.15l-10.48-1.7Z"/></g><polygon class="bd" points="309.8 122.03 307.66 121.79 307.94 120.01 310.08 120.46 309.8 122.03"/><polygon class="bd" points="270.64 115.68 272.86 116.04 273.15 114.26 270.87 114.1 270.64 115.68"/></g><g><path class="ai" d="M410.71,94.94l-38.62,4.76-3.6,.44-1.63,.2c-.52,.06-.89,.54-.82,1.06v.02c.07,.52,.54,.89,1.06,.82l1.63-.2,3.6-.44,38.62-4.76,7.04-1.83-7.27-.07Z"/><rect class="av" x="370.17" y="96.37" width="38.92" height="1.91" transform="translate(-8.98 48.4) rotate(-7.03)"/><polygon class="y" points="409.05 95.89 408.82 93.99 416.09 94.06 409.05 95.89"/><rect class="r" x="366.7" y="98.97" width="3.63" height="1.91" transform="translate(-9.46 45.83) rotate(-7.03)"/><path class="bg" d="M365.2,101.3l1.63-.2-.23-1.9-1.63,.2c-.52,.06-.89,.54-.82,1.06v.02c.07,.52,.54,.89,1.06,.82Z"/></g><g><path class="ai" d="M64.2,175.3l-4.76-38.62-.44-3.6-.2-1.63c-.06-.52-.54-.89-1.06-.82h-.02c-.52,.07-.89,.54-.82,1.06l.2,1.63,.44,3.6,4.76,38.62,1.83,7.04,.07-7.27Z"/><rect class="c" x="58.86" y="133.95" width="1.91" height="38.92" transform="translate(-18.32 8.47) rotate(-7.03)"/><polygon class="y" points="61.24 172.84 63.14 172.6 63.07 179.88 61.24 172.84"/><rect class="r" x="56.25" y="130.48" width="1.91" height="3.63" transform="translate(-15.75 7.99) rotate(-7.03)"/><path class="bg" d="M55.84,128.99l.2,1.63,1.9-.23-.2-1.63c-.06-.52-.54-.89-1.06-.82h-.02c-.52,.07-.89,.54-.82,1.06Z"/></g><g><path class="ai" d="M419.3,163.28l-5.29-25.51,.16-.03-4.03-19.41c-.24-1.17-1.25-1.96-2.25-1.75h-.04c-1,.22-1.61,1.33-1.37,2.51l.58,2.81-.67,.14-.79,1.2,2.89,13.94,1.15,.53-3.01-14.5,.67-.14,3.2,15.44,.21-.04,5.29,25.51,3.27,7.64v-8.32Z"/><rect class="af" x="411.22" y="134.71" width="3.35" height="26.05" transform="translate(-21.4 86.95) rotate(-11.72)"/><path class="af" d="M404.37,115.95l4.03,19.41,3.66-.76-4.03-19.41c-.24-1.17-1.25-1.96-2.25-1.75h-.04c-1,.22-1.61,1.33-1.37,2.51Z"/><polygon class="bk" points="413.9 160.83 417.19 160.15 417.17 168.47 413.9 160.83"/><polygon class="bk" points="404.53 120.07 405.2 119.93 404.95 118.76 404.28 118.9 403.5 120.1 406.39 134.03 407.53 134.56 404.53 120.07"/></g><g><path class="ai" d="M365.55,62.48l-.02-.04c-.58-1.06-1.93-1.47-3.28-.73l-33.21,18.22h0l-.29,.16,.02,.03-1.49,1.05,.2,.37s-2.52,1.9-4.7,.99l-2.97,1.9c-1.1,3.46-4.15,5.13-4.15,5.13l.07,.12,.07,.12h0l.06,.11s3.06-1.67,6.55-.71l3.21-1.47c.42-2.33,3.38-3.42,3.38-3.42l.17,.32,1.71-.65h.02l33.51-18.39c1.35-.74,1.75-2.06,1.17-3.12Z"/><path class="bk" d="M327.85,83.45l-.75-1.39-.75-1.39s-2.52,1.9-4.7,.99l-2.97,1.9c-1.1,3.46-4.15,5.13-4.15,5.13l.19,.35s3.06-1.67,6.55-.71l3.21-1.47c.42-2.33,3.38-3.42,3.38-3.42Z"/><polygon class="p" points="320.89 85.54 320.82 85.41 314.58 88.82 314.64 88.94 320.89 85.54"/><path class="p" d="M321.1,85.93c-.32,.17-.69,.11-.83-.14s.01-.6,.33-.77c.32-.17,.69-.11,.83,.14,.14,.25-.01,.6-.33,.77Z"/><polygon class="av" points="329.73 83.12 327.61 79.22 326.14 80.31 328.02 83.77 329.73 83.12"/><path class="b" d="M364.42,61.61l-.02-.04c-.58-1.06-1.93-1.47-3.28-.73l-33.51,18.38,2.13,3.89,33.51-18.38c1.35-.74,1.75-2.06,1.17-3.12Z"/></g><g><rect class="ai" x="69.97" y="184" width="12.34" height="8.17" rx="1.36" ry="1.36" transform="translate(-39.43 21.3) rotate(-12.68)"/><rect class="aw" x="68.88" y="183.41" width="12.34" height="8.17" rx="1.36" ry="1.36" transform="translate(-39.33 21.05) rotate(-12.68)"/><rect class="j" x="71.31" y="189.4" width="5.75" height=".88" transform="translate(-39.86 20.91) rotate(-12.68)"/></g><g><polygon class="ai" points="258.16 155.87 165.6 155.89 165.6 155.89 165.6 104.87 258.16 104.94 258.16 155.87"/><polygon class="d" points="268.25 80.14 152.65 80.14 152.65 80.07 153.58 75.63 267.02 75.63 268.25 80.07 268.25 80.14"/><polygon class="be" points="256.73 100.94 164.17 100.94 152.65 80.14 268.25 80.14 256.73 100.94"/><polygon class="c" points="254.32 98.31 166.39 98.31 157.19 81.9 263.35 81.9 254.32 98.31"/><polygon class="am" points="253.69 92.14 171.52 92.14 167.36 83.93 258.21 83.93 253.69 92.14"/><polygon class="l" points="246.54 97.07 235.79 97.07 238.61 90.11 250.45 90.11 246.54 97.07"/><polygon class="bm" points="242.58 96 237.2 96 238.61 92.52 244.53 92.52 242.58 96"/><polygon class="bj" points="256.49 87.06 169.06 87.2 167.36 83.93 258.21 83.93 256.49 87.06"/><g><polygon class="d" points="256.73 151.94 164.17 151.95 164.17 151.95 164.17 100.94 256.73 100.92 256.73 151.94"/><rect class="b" x="167.36" y="105.29" width="3.39" height="2.73"/><rect class="b" x="172.95" y="105.29" width="16.69" height="2.73"/><rect class="b" x="192.48" y="105.29" width="16.69" height="2.73"/><rect class="b" x="211.88" y="105.29" width="16.69" height="2.73"/><rect class="b" x="229.97" y="105.28" width="11.64" height="2.73"/><rect class="b" x="167.36" y="109.7" width="3.39" height="3.23"/><rect class="b" x="171.52" y="109.7" width="3.39" height="3.23"/><rect class="b" x="175.68" y="109.7" width="3.39" height="3.23"/><rect class="b" x="179.99" y="109.7" width="3.39" height="3.23"/><rect class="b" x="184.26" y="109.7" width="3.39" height="3.23"/><rect class="b" x="188.47" y="109.7" width="3.39" height="3.23"/><rect class="b" x="208.76" y="109.7" width="3.39" height="3.23"/><rect class="b" x="220.74" y="109.7" width="7.83" height="3.23"/><rect class="b" x="167.36" y="113.43" width="7.55" height="3.23"/><rect class="b" x="175.68" y="113.43" width="3.39" height="3.23"/><rect class="b" x="179.99" y="113.43" width="3.39" height="3.23"/><rect class="b" x="184.26" y="113.43" width="3.39" height="3.23"/><rect class="b" x="188.47" y="113.43" width="3.39" height="3.23"/><rect class="b" x="208.76" y="113.43" width="3.39" height="3.23"/><rect class="b" x="167.36" y="117.15" width="7.55" height="3.23"/><rect class="b" x="175.68" y="117.15" width="3.39" height="3.23"/><rect class="b" x="179.99" y="117.15" width="3.39" height="3.23"/><rect class="b" x="184.26" y="117.15" width="3.39" height="3.23"/><rect class="b" x="188.47" y="117.15" width="3.39" height="3.23"/><rect class="b" x="208.76" y="117.15" width="3.39" height="3.23"/><polygon class="b" points="228.57 116.65 228.57 113.42 220.74 113.43 220.74 116.65 224.95 116.65 224.95 120.38 228.57 120.38 228.57 116.65 228.57 116.65"/><rect class="b" x="167.36" y="120.88" width="6.51" height="3.23"/><rect class="b" x="175.68" y="120.88" width="3.39" height="3.23"/><rect class="b" x="179.99" y="120.88" width="3.39" height="3.23"/><rect class="b" x="184.26" y="120.88" width="3.39" height="3.23"/><rect class="b" x="188.47" y="120.88" width="3.39" height="3.23"/><rect class="b" x="192.6" y="109.7" width="3.39" height="3.23"/><rect class="b" x="192.6" y="113.43" width="3.39" height="3.23"/><rect class="b" x="192.6" y="117.15" width="3.39" height="3.23"/><rect class="b" x="192.6" y="120.88" width="3.39" height="3.23"/><rect class="b" x="196.64" y="109.7" width="3.39" height="3.23"/><rect class="b" x="196.64" y="113.43" width="3.39" height="3.23"/><rect class="b" x="196.64" y="117.15" width="3.39" height="3.23"/><rect class="b" x="196.64" y="120.88" width="3.39" height="3.23"/><rect class="b" x="200.8" y="109.7" width="3.39" height="3.23"/><rect class="b" x="200.8" y="113.43" width="3.39" height="3.23"/><rect class="b" x="200.8" y="117.15" width="3.39" height="3.23"/><rect class="b" x="200.8" y="120.88" width="3.39" height="3.23"/><rect class="b" x="204.8" y="109.7" width="3.39" height="3.23"/><rect class="b" x="204.8" y="113.43" width="3.39" height="3.23"/><rect class="b" x="204.8" y="117.15" width="3.39" height="3.23"/><rect class="b" x="204.8" y="120.88" width="3.39" height="3.23"/><rect class="b" x="208.76" y="120.88" width="3.39" height="3.23"/><rect class="b" x="220.74" y="120.88" width="7.83" height="3.23"/><rect class="b" x="167.36" y="124.6" width="3.39" height="3.23"/><rect class="b" x="171.52" y="124.6" width="3.39" height="3.23"/><rect class="b" x="175.68" y="124.6" width="20.3" height="3.23"/><rect class="b" x="200.8" y="124.6" width="3.39" height="3.23"/><rect class="b" x="196.64" y="124.6" width="3.39" height="3.23"/><rect class="l" x="200.03" y="129.59" width="19.46" height="16.43"/><rect class="b" x="204.8" y="124.6" width="3.39" height="3.23"/><rect class="b" x="208.76" y="124.6" width="3.39" height="3.23"/><rect class="b" x="212.71" y="109.7" width="3.39" height="3.23"/><rect class="b" x="212.71" y="113.43" width="3.39" height="3.23"/><rect class="b" x="212.71" y="117.15" width="3.39" height="3.23"/><rect class="b" x="212.71" y="120.88" width="3.39" height="3.23"/><rect class="b" x="212.71" y="124.6" width="3.39" height="3.23"/><rect class="b" x="216.67" y="109.7" width="3.39" height="3.23"/><rect class="b" x="229.97" y="109.7" width="3.39" height="3.23"/><rect class="b" x="234.1" y="109.7" width="3.39" height="3.23"/><rect class="b" x="238.22" y="109.7" width="3.39" height="3.23"/><rect class="b" x="229.97" y="113.43" width="3.39" height="3.23"/><rect class="b" x="234.1" y="113.43" width="3.39" height="3.23"/><rect class="b" x="238.22" y="113.43" width="3.39" height="3.23"/><rect class="b" x="242.84" y="109.7" width="3.39" height="3.23"/><rect class="b" x="246.96" y="109.7" width="3.39" height="3.23"/><rect class="b" x="251.08" y="109.7" width="3.39" height="3.23"/><rect class="b" x="242.84" y="113.43" width="3.39" height="3.23"/><rect class="b" x="246.96" y="113.43" width="3.39" height="3.23"/><rect class="b" x="242.84" y="117.21" width="3.39" height="3.23"/><rect class="b" x="246.96" y="117.21" width="3.39" height="3.23"/><rect class="b" x="251.08" y="113.43" width="3.39" height="7.01"/><rect class="b" x="242.84" y="120.94" width="3.39" height="3.23"/><rect class="b" x="246.96" y="120.94" width="3.39" height="3.23"/><rect class="b" x="234.1" y="120.88" width="3.39" height="3.23"/><rect class="b" x="229.97" y="124.6" width="3.39" height="3.23"/><rect class="b" x="234.1" y="124.6" width="3.39" height="3.23"/><rect class="b" x="238.22" y="124.6" width="3.39" height="3.23"/><rect class="b" x="242.84" y="124.6" width="7.51" height="3.23"/><rect class="b" x="251.08" y="120.94" width="3.39" height="6.89"/><rect class="b" x="216.67" y="113.43" width="3.39" height="3.23"/><rect class="b" x="216.67" y="117.15" width="3.39" height="3.23"/><rect class="b" x="220.74" y="117.15" width="3.39" height="3.23"/><rect class="b" x="216.67" y="120.88" width="3.39" height="3.23"/><rect class="b" x="216.67" y="124.6" width="3.39" height="3.23"/><rect class="b" x="220.74" y="124.6" width="3.39" height="3.23"/><rect class="b" x="224.65" y="124.6" width="3.92" height="3.23"/><g><rect class="b" x="245.4" y="105.29" width="6.25" height=".47"/><rect class="b" x="245.4" y="106.41" width="6.25" height=".47"/><rect class="b" x="245.4" y="107.54" width="6.25" height=".47"/><rect class="b" x="247.96" y="105.28" width="1.13" height=".48"/></g><rect class="bj" x="241.17" y="141.99" width="5.79" height="4.04"/><rect class="bj" x="167.36" y="141.99" width="15.22" height="4.04"/><rect class="bj" x="248.19" y="141.99" width="5.79" height="4.04"/></g><polygon class="bm" points="205.37 96 176.88 96 173.9 90.68 204.22 90.68 205.37 96"/><polygon class="l" points="204.74 93.06 175.2 93 173.9 90.68 204.22 90.68 204.74 93.06"/></g><path class="av" d="M304.65,63.74m1,1"/></svg>