<svg id="Layer_1" data-name="Layer 1" xmlns="http://www.w3.org/2000/svg" viewBox="0 0 1400 1000"><defs><style>.cls-1{fill:#9fdfdb;}.cls-2{fill:#6f6550;}.cls-3{fill:#52b4ac;}.cls-4{fill:#fc4e2e;}.cls-5{fill:#f8c0a1;}.cls-6{fill:#f4c5ae;}.cls-7{fill:#cf351b;}.cls-8{fill:#5f5541;}.cls-9{fill:#5c2002;}.cls-10{fill:#d1c2ac;}.cls-11{fill:#fdeed5;}.cls-12{fill:#a3a6a8;}.cls-13{fill:#ffeac9;}.cls-14{fill:#3a3b34;}</style></defs><rect class="cls-1" width="1400" height="1000"/><path class="cls-2" d="M251.84,810.22S382.21,966.77,151.8,1000h909.82c-152.26-24.82-530.38-93.69-646.5-182.16C268.52,706.14,269.53,684.7,269.53,684.7l80.7-7.05-199.47-52L14.06,706l120.27-8.7Z"/><path class="cls-3" d="M1055.64,949.28C967,973.68,778.72,990.38,638.7,1000h600.85c-161.23-31.44-66-60.16-66-60.16L1315.33,888l44.36,7.88-41.81-63-125.3,31.37,33,6.27S1206.36,907.81,1055.64,949.28Z"/><path class="cls-4" d="M931.35,798C723.7,909.22,277.83,976.1,93,1000H896.59c-107-45.12,173.62-227.16,173.62-227.16L1316,610.65l68,7.58L1320.88,465.1l-189.1,119.42,69.18,9.42S1197,655.66,931.35,798Z"/><path class="cls-5" d="M477.11,355.66c3.57,12.13,7.28,22.28,7.28,22.28L513,474.39c0,.16.07.31.11.47a17.4,17.4,0,0,0,33.73-8.53h0l-21.93-97.6-4.25-21.08s-.22-1.06-.67-2.87Z"/><path class="cls-6" d="M612.65,529.06s14.7,4.75,22.47,13.94c0,0,5,3.35,8.71,4.12,0,0-4.85,6.09-10.7,2,0,0-5-6.56-12.53-3.58,0,0-8.54.07-13.33-4.32s-4.89-8.45-4-10.94C603.27,530.32,608.23,527.49,612.65,529.06Z"/><path class="cls-5" d="M629.53,556.63c-1.18-2.1-3.45-3.07-5.09-2.15h0c-1.65.91-2,3.36-.83,5.47l9.25,16.54c1.18,2.1,3.46,3.07,5.1,2.15h0c1.63-.92,2-3.36.82-5.47Z"/><path class="cls-5" d="M620.73,558c-1.32-2.35-3.7-3.51-5.34-2.58h0c-1.63.91-1.9,3.55-.59,5.89l10.3,18.42c1.32,2.34,3.71,3.5,5.35,2.59h0c1.63-.92,1.89-3.56.58-5.91Z"/><path class="cls-5" d="M613.24,559.8a3.6,3.6,0,0,0-4.8-1.64h0a3.61,3.61,0,0,0-1.12,5l8,14.28a3.59,3.59,0,0,0,4.8,1.64h0a3.58,3.58,0,0,0,1.11-4.95Z"/><path class="cls-5" d="M604.15,558a3.26,3.26,0,0,0-4.48-1.06h0a3.27,3.27,0,0,0-1.45,4.37L604.81,573a3.25,3.25,0,0,0,4.48,1.06h0a3.25,3.25,0,0,0,1.44-4.36Z"/><path class="cls-5" d="M612.65,529.06s-8-2.91-13.32-5.11c-2.08-.87-12.15-6.68-15.87-9l0,0c-4.82-6.91-22.71-30.57-34.74-45.36a16.91,16.91,0,0,0-2.12-3.47,16.66,16.66,0,1,0-21.46,24.74c12.56,11.83,38,31,47.49,38.05l0,0c.45.32,12.8,12.38,12.8,12.38l3,4.39c3,4.4,7.62,14.26,11.35,16.79s31.61-1.35,31.61-1.35C628.83,550,612.65,529.06,612.65,529.06Z"/><path class="cls-7" d="M538.71,385.93c-.14-.68-.25-1.36-.43-2L525,331.65c-4.48-17.68-20.24-28.93-35.17-25.14s-23.41,21.2-18.91,38.88l13.28,52.25c.17.68.39,1.33.59,2Z"/><path class="cls-5" d="M413.25,981.33l.18.45,6.88,3.84q2.55-3,5.3-5.83c.53-2.51,2.91-7.56,1.4-7.68-3.19-10.36-6.51-23.62-6.77-34.53-.61-22.4,31.27-95.56,36.63-108.67,2.72-6.65,16.38-49.06,27.27-80.73A21.21,21.21,0,1,0,444.41,734a21.87,21.87,0,0,0-.54,4l-.7-.14c-1.33,9.26-4.29,17.51-6.55,20.26-9.28,11.29-22.35,35.27-27,64.08l-6.12,82.41L398,911.8a.66.66,0,0,0-.24.11c-1.58,1.05-3,.76-3.48,4.71L388.57,924l6.49,12.89C394.94,954.57,389.69,978,413.25,981.33Z"/><path class="cls-7" d="M442.69,987.48C438,981.43,427.36,973,427.36,973s-16,11.61-24.11-4.3c-7.95-15.49.41-28-5.79-44.81-3.38-9.15.24-11.69.61-12.74-5.19.54-15.43,3.67-15,20.11l.32.91-7.5,42.88,3.48.82L388.16,944c1.58,1.68,4.42,7,3.41,23.46-.91,14.75,10.78,18.32,10.78,18.32s28.13,8,38.4,7.15C440.75,992.93,447.46,993.53,442.69,987.48Z"/><path class="cls-5" d="M556.88,977.17c-6-9-17.85-26.51-21.26-36.84-7.11-21.25,2.08-100.52,3.38-114.61.68-7.16,1.37-51.71,2.57-85.18a21.45,21.45,0,0,0,.22-4.62,21.21,21.21,0,1,0-42.34,2.65,20.69,20.69,0,0,0,.64,4l-.72.07c1.43,9.26,1,18-.36,21.3-5.58,13.5-11.1,40.24-7.18,69.15L510,913.68l-3.21,8.49a.52.52,0,0,0-.19.17c-1.21,1.47-2.69,1.62-2,5.52l-3.28,8.67,10,10.42c5.05,17,6.86,41,30.37,37.28l.3.38,5.46,1.17C548.65,980.82,555,981.87,556.88,977.17Z"/><path class="cls-7" d="M571.64,981.53c-6.3-4.4-18.89-9.38-18.89-9.38s-11.89,15.75-24.32,2.91c-12.11-12.5-7.78-26.95-18.59-41.18-5.9-7.76-3.18-11.25-3.13-12.36-4.81,2-13.69,8-8.51,23.61l.56.78,5.33,43.2,3.56-.22-.85-33.06c2,1.15,6.28,5.43,10.1,21.45,3.43,14.37,15.65,14.37,15.65,14.37s29.26-.52,38.83-4.34C571.38,987.31,578,985.94,571.64,981.53Z"/><path class="cls-8" d="M439.57,439.44c-3.76-6-5-10.73-4.76-18.35.28-7.81,8.51-17.45,8.29-24-.65-20-24.58-12.64-5-37.21,2.34-2.94,7.4-4.39,9.37-7.62s-.6-7.78.72-11.14c3.62-9.18,8.93-15.15,14.31-23.29,11.81-17.84,7.59-28.09-5.38-37.94-4.09-3.1-15.35-10.87-21.37-9.82-15.24,2.69-8.49,14.32-7.79,23.34.71,9.2,5.59,10-9.21,17-9.4,4.41,1.28,12.31-6.13,20.42-10.43,11.4-11.42,10.7-6.37,20,3.7,6.83,2.59,13.13,3.31,21,1.07,11.51,3.82,10.78,10.35,18.14,9.41,10.64,3.49,24.56,5.66,37.06C427,435.4,442,451,436,459.55c.58-7.14-2.39-16.2-.33-24.91"/><path class="cls-5" d="M538.08,231.56A44.08,44.08,0,0,1,528,205.25c8.67-7.57,10.13-20.71,9.25-31.4-1-11.62-11-19.74-21.72-24.2-4.2-1.76-8-3.31-14.19-5.91a31.16,31.16,0,0,0-5.37-2.28c-22.78-7.08-49,12.23-58.63,43.12-9.12,29.36.11,58.59,20.61,67.49.64,18.45,1.83,33.71-6.89,48.55h-.68v1.08l55.05,7c-2.18-3.59-7.3-14.16-9-18A47.71,47.71,0,0,1,493,278.63c-.58-4-.56-8.11.48-14.52,5.24,1.84,18.1,2.39,24-.42,7-3.36,7.95-25.52,11-25.62C539,237.73,538.08,231.56,538.08,231.56Z"/><path class="cls-8" d="M523.8,152.54s-10.62-15-29.19-20.51l.18-.09c-13-7-32.92-4.23-50.94,8.5-18.87,13.34-29.92,33.6-29,50.29l0,0c0,21.49,12.46,39,12.46,39a66.9,66.9,0,0,0,13.23,13.39c-.15,5.44,1.92,6.75-8.39,9.24-7.05,1.7-.62,8.88-6.75,13.48-8.63,6.48-9.24,5.83-6.89,13.15,1.73,5.38.18,9.64-.28,15.32-.68,8.28,1.32,8.18,4.94,14.35,5.22,8.92-.59,17.85-.62,27,0,3.65,3,9.8,4.28,15.27a26.69,26.69,0,0,1,1.8-8.37l2.09,4a21.13,21.13,0,0,1-1-13.66c1.15-5.48,8-11,8.71-15.68,2-14.2-15.51-12.61,1.08-27,2-1.73,5.69-2,7.44-4s.55-5.59,1.87-7.76c3.65-5.93,8.05-9.33,12.8-14.27,5.2-5.42,7.38-10.1,7.28-14.54,3.61-5,3.66-20.28,3.9-23.63s-.81-10.84,1.42-13.53c3.48-4.22,10.77,3,10.32,3.55,8.09-10.76,10-13.4,25.12-23.35,8.77-5.77,19.3-9.12,30.11-10.33a19.14,19.14,0,0,0-.06-2.82S545.69,159.21,523.8,152.54Z"/><path class="cls-9" d="M426.87,350.87c-.29,3.33-.34,6.57-1,9.25C428,358,427.78,354.62,426.87,350.87Z"/><path class="cls-4" d="M542.8,349.39c-7.89-13.88-23.1-22.91-32.23-36.25q-1.38-2.34-2.78-4.47a45,45,0,0,1-2.45-5.21,114.06,114.06,0,0,1-43.94-23.1l-7.64.2c-5.83,14.3-10.84,22-13.62,31.74a101.81,101.81,0,0,0-3.84,29c-1,7.38.07,15.25,1.25,23.19.09,1.26.18,2.52.29,3.8a125.63,125.63,0,0,0,1.65,13s0,.05,0,.08c1.15,26.68,11.54,52,10.34,78.92-5,34.44-21,67-23.79,101.72-2.67,33.37,5.39,66,11.6,98.43,6.5,33.92-1.75,74.88-1.75,74.88H543V580.88c-2.23-21.79-4.35-40.44-5.66-51.64q-.69-26.78-1.39-53.55c-.43-16-3.53-31.93-2.7-48a51.7,51.7,0,0,1,3-15c5.76-16.19,14.34-34.38,10.79-51.95A38.41,38.41,0,0,0,542.8,349.39Z"/><path class="cls-10" d="M490.26,597.63H426.68a3.88,3.88,0,0,0-3.88,3.87V653a3.88,3.88,0,0,0,3.88,3.88h3.78v-45.7c0-2.14,1.36-3.87,3.05-3.87h49.91c1.68,0,3,1.73,3,3.87v45.7h3.8a3.88,3.88,0,0,0,3.87-3.88V601.5A3.88,3.88,0,0,0,490.26,597.63Z"/><path class="cls-11" d="M540.12,714.2a3.87,3.87,0,0,1-3.87,3.87H380.68a3.87,3.87,0,0,1-3.87-3.87V624.94a3.87,3.87,0,0,1,3.87-3.87H536.25a3.87,3.87,0,0,1,3.87,3.87Z"/><path class="cls-12" d="M534.47,708.14a3.59,3.59,0,0,1-3.6,3.57H386.06a3.59,3.59,0,0,1-3.6-3.57V626a3.59,3.59,0,0,1,3.6-3.57H530.87a3.59,3.59,0,0,1,3.6,3.57Z"/><path class="cls-13" d="M540.12,682.92c0,1.44-1.73,2.62-3.87,2.62H380.68c-2.14,0-3.87-1.18-3.87-2.62V622.33c0-1.46,1.73-2.64,3.87-2.64H536.25c2.14,0,3.87,1.18,3.87,2.64Z"/><path class="cls-10" d="M534.47,678.81c0,1.33-1.61,2.41-3.6,2.41H386.06c-2,0-3.6-1.08-3.6-2.41V623.05c0-1.34,1.61-2.42,3.6-2.42H530.87c2,0,3.6,1.08,3.6,2.42Z"/><path class="cls-13" d="M393.17,716.52H382.89a3.82,3.82,0,0,1-3.75-3.88v-7.3h-2.33v8.86a3.87,3.87,0,0,0,3.87,3.87h12.49Z"/><path class="cls-13" d="M538.81,705.34v7.3a3.82,3.82,0,0,1-3.75,3.88h-6.7v1.55h8.91a3.87,3.87,0,0,0,3.87-3.87v-8.86Z"/><path class="cls-14" d="M411.6,681.22v12.91h17.78V681.22Zm15.86,10.25H413.53v-7.58h13.93Z"/><path class="cls-14" d="M485.23,681.22v12.91H503V681.22Zm15.87,10.25H487.16v-7.58H501.1Z"/><path class="cls-5" d="M425.17,348.54c-2.52,12.39-4,23.09-4,23.09l-19.91,98.61c0,.15-.08.3-.12.47a17.4,17.4,0,0,0,33.8,8.25h0l26.33-96.51,6.1-20.62s.3-1,.76-2.86Z"/><path class="cls-6" d="M463.76,565.21S474.53,576.3,477.08,588c0,0,2.86,5.32,5.78,7.74,0,0-7.14,3.11-10.42-3.21,0,0-1.34-8.14-9.39-9,0,0-7.58-3.92-9.75-10s-.37-9.76,1.57-11.54C454.87,561.94,460.59,561.76,463.76,565.21Z"/><path class="cls-5" d="M465.76,597.48c-.05-2.41-1.61-4.33-3.49-4.29h0c-1.88,0-3.34,2-3.29,4.45l.43,18.94c.06,2.43,1.62,4.34,3.49,4.3h0c1.88,0,3.35-2,3.29-4.45Z"/><path class="cls-5" d="M457.35,594.54c-.05-2.68-1.62-4.82-3.5-4.78h0c-1.86,0-3.33,2.26-3.28,4.94l.48,21.1c.06,2.68,1.64,4.82,3.51,4.78h0c1.87-.05,3.34-2.25,3.28-4.94Z"/><path class="cls-5" d="M449.88,592.66a3.59,3.59,0,0,0-3.47-3.7h0a3.6,3.6,0,0,0-3.31,3.85l.38,16.36a3.61,3.61,0,0,0,3.47,3.71h0a3.61,3.61,0,0,0,3.31-3.86Z"/><path class="cls-5" d="M442.71,586.77a3.26,3.26,0,0,0-3.46-3h0a3.27,3.27,0,0,0-3.33,3.2l.31,13.48a3.27,3.27,0,0,0,3.47,3h0a3.26,3.26,0,0,0,3.32-3.18Z"/><path class="cls-5" d="M463.76,565.21s-5.74-6.33-9.38-10.75c-1.44-1.74-7.61-11.58-9.84-15.34l0,0c-1-8.37-5.74-37.65-9.45-56.35a17.46,17.46,0,0,0-.25-4.06A16.66,16.66,0,1,0,402,484.8a16.5,16.5,0,0,0,2.23,5.75c5.56,16.34,19.07,45.18,24.14,55.85l0,0c.25.49,5.51,16.93,5.51,16.93l.59,5.29c.6,5.28,0,16.16,2.17,20.14s28.56,13.61,28.56,13.61C468.28,591.26,463.76,565.21,463.76,565.21Z"/><path class="cls-7" d="M465.43,404.12c.2-.66.42-1.31.59-2l12.72-52.39c4.31-17.73-4.34-35-19.3-38.68s-30.62,7.78-34.92,25.5L411.78,389c-.17.68-.27,1.36-.4,2Z"/><path class="cls-2" d="M605.25,981.64l-2.36-5.51s3.2-1.37,9.15-4l2.4,5.5C608.46,980.27,605.25,981.64,605.25,981.64Z"/><path class="cls-2" d="M620,975.22l-2.42-5.49c5-2.21,11.24-5,18.53-8.21l2.44,5.48C631.26,970.26,625,973,620,975.22Zm24.1-10.71L641.64,959c5.63-2.53,11.8-5.31,18.46-8.33l2.48,5.46C655.92,959.2,649.74,962,644.1,964.51Zm24-10.86-2.49-5.46q8.71-4,18.39-8.44l2.52,5.45Q676.84,949.67,668.11,953.65Zm23.93-11-2.52-5.45q8.82-4.08,18.34-8.54l2.54,5.44Q700.89,938.55,692,942.66Zm23.85-11.13-2.55-5.43q8.89-4.19,18.29-8.64l2.58,5.42Q724.81,927.35,715.89,931.53Zm23.8-11.26-2.59-5.41q8.92-4.26,18.24-8.74l2.61,5.4Q748.62,916,739.69,920.27Zm23.72-11.38-2.61-5.41q8.94-4.32,18.18-8.84l2.64,5.39Q772.37,904.56,763.41,908.89Zm23.66-11.52L784.43,892q8.94-4.4,18.13-9l2.66,5.38Q796,893,787.07,897.37Zm23.59-11.66L808,880.34q9-4.46,18.08-9.06l2.7,5.36Q819.63,881.25,810.66,885.71Zm23.51-11.8-2.7-5.36q8.92-4.51,18-9.16l2.74,5.34Q843.13,869.38,834.17,873.91ZM857.61,862l-2.74-5.34q8.93-4.57,18-9.28l2.77,5.32Q866.56,857.37,857.61,862ZM881,849.86l-2.78-5.32q8.89-4.66,17.88-9.41l2.81,5.3Q889.91,845.19,881,849.86Zm23.27-12.28-2.82-5.29q8.9-4.72,17.81-9.54l2.85,5.28Q913.15,832.85,904.25,837.58Zm23.16-12.43-2.86-5.28q8.85-4.79,17.7-9.66l2.89,5.26Q936.28,820.35,927.41,825.15Zm23.05-12.61-2.91-5.25c5.94-3.29,11.88-6.6,17.66-9.84l2.94,5.23C962.36,805.93,956.4,809.25,950.46,812.54Zm23-12.85-3-5.23c6-3.36,11.88-6.74,17.61-10l3,5.2C985.36,792.93,979.42,796.32,973.46,799.69Zm22.9-13.09-3-5.19c5.89-3.41,11.76-6.84,17.44-10.18l3.05,5.17C1008.15,779.75,1002.27,783.19,996.36,786.6Zm22.71-13.29-3.05-5.17c5.8-3.44,11.63-6.93,17.32-10.37l3.11,5.13C1030.74,766.35,1024.9,769.86,1019.07,773.31Zm22.57-13.56-3.12-5.12c5.83-3.56,11.61-7.12,17.19-10.6l3.17,5.09C1053.29,752.61,1047.49,756.19,1041.64,759.75ZM1064,745.9l-3.19-5.08c5.73-3.6,11.47-7.24,17-10.83l3.25,5C1075.54,738.63,1069.78,742.29,1064,745.9Zm22.2-14.17-3.27-5c5.74-3.73,11.41-7.47,16.85-11.11l3.34,5C1097.68,724.24,1092,728,1086.23,731.73Zm22-14.54-3.35-5c5.65-3.82,11.25-7.66,16.64-11.41l3.43,4.92C1119.5,709.5,1113.87,713.36,1108.19,717.19Zm21.7-15-3.46-4.91c5.57-3.92,11.08-7.88,16.38-11.76l3.55,4.84C1141,694.31,1135.49,698.29,1129.89,702.24Zm21.36-15.44-3.57-4.82c5.51-4.09,10.92-8.19,16.06-12.18l3.68,4.74C1162.24,678.56,1156.8,682.68,1151.25,686.8Zm21-16-3.71-4.71c5.41-4.26,10.67-8.53,15.66-12.68L1188,658C1183,662.2,1177.66,666.5,1172.21,670.79Zm20.45-16.7-3.88-4.57c5.26-4.46,10.35-8.93,15.12-13.27l4,4.44C1203.12,645.08,1198,649.59,1192.66,654.09Zm19.77-17.53-4.09-4.39c5.07-4.72,9.91-9.43,14.39-14l4.29,4.19C1222.48,627,1217.57,631.78,1212.43,636.56ZM1231.26,618l-4.35-4.13c4.79-5.05,9.27-10.08,13.32-14.93l4.61,3.84C1240.71,607.7,1236.14,612.82,1231.26,618Z"/><path class="cls-2" d="M1248.14,598.71l-4.69-3.75c2.1-2.62,4.12-5.26,6-7.83l4.85,3.54C1252.36,593.32,1250.29,596,1248.14,598.71Z"/><path class="cls-4" d="M171.45,664c-5.34-4.42-8.45-6.89-8.48-6.91l3.09-6.21s3.19,2.53,8.59,7Z"/><path class="cls-4" d="M370.11,931.65l-5.87-2a69.82,69.82,0,0,0,.65-20.1c-.13-1.26-.29-2.55-.48-3.83l5.92-1c.21,1.42.39,2.84.53,4.24A78.87,78.87,0,0,1,370.11,931.65Zm-7-33.15a140.88,140.88,0,0,0-7.59-23.35L360.8,872a149.28,149.28,0,0,1,8.07,24.85Zm-10.56-30.08c-3.19-6.89-7-14.14-11.4-21.54l4.81-4.2c4.51,7.64,8.47,15.13,11.78,22.27Zm-15.17-27.75c-4-6.46-8.52-13.19-13.39-20l4.43-4.78c5,7,9.57,13.82,13.67,20.41Zm-17.61-25.81c-4.52-6.11-9.43-12.44-14.6-18.81l4.15-5.15c5.24,6.46,10.22,12.88,14.81,19.08Zm-19.11-24.31c-4.86-5.84-10-11.86-15.4-17.88l3.94-5.4c5.41,6.08,10.65,12.16,15.56,18.07ZM280.5,767.42c-5.09-5.62-10.47-11.38-16-17.13l3.76-5.59c5.56,5.8,11,11.61,16.12,17.27Zm-20.84-22.17c-5.28-5.43-10.81-11-16.43-16.49l3.61-5.74c5.66,5.55,11.23,11.14,16.54,16.6ZM238.25,723.9c-5.44-5.27-11.08-10.63-16.79-15.94l3.48-5.87c5.74,5.34,11.42,10.74,16.89,16Zm-21.87-20.64c-5.62-5.17-11.38-10.36-17.1-15.43l3.35-6c5.76,5.1,11.55,10.32,17.2,15.51Zm-22.28-20c-5.86-5.13-11.72-10.16-17.4-14.93l3.23-6.09c5.72,4.8,11.61,9.85,17.5,15Z"/><path class="cls-4" d="M363.36,950.53l-5-4.38a54.64,54.64,0,0,0,4.28-10l5.62,3A61.27,61.27,0,0,1,363.36,950.53Z"/><path class="cls-2" d="M1014.08,999l-2.33-4.49,9.51-4.39,2.31,4.5C1017.5,997.41,1014.08,999,1014.08,999Z"/><path class="cls-2" d="M1103.25,952.72l2.28,4.51,19.56-8.81-2.27-4.51C1116.2,946.88,1109.65,949.83,1103.25,952.72Z"/><path class="cls-2" d="M1077.85,964.23l2.29,4.51c6.27-2.85,12.8-5.82,19.53-8.86l-2.28-4.51C1090.66,958.41,1084.12,961.38,1077.85,964.23Z"/><path class="cls-2" d="M1128.69,941.27l2.27,4.52,19.58-8.75-2.25-4.52C1141.74,935.43,1135.19,938.36,1128.69,941.27Z"/><path class="cls-2" d="M1052.46,975.8l2.31,4.5c6-2.76,12.58-5.75,19.51-8.9l-2.29-4.51Z"/><path class="cls-2" d="M1027.09,987.44l2.31,4.49,19.52-8.95-2.31-4.5C1039.05,981.94,1032.46,985,1027.09,987.44Z"/><path class="cls-2" d="M1231.05,896.6l2.13,4.57c7.4-3.08,14.09-5.81,19.86-8.1l-2-4.61C1245.19,890.76,1238.48,893.5,1231.05,896.6Z"/><path class="cls-2" d="M1272.91,880.38c-4,1.27-9.33,3.19-15.87,5.72l2,4.63c6.45-2.49,11.69-4.38,15.58-5.62l4.58-1.46-1.69-4.74Z"/><path class="cls-2" d="M1154.17,929.91l2.25,4.52c6.58-2.92,13.15-5.82,19.62-8.67l-2.23-4.53C1167.33,924.08,1160.76,927,1154.17,929.91Z"/><path class="cls-2" d="M1179.71,918.64l2.22,4.54c6.7-2.94,13.28-5.81,19.67-8.57l-2.2-4.55C1193,912.83,1186.41,915.7,1179.71,918.64Z"/><path class="cls-2" d="M1205.32,907.51l2.19,4.55c7.06-3,13.7-5.86,19.74-8.4l-2.15-4.57C1219.05,901.63,1212.39,904.47,1205.32,907.51Z"/></svg>