<svg id="Layer_1" data-name="Layer 1" xmlns="http://www.w3.org/2000/svg" viewBox="0 0 1224 780.53"><defs><style>.cls-1{fill:#9cd880;}.cls-2{fill:#97c0dd;}.cls-3{fill:#e3846e;}.cls-4{fill:#fce67a;}.cls-5{fill:#9b9b9b;}.cls-6{fill:#d9d9d9;}.cls-7{fill:#e0ce85;}.cls-8{fill:#7b7b7b;}.cls-9{fill:#383220;}.cls-10{fill:#95aa81;}.cls-11{fill:#203d2b;}.cls-12{fill:#b57e66;}.cls-13{fill:#86a8b7;}.cls-14{fill:#202b38;}.cls-15{fill:#472020;}.cls-16{fill:#202020;}</style></defs><path class="cls-1" d="M1197.21,83.48a2.53,2.53,0,0,0-2.63,2.38l-5.09,42.27-41.38-1.65a2.52,2.52,0,0,0-2.43,2.58l-3.63,90.67-1.77-8.28a2.52,2.52,0,0,0-2.84-2.12l-8.1,1.74L1131.8,182a2.51,2.51,0,0,0-2.09-2.86l-29-2.46,5.64-24.53a2.51,2.51,0,0,0-1.67-3.12l-44-10.12a2.53,2.53,0,0,0-2.87,2.09l-11.57,50.33-15.07-.6a2.5,2.5,0,0,0-2.43,2.57l-1.68,41.9-9.13.1-3.09-19.24a2.52,2.52,0,0,0-2.73-2.27l-44.56,7.15a2.53,2.53,0,0,0-1.88,3l4.43,27.56-21,4.52,3.31-83a2.51,2.51,0,0,0-2.22-2.76l-45.1-1.8a2.52,2.52,0,0,0-2.43,2.57l-5.45,136.46-40.92,8.8a2.52,2.52,0,0,0-1.72,3.1l18.66,86.79a57.48,57.48,0,0,0-16.38,3.12l-23.68-67a1.67,1.67,0,0,0-2-1.19l-27.64,9.77a1.68,1.68,0,0,0-.82,2.2l6.18,17.48-9.23-4.14a1.67,1.67,0,0,0-2.12,1l-21.5,47.9v-.62a1.69,1.69,0,0,0-1.55-1.77l-29.3.67a1.69,1.69,0,0,0-1.48,1.84L744,427c-3.61,1-7.23,1.87-10.9,2.53l18.56-41.36a1.68,1.68,0,0,0-.64-2.27l-26.73-12a1.68,1.68,0,0,0-2.12,1l-20,44.66-.84-17.46a1.79,1.79,0,0,0-1.6-1.9l-29.27,1.41a1.8,1.8,0,0,0-1.42,2l2.81,58.3-22.3,1.87a1.67,1.67,0,0,0-1.67,1.66l2.45,29.2a1.69,1.69,0,0,0,1.93,1.36l16.19-1.36-1.6,3.57c-2.14,3.69-4.48,7.31-6.48,11.28-2.29,4.56-4.08,9.12-6.29,13.43l-7.24-3.24,5.88-13.09a1.67,1.67,0,0,0-.64-2.26l-26.74-12a1.67,1.67,0,0,0-2.12,1l-15.61,34.77-19.36-8.69a1.69,1.69,0,0,0-2.12,1l-9.54,21.27-13.22,1.6.93-15.48a1.79,1.79,0,0,0-1.39-2.06L549,525l-17.55-34.66a1.79,1.79,0,0,0-2.24-1.08l-17.48,8.85L513.39,471A1.79,1.79,0,0,0,512,469l-29.26-1.75c-.83-.05-1.56.79-1.63,1.88l-3,50.48-16.76-1c-.83-.05-1.56.79-1.63,1.88L459,533.14l-9.74-39.47a1.68,1.68,0,0,0-1.9-1.39l-28.45,7a1.69,1.69,0,0,0-1,2.12l10.08,40.83-18.71.43a1.68,1.68,0,0,0-1.47,1.83l.38,16.73c-2.8.34-5.63.53-8.5.64l.14-2.38a1.67,1.67,0,0,0-1.4-1.89L372.09,556l-.51-22.25A1.68,1.68,0,0,0,370,532l-29.3.67a1.68,1.68,0,0,0-1.47,1.84l.67,29.4c-4.73.37-9.56.77-14.39,1L318,515.52a1.67,1.67,0,0,0-1.77-1.55l-29,4.45a1.68,1.68,0,0,0-1.22,2l5.93,38.64c-6.95-6-7.36-16.24-9-26.26a69.47,69.47,0,0,0-2.86-11.39l24.82-90.37c.26-1-.56-2-1.83-2.37l-42.86-11.77,11-43.55a2.11,2.11,0,0,0-1.81-2.32l-40.57-10.23-9.11-79.5a2.12,2.12,0,0,0-2.52-1.52l-44.85,5.14c-1.28.14-2.22,1.06-2.11,2.05l13,113.41A103.38,103.38,0,0,0,162,392.73a42.37,42.37,0,0,0-7-1.06l-3.92-50a2.12,2.12,0,0,0-2.46-1.61l-21.66,1.7-16.18-42.87A2.12,2.12,0,0,0,108,298L67.81,313.16l7.58-27.6c.27-1-.55-2-1.83-2.38l-35.94-9.87.56-18.93a2.12,2.12,0,0,0-2.28-1.87L0,251.45V831.07H266.81l-1.11-.51,10-26.44a1.68,1.68,0,0,0-1.15-2L247.89,792l0-20.7a1.8,1.8,0,0,0-2-1.51l-15.78,0a54.19,54.19,0,0,1,1.25-6.41h5.45l44.86,19.13a1.77,1.77,0,0,0,2.4-.61l11.51-27a1.79,1.79,0,0,0-1.22-2.16l-26.91-11.48,0-8.79a1.79,1.79,0,0,0-2-1.51l-12.18,0c1.39-1.06,2.84-2.06,4.32-3l46.76-3.93L309.3,747a1.68,1.68,0,0,0,2.08,1.1l36.26-7.86a56.46,56.46,0,0,1,13.95,36.38l-9.2,31.09a64.4,64.4,0,0,1-28,23.41H1224V86.71ZM67.62,357.09c-3.66-7.57-3-19-3.86-29.18l2-7.26,21,55.67C80.55,369.46,71.81,365.77,67.62,357.09Zm442,177.1.83-13.84,7.25,14.33Zm10.62,9.89.23-3.93,1.73,3.41ZM805.67,428.37,818.9,398.9l10,28.26C821.92,429.13,813.53,429,805.67,428.37Zm139.24-31.91-1.4.26,1.59-39.8L953.5,396A40.22,40.22,0,0,0,944.91,396.46Z" transform="translate(0 -83.47)"/><path class="cls-2" d="M1224,86.71l-26.79-3.23a2.53,2.53,0,0,0-2.63,2.38l-5.09,42.27-41.38-1.65a2.52,2.52,0,0,0-2.43,2.58l-3.63,90.67-1.77-8.28a2.52,2.52,0,0,0-2.84-2.12l-8.1,1.74L1131.8,182a2.51,2.51,0,0,0-2.09-2.86l-29-2.46,5.64-24.53a2.51,2.51,0,0,0-1.67-3.12l-44-10.12a2.53,2.53,0,0,0-2.87,2.09l-11.57,50.33-15.07-.6a2.5,2.5,0,0,0-2.43,2.57l-1.68,41.9-9.13.1-3.09-19.24a2.52,2.52,0,0,0-2.73-2.27l-44.56,7.15a2.53,2.53,0,0,0-1.88,3l4.43,27.56-21,4.52,3.31-83a2.51,2.51,0,0,0-2.22-2.76l-45.1-1.8a2.52,2.52,0,0,0-2.43,2.57l-5.45,136.46-40.92,8.8a2.52,2.52,0,0,0-1.72,3.1l18.66,86.79a57.48,57.48,0,0,0-16.38,3.12l-23.68-67a1.67,1.67,0,0,0-2-1.19l-27.64,9.77a1.68,1.68,0,0,0-.82,2.2l6.18,17.48-9.23-4.14a1.67,1.67,0,0,0-2.12,1l-21.5,47.9v-.62a1.69,1.69,0,0,0-1.55-1.77l-29.3.67a1.69,1.69,0,0,0-1.48,1.84L744,427c-3.61,1-7.23,1.87-10.9,2.53l18.56-41.36a1.68,1.68,0,0,0-.64-2.27l-26.73-12a1.68,1.68,0,0,0-2.12,1l-20,44.66-.84-17.46a1.79,1.79,0,0,0-1.6-1.9l-29.27,1.41a1.8,1.8,0,0,0-1.42,2l2.81,58.3-22.3,1.87a1.67,1.67,0,0,0-1.67,1.66l2.45,29.2a1.69,1.69,0,0,0,1.93,1.36l16.19-1.36-1.6,3.57c-2.14,3.69-4.48,7.31-6.48,11.28-2.29,4.56-4.08,9.12-6.29,13.43l-7.24-3.24,5.88-13.09a1.67,1.67,0,0,0-.64-2.26l-26.74-12a1.67,1.67,0,0,0-2.12,1l-15.61,34.77-19.36-8.69a1.69,1.69,0,0,0-2.12,1L576.85,541,584,564.57l-9.64,20.07,23.29-2.41,4,30.51-39.34,5.62-16.86-14.45-17.66,17.66,24.08,24.09,32.92,13.65,4,27.3-29.71,3.21,2.41,28.9,36.93-2.41,12,16.06-16.05,18.47,20.87,24.08h36.93l.81,26.5,20.07,24.09.29,5.56H1224ZM805.67,428.37,818.9,398.9l10,28.26C821.92,429.13,813.53,429,805.67,428.37Zm139.24-31.91-1.4.26,1.59-39.8L953.5,396A40.22,40.22,0,0,0,944.91,396.46Z" transform="translate(0 -83.47)"/><path class="cls-3" d="M1224,86.71l-26.79-3.23a2.53,2.53,0,0,0-2.63,2.38l-5.09,42.27-41.38-1.65a2.52,2.52,0,0,0-2.43,2.58l-3.63,90.67-1.77-8.28a2.52,2.52,0,0,0-2.84-2.12l-8.1,1.74L1131.8,182a2.51,2.51,0,0,0-2.09-2.86l-29-2.46,5.64-24.53a2.51,2.51,0,0,0-1.67-3.12l-44-10.12a2.53,2.53,0,0,0-2.87,2.09l-11.57,50.33-15.07-.6a2.5,2.5,0,0,0-2.43,2.57l-1.68,41.9-9.13.1-3.09-19.24a2.52,2.52,0,0,0-2.73-2.27l-44.56,7.15a2.53,2.53,0,0,0-1.88,3l4.43,27.56-21,4.52,3.31-83a2.51,2.51,0,0,0-2.22-2.76l-45.1-1.8a2.52,2.52,0,0,0-2.43,2.57l-5.45,136.46-40.92,8.8a2.52,2.52,0,0,0-1.72,3.1l11.71,54.43L892,372l10,40,19-2,6,29-39,7,3,26,29,24,38,23,24-9,13,29-12,4,23,18.79L996,588l-38,11-9,32,30,11,23-10,16,30-53,25,38,42-24,25-28-30-28,18,5,30,39,17-8,24,37,8,1.08,10.07H1224ZM944.91,396.46l-1.4.26,1.59-39.8L953.5,396A40.22,40.22,0,0,0,944.91,396.46Z" transform="translate(0 -83.47)"/><path class="cls-4" d="M245.17,648.87l-29.71-21.68,16.06-20.87L245.17,616l32.11-4.82-4.81-37.73L254,575l-6.42-48.17,32.48-5.41,24.82-90.37c.26-1-.56-2-1.83-2.37l-42.86-11.77,11-43.55a2.11,2.11,0,0,0-1.81-2.32l-40.57-10.23-9.11-79.5a2.12,2.12,0,0,0-2.52-1.52l-44.85,5.14c-1.28.14-2.22,1.06-2.11,2.05l13,113.41A103.38,103.38,0,0,0,162,392.73a42.37,42.37,0,0,0-7-1.06l-3.92-50a2.12,2.12,0,0,0-2.46-1.61l-21.66,1.7-16.18-42.87A2.12,2.12,0,0,0,108,298L67.81,313.16l7.58-27.6c.27-1-.55-2-1.83-2.38l-35.94-9.87.56-18.93a2.12,2.12,0,0,0-2.28-1.87L0,251.45V831.07H231.54L225.9,795.8l-16.06-16.86,10.44-41.75-12.85-8.84,8-28.9,20.88,4.82L257.21,685l36.93-.8-1.6-36.13ZM67.62,357.09c-3.66-7.57-3-19-3.86-29.18l2-7.26,21,55.67C80.55,369.46,71.81,365.77,67.62,357.09Z" transform="translate(0 -83.47)"/><rect class="cls-5" y="747.55" width="1224" height="32.98"/><path class="cls-6" d="M231.22,346l0-.32c.16-1.28-.9-2.24-2.63-2.63a5.34,5.34,0,0,0-2.39-4.47L227.66,351a9,9,0,0,0,1.73-1l-.38,2.5h0a8.17,8.17,0,0,1-.17.91,8,8,0,0,1-.7,1.76l.27,2.39a10.08,10.08,0,0,0,2.2-4.14,10.52,10.52,0,0,0,.21-1.12h0l.85-5.53A.66.66,0,0,0,231.22,346ZM173,364.86a4.78,4.78,0,0,1-2.11-2,5,5,0,0,1-.36-3.08h0l.38-2.86a4.26,4.26,0,0,0,2,.93c.17,3.13,2.08,5.23,4.79,4.9l1.21-.15-2-17.1a11,11,0,0,0-2.84,4.42c-1.87.82-3.24,2-3.47,3.27,0,0-.07,0-.1,0a1.29,1.29,0,0,0-1,1l-.77,5.81h0a6.64,6.64,0,0,0,.48,4,7.13,7.13,0,0,0,4.59,3.36,24.49,24.49,0,0,0,5.75.88l-.21-1.88A16.42,16.42,0,0,1,173,364.86Z" transform="translate(0 -83.47)"/><path class="cls-7" d="M231.22,346l0-.32c.16-1.28-.9-2.24-2.63-2.63-.22-3.16-2.14-5.27-4.82-4.92l-43.31,5.52c-2.69.33-5.3,3-6.43,6.27-1.87.82-3.24,2-3.47,3.27,0,0-.07,0-.1,0a1.29,1.29,0,0,0-1,1l-.77,5.81h0a6.64,6.64,0,0,0,.48,4,7.13,7.13,0,0,0,4.59,3.36,29.15,29.15,0,0,0,7.94.95,116.23,116.23,0,0,0,12.63-.81L171,514.17c-5.26,2.31-10.55,6-12.11,6.56-2.38.8-31.81,2.37-39.77,4S90.75,550.3,90.75,550.3s-21-5.49-37.26,22.52c-10.87,18.78,2.39,26.65,2.39,26.65L52.7,605s-14.32,8.35-15.11,25.45,22.66,55.28,22.66,55.28a370.82,370.82,0,0,1-4,37c-3.18,19.88,15.9,55.67,16.7,67.6s-4,40.56-4,40.56,29.83,6.76,40.56,9.15a82.38,82.38,0,0,0,19.49,2s44.54,8.75,49.31,9.54,22.27.4,20.28-2-30.22-4.77-41-7.15-52.89-11.14-52.89-11.14,13.12-33,16.7-65.21,2-66.81-1.19-76-10.34-31.81-8.75-34.59,53.69-35,53.69-35,12.72-23.46,17.1-27.83,11.53-9.15,11.13-12.73-9.15-9.54-14.32-8.35-12.32,21.87-12.32,21.87l-17.1,22.67-19.09,4.37L104,625.71,91.67,611.4l1.83-9s11.76-5.11,12.8-11.89c1.83-11.89-1.83-25.61-1.83-25.61s20.76-24.81,22-25.61,33.56-9.71,42.39-11.51L165.59,548c-.16,1,1.22,1.77,3.07,1.67s3.47-1,3.62-2l3.3-21c4.34-1.16,9.66-3.34,9.94-5.52.39-3.18-.4-8-6.76-8.75-.3,0-.62,0-.93,0l22.86-145.64c7.13-.9,13.6-2,18.73-3.76a24.07,24.07,0,0,0,7.26-3.74,10.87,10.87,0,0,0,3.93-5.81,10.52,10.52,0,0,0,.21-1.12h0l.85-5.53A.66.66,0,0,0,231.22,346ZM229,352.47h0a8.17,8.17,0,0,1-.17.91,8.26,8.26,0,0,1-3.06,4.48c-2.4,1.94-6.21,3.46-10.93,4.61a129.06,129.06,0,0,1-14.21,2.44,3,3,0,0,0-2.65-.75,4.75,4.75,0,0,0-3.12,1.43,116.55,116.55,0,0,1-12.68.83c-4,0-7.2-.5-9.2-1.57a4.78,4.78,0,0,1-2.11-2,5,5,0,0,1-.36-3.08h0l.38-2.86a4.26,4.26,0,0,0,2,.93c.17,3.13,2.08,5.23,4.79,4.9l43.57-5.33c2.69-.33,5.27-3,6.34-6.34a8.82,8.82,0,0,0,1.82-1.07Z" transform="translate(0 -83.47)"/><path class="cls-8" d="M69.52,831c4,.9,30.13,6.83,40,9a82.38,82.38,0,0,0,19.49,2s44.54,8.75,49.31,9.54,22.27.4,20.28-2-30.22-4.77-41-7.15-52.89-11.14-52.89-11.14,0-.11.11-.28Z" transform="translate(0 -83.47)"/><path class="cls-9" d="M230.16,534.82a14.79,14.79,0,0,0,.41-3.06c0-1.43-2.15-1.84-2.15-1.84s.51-2.25-.31-3.27-3.37-.72-3.37-.72c.41-2.76-2.35-2-3.78-1.33s-5.21,5-5.21,5-2.55-.41-3.58.41-.71,4.29-1,6.54.21,11.44-.1,13.38-4.8,13.08-4.8,13.08-5.42-12.67-8.69-18-9.91-6.85-9.91-6.85-9.09-5.92-11.24-7.46S173,530,172.94,530c-2.45-2.65-.92-5.72-.2-9.6a80.48,80.48,0,0,0,.71-10.93c.72-.92,5.83-3.27,7.05-4.91s1-4.39,1.64-6.54.51-9.4-.21-10a3.3,3.3,0,0,1-.92-3.27,7,7,0,0,0-.92-3s12.26-4.29,14.72-5.21,8.38,1.12,10.73,1.22,6.74,1.64,8.58,1.94,1.94-1.12,2.76-1.32a41,41,0,0,0,5.72-2.35c.71-.52.2-4,.2-4a6.11,6.11,0,0,0,1.84-3.27c.1-1.43-2.14-1.94-2.14-1.94a2.89,2.89,0,0,0,.4-1.84c-.1-1.12-1.73-1.43-1.94-1.53.41-1.43-.1-2.56-1.63-2.66s-2.25.82-3.48.61c-1.94-.2-8.78,2-10.31,3.27s-10,2.86-13.29,3.38-16.86,1.22-16.86,1.22-6.84-5.62-14.3-6.84-17.06,3.78-23.5,14.2a22,22,0,0,0-1.23,20.53s-3.89,9.61-5.79,12.7-7,13.91-7.25,14c-3.69,2.38-7.13,4.28-8.92,12.25s3.57,20.45,5.35,25.56,6.9,27.46,6.9,27.58a12.12,12.12,0,0,0,3,9.75s-.12,3.68-.24,3.8c-5,9.51-12.39,20.81-14.19,38.17-2.18,21.06,5.4,58,6.58,69.18s2.26,39.83,2.14,41.26c-1.3,10,1.43,68.36,1.55,71.56s1.31,2.26,1.31,2.26l.23,2.14a29.84,29.84,0,0,0-3.73,7.64c-1.19,4,3,4.79,3,4.79s1,1.8,6.29,1.8c9.58,0,9.16-2.28,9.28-2.4,3.92-.35,2.69-1.09,2.69-3s-3.62-8.36-3.62-8.36v-2.73s2.26-.12,2.74-4.4,2.14-34.6,2.14-34.6,4.16-17.71,5.47-30.79.35-45.65,1.19-54.45,2.37-32.1,2.37-32.1c2.26,5.35,6.19,18.43,6.19,20.33s3.09,24.49,3.09,24.37c.23,13,2.73,30.79,2.73,32.22.36,9.75,8.56,38,8.68,39.11s2.14,19.38,3.45,28.18,4.75,8.8,4.75,8.91c.12,3.33,2.5,8.68,2.74,10.59s-1.79,10,2.1,11.8c1.45.67,16.21-1.58,16.92-1.7s.24-3.68-.12-4.87c-1.19-5.59-7.49-18.31-7.49-18.31a8.17,8.17,0,0,0-.24-1.55c1.9-.59-.24-51.83-1.42-63.84s-1.08-15.69-.84-20.57.88-60.38-3.11-85.93a181.77,181.77,0,0,0-11.54-42.19c-.72-2.35-1.84-2.86-1.84-2.86s.2-7.66.1-7.56c2.45-3.37,2.86-10.12,2.86-10,.71-1.53,4.29-10,4.29-10s4.5,1.54,4.9,2.35,1.95,1.23,1.95,1.23,3.57,4.29,5.41,6.13a56.15,56.15,0,0,1,6.34,9c1,1.94,7.86,2.86,8.78,2.45s4.09-7,3.78-10S218.71,571,219.53,565s2.76-20.53,2.86-20.53c1.53-.41,7-5,8.07-6.24S230.16,534.82,230.16,534.82Zm-83.78-13,2.62-9.27c.59,1.07,2.5,2.85,2.26,4S146.38,521.81,146.38,521.81Z" transform="translate(0 -83.47)"/><path class="cls-10" d="M574.16,831.07h.12v-14.7h-.06c-.37-2-8.65-3.68-18.84-3.68l-1.1,0a80.44,80.44,0,0,1,2.16-12c1.51-5,11.8-24.84,11-33.13-.66-7.31-25.34-22.33-34.12-29.85s-45.17-29.87-50.94-29.36-34.13-1.76-34.13-1.76-17.81-32.37-42.66-24.09,5.52,42.16,5.52,42.16S389.42,749.08,384.81,754c-3.52,3.76-15.06,30.36-20.08,35.63S333.12,807.71,331.61,809c-1.14.95-6.3-2.26-11.78-2.26a54.2,54.2,0,0,1-3.47-4.56c-1.46-2.21-1.66-12.78-1.66-12.78v0c0-4.43-.88-10-3.41-13.49-1.44-1.69-3.32-1.78-4.68-.48-2.24-2.44-7.1-12.21-11.66-21.17l-11.88,26.4c4.82,3.39,11.6,13.7,13.72,16.67-.18,2.08.81,4.33,2.05,6.29,2.41,3.29,5.33,4.46,7.41,4.1,1.78,0,5.13.32,6.66,2.24-1.61,3.22-2.08,8.92-1.11,9.81,1.14,1,3.61,1.86,6.55,2.41,1.32,2.25,2.78,3.13,4.45.62,4.35.41,8.79.33,11.08-.27,4.77-1.26,26.35-8.78,32.87-14.31s56.46-36.63,56.46-36.63S442,778.11,445,788.39s1.51,31.37,1.51,31.37-28.36,4.26-35.14,5.77-4.26,7.78-4.26,7.78-14.05.5-19.32,1.5-14.31,8-8.53,12.05,27.6-.25,32.11-1.76-3-3.51-3-3.51a11.6,11.6,0,0,1,6.28-1.26c3.76.26,15.81.76,27.6,1.26s29.11-1,29.11-1,11,2.51,14.05,2.25,11.29,0,9.53,3,2.51,3.76,8.54,4.51,25.34-.75,28.6-3-5.77-4.77-9.78-5-7.28-2.26-2.77-3.26,21.58-7,21.58-7l-.49-1h2.54c2.4,2.33,10.42,8.42,31.79,12.42,4.36.82,8-10.31,8-10.31Zm-27.75-34.15c-3,4.27-8.54,4-8.29,7.78.11,1.53,5.27.25,6.28.76.76.38,1.23,3.65,1.75,7.73-5.55.63-9.35,1.81-9.6,3.18h-.06v4.75l-.43.71c-4.78-9.81-11.82-24.71-16-35.7C513.28,768.32,500.49,749,500.49,749s28.35,12.54,29.35,13,19.07,11.8,20.08,13.81S549.42,792.66,546.41,796.92Z" transform="translate(0 -83.47)"/><path class="cls-6" d="M319.83,806.71a54.2,54.2,0,0,1-3.47-4.56c-1.46-2.21-1.66-12.78-1.66-12.78v0c0-4.43-.88-10-3.41-13.49-1.44-1.69-3.32-1.78-4.68-.48-2.15-2.35-6.74-11.49-11.15-20.16l-11.23,26.31c4.69,4,10.6,13,12.56,15.75-.18,2.08.81,4.33,2.05,6.29,2.41,3.29,5.33,4.46,7.41,4.1,1.78,0,5.13.32,6.66,2.24-1.61,3.22-2.08,8.92-1.11,9.81,1.14,1,3.61,1.86,6.55,2.41,1.32,2.25,2.78,3.13,4.45.62,4.35.41,8.79.33,11.08-.27,1.42-.38,4.33-1.31,7.89-2.57a61.71,61.71,0,0,0,10.63-12.29l3.52-11.91c-9.65,5.68-23.24,12.33-24.3,13.22S325.31,806.71,319.83,806.71Z" transform="translate(0 -83.47)"/><path class="cls-8" d="M574.28,831H406.7a7.81,7.81,0,0,0,.44,2.29s-14.05.5-19.32,1.5-14.31,8-8.53,12.05,27.6-.25,32.11-1.76-3-3.51-3-3.51a11.6,11.6,0,0,1,6.28-1.26c3.76.26,15.81.76,27.6,1.26s29.11-1,29.11-1,11,2.51,14.05,2.25,11.29,0,9.53,3,2.51,3.76,8.54,4.51,25.34-.75,28.6-3-5.77-4.77-9.78-5-7.28-2.26-2.77-3.26,21.58-7,21.58-7l-.49-1h2.54c2.4,2.33,10.42,8.42,31.79,12.42,4.36.82,8-10.31,8-10.31l-8.79-2.11h.12Z" transform="translate(0 -83.47)"/><path class="cls-11" d="M411.42,630.15s-4.38-1.57-6.06-3.48c0,.11.11-7.53-3.71-13.7s-11.34-16.28-20-15.61-17.4,4-24.48,18.86c-1.91,4.38.23,7.53,1.46,7a36.67,36.67,0,0,0,1.46,7.19c1.24,3.36,1.8,5.38,2.36,5.83s2.25.45,2.58,1.13,3.71,6.17,6.29,7.63c.11,0-.45,5.62,3.93,3.48a28.3,28.3,0,0,1,4.83,4.49c.45.9,1,3.15,3,3.82-.11,0-4.49,6-6.74,7.75s-11,16.61-12,22.34-2.13,12-2.13,12-6.63,12-8.31,16.73a8.16,8.16,0,0,0,1,7.86s-.79,4.37-.23,5.95a62.63,62.63,0,0,0-5.5,7.07c-2.58,4-6.17,12.13-9.32,25-.45,1.57-4.71,8.53-6.06,9.66s-4.38-.79-4.94,5.05a23.27,23.27,0,0,1-4.61,5.39c-1.57,1-2.35,5-1.57,6.18a4.18,4.18,0,0,0,2.58,1.34s.57,2,1.46,2.48a6.71,6.71,0,0,0,2.92.11s.57,2.13,1.69,2.35a14.43,14.43,0,0,0,3.82-.33,2.26,2.26,0,0,0,2.13,1c1.35-.23,5.16-4.27,6.29-7.19s2.24-4.94,2.13-8.87c.11-1,6.18-8.42,11-14S368,741.2,371.67,737.27c0,.11,3.25-.12,5.28-3.48.22,0,2.92.11,4.49-4.72s7.63-23.47,10.55-25.71c0,.11,18.64,17.18,24.37,20-.11-.22,5.39,7,4.6,9.1s1.46,3.82,1.46,3.82l2.81,5a53.12,53.12,0,0,0-1.57,9.77c.11-.11-8.87,14.49-12.91,24s-10,27.06-12.58,31-4.27,7.75-4.27,9.43c0-.11-8,10.11-1.12,20.44,0,.11-4.52,6-4,10.07s15.52,3.51,21.25,3.29,6.51-3.59,6.18-6.4c.11.11,8-4.94,8-9.43,0-.12,19.87-30.21,20.44-31.22s22-9,24.59-13.81c0,.33,7.49,4.27,9.4,4.27.11-.12,14.4,12.57,19.57,21s12,20.55,13.47,23.59,9.21,6.85,16.4,7.3c.11-.12,1.12,3.36,3.59,3.48s18.83,3,25.12-.56c1.76-1,.49-6.33-1.19-12.28,0-.23-4-12-6-13.78-.12-.11.89-13.17-14.57-12.8.11.11-12.24-25.49-16.62-38.18s-18.08-28.07-18.08-28.07-1.91-9.54-4-11.11-5.39-9.21-5.39-9.21,1.12-.9-.11-4a19.42,19.42,0,0,1-1.35-4.27s.56-8.42-4.38-10.1c.11-.11-8.42-11.68-11.79-20.1a192.37,192.37,0,0,1-6.85-21.67c-.11,0,9.21,7.3,12.8,9.43a9.19,9.19,0,0,0,6.74,1.23s4.27,1,5.5-1.46c0,.23,3.93,1.58,3.93,1.58a48.9,48.9,0,0,0,3.82,13.7c3.37,8,6.62,15,6.4,20.66-.11,1.46-.11,3.14-.56,3.81s-3.48,6.29-4.16,7.53-3.93,3.93-4.26,5.16.44,2.59,2.69,2.36,3.37-2.13,3.93-2S510,726.6,510,726.6a14.34,14.34,0,0,0,1,4c.11-.23.33,3.81.78,5.16a44.62,44.62,0,0,1,.79,7.07,3.2,3.2,0,0,0,1.69,2.92s-.34,2.59,1.12,2.81,2.24-.9,2.24-2.69a31.9,31.9,0,0,1,.45-4.38s1.46-1.46,1.46-5.62.9-10.44,0-13.47a44.61,44.61,0,0,1-1.23-10.11c.11-1,1.91-14.37,2.13-20.32s.79-16.73-1.57-21.67-5.84-11.45-8-12.8-2.47-2.36-6.41-2.81c.12,0,.12-3.48-3.48-6.4,0-.22-.56-3.59-6.4-6.4s-11.56-4.71-15.94-8.76-6.74-6.28-13.59-8.86-13.36-4.38-17.52-3.26-14.48,4.6-17.51,5.05c.11-.11-6.29-1.79-8.65-.9S411.42,630.15,411.42,630.15Z" transform="translate(0 -83.47)"/><path class="cls-12" d="M1113.79,423.52c-2.55,0-5.29,2.22-6.1,5l-5.52,18.61c-.14,0-.27,0-.42,0H1067c0-3.2-.19-6.62-.54-10.32-4-41.66-26.1-65.24-30.62-66.5s-27.1-7.27-27.85-9,7.53-24.59,8.53-32.12-.5-38.64-19.07-37.64-26.09,17.82-27.6,23.34-1.51,20.07.5,24.59,10.29,6.77,9.54,10.79-21.08,9.78-23.09,10.29-36-12.23-36-12.23-4.86-41.47-6.62-43.23-5.52-5-5.52-6.77.76-12-5.27-15.56a24.38,24.38,0,0,0-4.93-2.12l25.84-90.42h.95c7.38,0,14-.35,19.2-1.78a18.65,18.65,0,0,0,6.68-3.16,10.42,10.42,0,0,0,3.71-5.63h0l1.53-5.45a.7.7,0,0,0-.33-.87l.08-.31c.33-1.27-.56-2.39-2.15-3,.21-3.23-1.36-5.63-4-5.66l-42-.46c-2.6,0-5.4,2.33-6.88,5.54-1.88.59-3.32,1.66-3.69,2.89l-.1,0a1.24,1.24,0,0,0-1.11.92L894.75,179l0,.1a7.67,7.67,0,0,0-.18,3.33,6.2,6.2,0,0,0,2.92,4.1c2.33,1.51,5.76,2.36,9.95,2.87,3.19.39,6.83.58,10.74.68l-25.6,89.41c-4.37-.23-8.36,1.07-9.56,5.22-2.26,7.77-4.27,19.32.25,20.57s10.54,5.27,10.54,5.27-5.52,4.52-4.27,11.29,1.25,33.56,9.81,47.82c4.75,7.91,27.08,23.7,28.84,26.21s30.61,71,31.86,76.78-18.31,59.47-5.52,69.51c0,0-7.52,62.48-7,85.56s1.25,74.28,2,79.8A8.54,8.54,0,0,0,950.8,711l-37,120.77s79.28,11,90.24,12.81,28.29,3.65,30.11,2.51c3.65-2.28.69-1.59-3.87-2.51S923.6,831.81,923.6,831.81l.5-1.62c.13,0,.26,0,.41,0H988a3.57,3.57,0,0,0,.46,0l-.48,1.63h.15s78.09,11,88.88,12.81,27.87,3.65,29.67,2.51c3.59-2.28.67-1.59-3.82-2.51s-105.11-12.81-105.11-12.81h0l48-162.48c4.3,15.59,8.33,29.59,9.64,31.88,3,5.27,10.28,5.77,10.28,5.77s2.26,9.28,12.3,9,33.12-7.28,32.12-14.55-19.57-11.55-19.57-11.55-10.29-73-17.07-88.07c-1.24-2.76-2.83-6.39-4.59-10.66L1117,428.47C1117.77,425.74,1116.35,423.52,1113.79,423.52ZM902.4,186.45a10.19,10.19,0,0,1-5.1-2.82,4.21,4.21,0,0,1-.95-2,6.06,6.06,0,0,1,.14-2.57l0-.08v0l.71-2.89a4,4,0,0,0,1.76,1.23c-.23,3.23,1.33,5.63,3.93,5.66l42.05.45c2.61,0,5.41-2.32,6.87-5.54a8.75,8.75,0,0,0,1.88-.83l-.7,2.47h0a7.94,7.94,0,0,1-2.86,4.35,14.12,14.12,0,0,1-4.1,2.18,38.48,38.48,0,0,1-9,1.79c-3.46.35-7.33.46-11.44.46h-.92c0-.57-1.14-1.06-2.7-1.11s-3.16.39-3.33,1v0C912.13,188,906.41,187.61,902.4,186.45Zm125.51,421.63H992.26c-.14,0-.28,0-.42,0L1006,561.79c.13,0,.26,0,.39,0h3.23C1015,573.18,1022.77,593.92,1027.91,608.08Zm-37.3,214.76a3.27,3.27,0,0,0-.44,0h-63.4a3.28,3.28,0,0,0-.43,0l14.14-46.33c.13,0,.26,0,.4,0h63a3.59,3.59,0,0,0,.46,0Zm15.94-53.68a3,3,0,0,0-.43,0h-63a3.13,3.13,0,0,0-.43,0l13.86-45.42a7.32,7.32,0,0,0,1.7.29c5,.31,14.4-.43,21.2-1.16h40.38c.15,0,.3,0,.45,0Zm16-53.68c-.15,0-.29,0-.44,0H994.17a22,22,0,0,0,2.75-4.71c2.51-6-11.29-15.31-11.29-15.31s-1.15-11.91-2.31-26.23h52.48c.15,0,.3,0,.45,0Zm15.94-53.68c-.15,0-.28,0-.43,0H982.73c-.5-6.62-1-13.39-1.31-19.49l8.18-26.8c.13,0,.25,0,.39,0h40.59c1.29,3.63,2.18,6.21,2.47,7.14.73,2.28,4.15,15.18,8.13,29.91Zm19.79-100h9.45c.15,0,.3,0,.45,0l-4.64,15.62C1061.7,572.52,1059.9,567.27,1058.23,561.83Zm12.08-7.39c-.14,0-.27,0-.42,0h-13.8c-3.53-13-6-26.49-5.72-38.39a65.33,65.33,0,0,1,.66-7.86h32.58c.15,0,.3,0,.45,0Zm15.93-53.68c-.14,0-.27,0-.42,0h-33.25c4.11-15.18,12.57-25.52,14.14-46.25h32.84a3.42,3.42,0,0,0,.44,0Z" transform="translate(0 -83.47)"/><path class="cls-8" d="M1030.31,844.62c-4.57-.91-106.71-12.81-106.71-12.81l.24-.79h-9.77l-.24.79s79.28,11,90.24,12.81,28.29,3.65,30.11,2.51C1037.83,844.85,1034.87,845.54,1030.31,844.62Zm72.51,0c-4.5-.91-105.11-12.81-105.11-12.81h0l.23-.78h-9.76l-.23.79h.15s78.09,11,88.88,12.81,27.87,3.65,29.67,2.51C1110.23,844.85,1107.31,845.54,1102.82,844.62Z" transform="translate(0 -83.47)"/><path class="cls-13" d="M1018,662l-.13-.24H982.73c-.5-6.62-1-13.39-1.31-19.49l.47-1.53L979,642l-30-11,9-32,38-11,10-26.21L983,543l12-4-13-29-24,9-6.71-4.06c-1.83,12.14-1.9,23.15,3.22,27.17,0,0-7.52,62.48-7,85.56s1.25,74.28,2,79.8A8.54,8.54,0,0,0,950.8,711l-5,16.29L951,724l4.14,4.44,1.44-4.7a7.32,7.32,0,0,0,1.7.29c5,.31,14.4-.43,21.2-1.16h18L965,687l19-9c-.23-2.76-.48-5.74-.73-8.82h19.44ZM991.45,820l-.84,2.82a3.27,3.27,0,0,0-.44,0h-63.4a3.28,3.28,0,0,0-.43,0l13.89-45.51-8.57-3.74-17.6,57.48h9.77l.27-.88c.13,0,.26,0,.41,0H988a3.57,3.57,0,0,0,.46,0l-.26.89h8.92L996,821ZM899.3,255.9h0l-2.06,51.61Z" transform="translate(0 -83.47)"/><path class="cls-6" d="M956,173.22l.08-.31c.33-1.27-.56-2.39-2.15-3,.21-3.23-1.36-5.63-4-5.66l-42-.46c-2.6,0-5.4,2.33-6.88,5.54-1.88.59-3.32,1.66-3.69,2.89l-.1,0a1.24,1.24,0,0,0-1.11.92L894.75,179l0,.1a7.67,7.67,0,0,0-.18,3.33,6.2,6.2,0,0,0,2.92,4.1,15.75,15.75,0,0,0,4.53,1.87l.08-2a9.84,9.84,0,0,1-4.78-2.72,4.21,4.21,0,0,1-.95-2,6.06,6.06,0,0,1,.14-2.57l0-.08v0l.71-2.89a4,4,0,0,0,1.76,1.23c-.21,2.92,1.06,5.15,3.23,5.57l.47-11.81a2.52,2.52,0,0,1,2.43-2.57l45.1,1.8a2.51,2.51,0,0,1,2.22,2.76l-.18,4.67a9,9,0,0,0,1.46-.68l-.7,2.47h0a8.2,8.2,0,0,1-.92,2.15l-.11,2.68a10.3,10.3,0,0,0,2.78-4.79h0l1.53-5.45A.7.7,0,0,0,956,173.22ZM883,284.66c-2.26,7.77-4.27,19.32.25,20.57a37.08,37.08,0,0,1,7.83,3.61l6.16-1.33,2.06-51.61-6.74,23.54C888.19,279.21,884.2,280.51,883,284.66Z" transform="translate(0 -83.47)"/><path class="cls-13" d="M792.16,840.65c-10.54-.5-80.3-9.78-80.3-9.78s10-18.57,13.55-27.35,5.39-41.25,7.4-56.81-4.11-36.75-3.85-51c.29-16.61-8.29-49.86-6.53-51.62,4.52-5.52,2.49-19,4.75-20.47s28.85-10.28,30.6-12,2.4-29.51,4.41-36,3.56-17.5-6.92-14.91c-4.39,1.08-7.52,11.79-7.27,15.56s-6.74,24.18-9.25,23.68-38.48,3.65-41.24,4.15-.2-2.74.3-4.75,6.52-3.76,8.78-7.78,11.8-15.81,12.55-23.08-11.54-19.83-21.58-21.58-21.08,6-25.34,18.56,3,26.85,4,27.86-2.45,9.88-2.45,9.88-18.12,4.42-26.66,6.93-6.27,24.59-6.27,24.59,2.76,20.32,2.76,31.12-1.76,24.08-3.76,36.38a9.13,9.13,0,0,0,.3,4.87,20.38,20.38,0,0,0-7.86,4.73,19.42,19.42,0,0,0-5.94,14,1,1,0,0,0,1,1v32.62h0c.16,2.09,7,3.8,15.86,4.13-1.25,15.88-3.66,38.3-4.89,41.58-1.51,4-18.82,26.1-18.57,26.1,17.31,6.27,108.65,17.31,115.43,18.06s18.07-1.25,16.81-3-70.76-9.53-76-10.79-30.61-4.26-30.11-4.26c10.54-7.28,22.08-31.37,25.84-35.89s13.56-44.66,16.31-43.66,14.56,46.67,11.8,52.2-18.07,27.35-18.07,27.35,88.33,12.29,99.12,13.55,37.14,2.51,40.15,1S802.7,841.15,792.16,840.65ZM633.69,713.17a18.31,18.31,0,0,1,7.58-4.43c3.54,3.65,11.78,1.72,12.15,4.67.15,1.17-.54,3.91-1.61,7.55-1.74-.1-3.58-.15-5.5-.15-8.15,0-15.08,1-17.75,2.31A17.52,17.52,0,0,1,633.69,713.17Z" transform="translate(0 -83.47)"/><path class="cls-8" d="M792.16,840.65c-9.73-.46-69.94-8.41-79.12-9.63H681.82l-.07.1s88.33,12.29,99.12,13.55,37.14,2.51,40.15,1S802.7,841.15,792.16,840.65ZM676,835.38c-5.27-1.25-30.61-4.26-30.11-4.26l.13-.1H619.82c0,.06-.06.1-.05.1,17.31,6.27,108.65,17.31,115.43,18.06s18.07-1.25,16.81-3S681.25,836.64,676,835.38Z" transform="translate(0 -83.47)"/><path class="cls-14" d="M782.21,506.21s5.37-5,6.51-8.3c.52-.9,1-9.59.77-12.28a7.62,7.62,0,0,1-1.79-4c-.13-.89-2.43-7.15,1.41-8.43,0,0,1.66-9.85,7.8-13.3s15.85-5.24,22.62.26,7.8,13.42,5.11,21c-.51,1.28-.89,3.2-1.4,4.86s-1,5.24-3.58,8.31-8.7,11.63-11,10.73c0-.12-2.56,4.73-2.95,5.63-.12.25,1.79.64,2.56,2.81,0,0,4.6-.89,6.52,1.15.13,0,1.79-3.45,9.59-3.45s10.86.77,13.16,1.41c0,0,7.41.12,8.82,0a1.26,1.26,0,0,1,1.54,1l11.63-.13a128.51,128.51,0,0,1-1.79-22.11c.13-2.3-1.66-17.9-2.3-21.09s0-7.16-.26-8.95-3.71-4.6-3.83-5.88-1-5.75.25-6.52,1.66-1.66,5.5-.13c0-.25,4.09-3.58,5.24-3.7s2.94-.39,4.09.38.13,2.81.51,3.2,2.81-.13,3.45.76-.13,2.82.13,3.2,2,.25,2.3,1.28-1,2-.89,2.55,1.27,1.28,1.15,2.3-2.94,2.69-3.84,3.58-3.07,2.56-4.47,2.81c.13-.12,2.94,13,5.88,23.39a263.33,263.33,0,0,1,5.49,26.59c.26,1.66,1.28,7.67.52,9.08s-5.76,2.94-8.44,3.06-19.05,3.07-20.58,3.46c0,.12.26,1.53-.51,1.78s-17.77,2.69-19.81,3.71-5.63,4.09-5.88,5.12,1.66,8.81,0,15.59-4.6,11.37-4.6,13.67-2.18,11.12,4.34,23.14c2.69,4.6,1.79,11.89,1.79,11.89s11.76,16.48,13.42,30.41a102.27,102.27,0,0,1-1.28,34.51c-2,9.34-8.56,31.83-9.33,38.73s-2.42,21.35-3.19,25.82-1.28,25.57-.9,54.45-1.27,45.25-1.91,45.63-6.52,1.16-6.52,1.16,2.43,2.17,1.91,5c-.25,1.53-2,2.43-8.56,1.79-.13,0-.77,2.81-5.62,3.07s-11-.9-11.25-1.54-1.15-8.3.76-10.22c-.12.13-3.32-1.79-3.45-3.33s4.09-76.17,5.88-81.29,5-18.41,5-27,.25-29.27.89-36.17-2.3-24.16-.89-37.71c-.13-.13-4.86,9.58-8.95,14.31-.9.9-10.35,24-14.44,36.43s-9.33,28.5-9.33,28.5.51,26.08-.51,48.45-2.05,40.78-1.79,42.69-3.33,3.2-3.33,3.2.77,6.14.13,8.56-5.24,5.88-5.24,5.88-.26,7.16-5.88,7.93-11,.89-17.38-3.45c-1.67-1.41-1.41-3.07-.13-4.48s6.13-4.21,6.13-4.21a16.33,16.33,0,0,1,5.37-5.63c.26-.12-10-2.81-10.35-3.45s2.68-57.39,5.5-71.45c1.91-8.82.76-28.89,1.91-33.49S744,705.22,745,690.4s5-43.08,11.12-55.73c4-8,5.25-20.84,6.78-21.48.13.13-.51-27.09-1.15-33.1s-3.33-19.3-2-26c.13-.13-1.4-.76-1.4-.76S753.06,566,749,572.16a81.19,81.19,0,0,1-2.55,18.54c-2.68,9.84-8.82,29.4-8.82,32.72,0,1.66.51,5.62,0,7.41s-4,6.78-4.47,8.31a2,2,0,0,1,1.4,1.92c-.12-.13,1.54.38,1.15,3.32a2.77,2.77,0,0,1,.9,3.33c-.64,1.15-6.78,5-7.93,5.24s-7.54-4.86-8.31-6.78-.63-2.69.52-5.11,7.28-14.95,7.92-16.23,1-18.92,1.66-30a141.87,141.87,0,0,1,4.09-25.69c.77-2.43,8.18-22.63,8.18-22.63s-1.66-3.19-.38-6.13c.38-.9,3.32-14.71,6-18.92s7.15-7.93,9.71-7.93S773.13,512.6,777,510A6.91,6.91,0,0,1,782.21,506.21Z" transform="translate(0 -83.47)"/><path class="cls-15" d="M1174,613.64s2.54-4.53,1.74-8a21.54,21.54,0,0,0-2.8-6.4,104.86,104.86,0,0,0-4.67-21.32c-1.06-2.94-7.86-36.12-17.59-59.31-1.47-2.8-7.73-14-8.93-22.93s-7.46-16.26-18.13-49.84a39,39,0,0,0,4,0c1.07-.14,4.4-6.27,5.6-7.6s-2.66-16.13-2.26-20.12c0-.14,2.79-1.34,3.59-2.4s-.8-3.47-.8-3.47-.26-31.72-6.13-54.78c-.13,0-2-13.06-8.39-25.32.13.13-6.63-28.08-13.86-35.19-8.14-8-19.6-10.79-23.46-12s-11.33-3.87-11.33-3.87-2.13-3.6-1.87-6.93c0-.26,4.13-9.59,5.87-12.79s2.4-18-.8-22.79-8.27-8.8-19.59-8.53-16.66,4.13-18.66,8.79-3.6,6.67-3.74,8.8,0,5.2-.13,6.66a41.94,41.94,0,0,1-3.86,4.67,1.92,1.92,0,0,0,.8,2.93,10.38,10.38,0,0,0,2.13.53,3.61,3.61,0,0,1-.53,2.54,2.38,2.38,0,0,0,0,3.06,3.07,3.07,0,0,0-.27,2.4c.4.8.93,1.47.67,2.13s-2.27,3.33,0,5.33a9.06,9.06,0,0,0,4.39,2.27s-10.13,1.2-14.79,1.73c-2.13.14-11.06-.53-16.13.67s-7.86,1.47-13.59,4.53c0,.13-17.33-.4-25.33-.13-.13.26-12.52-10.93-16-13.86s-6.53-8.13-7.73-10.93-5.2-2.14-5.2-2.14-2-2.39-2.26-4,.8-6.8-1.07-7.2-3.86,1.33-3.86,1.33-4.43-2.45-6.29-3.25-5.18-1.9-6.91-1.37-3,2.89-2.4,3.92a5.83,5.83,0,0,0-2.13,2.3,2.61,2.61,0,0,0,.12,2.31s-2.21,1.91-1.28,3.78c.13-.14-1.23,2.71,0,3.82a23,23,0,0,0,4.26,2.65c1.58,1.09,9.11,6.37,11.51,6.9a97.56,97.56,0,0,0,12,18.26c6.26,7.2,11.19,13.06,11.19,13.06s3.47,5.73,8.4,7.06,10.26,1.34,14.52,2.93,25.73,1.87,30.66,5.2,25.06,65.71,25.32,67.31-.53,29.85-.4,31.32a2.16,2.16,0,0,0,1.07,1.87s1.07,58,2.13,73.57,6.4,35.85,6.4,35.85-3.86,29.19,2,48.78c.53,1.87,1.06,23.86,4.8,36.25-.14-.26.66,13.6,1.2,15.86s6.13,2,6.13,2-5.6,14-6.13,16.53-.52,6.79.57,7.32c8.68,4.19,24.69,1.45,28.45-.6,1.4-.77,2-6.65,0-10.78-.14.13-.77-10.47-2.23-15.27,0-.13,8.12-.4,8.26-3.33s.53-6.8-.67-8c0-.14-2.66-27.73-2.26-43.85s-5.87-31.72-5.73-34,2.39-25.46,2.13-42.12-2.4-59.44-2.4-59.44,16,30.12,19.72,40.25,11.87,25.19,18.26,37.19,8.67,19,8.67,19,15.06,64.25,18.66,73.31c-.14.4-1.6,1.73.8,7.46s3.2,6.4,5.06,6.53,3.2.14,3.2.14a31,31,0,0,1-.27,6.66,82.54,82.54,0,0,1-3.46,12.53c-2.13,5.6.8,16,3.6,17.72s12.66.54,19.05-6,8.27-10.66,8.13-21.85c.11.09,1.77.68,2.27-.81a69.38,69.38,0,0,0,1.33-10.13C1176.51,616.7,1174,613.64,1174,613.64Zm-59.17-191c-3.73-5.19-7.33-19.19-7.33-19.19a2.92,2.92,0,0,0,.13-3.06c-.93-1.6-5.46-15.6-5.73-18.66s-8.13-22.93-8.8-28.66,3.74-15.19,3.74-15.19c.79,10.4,12.92,36.39,12.92,36.65.14,7.33,4,15.33,4.94,18.13s2.66,17.32,2.39,20.92,1.2,3.6,1.2,3.6-.13,1.73-.13,1.86C1116.53,419.84,1114.8,422.78,1114.8,422.64Zm5.86,12.67c0,.13-2.53-5.34-2.53-5.34s3.86.81,4.66.81,2.94,3.86,2.94,3.86-2.54,2.27-2.67,4.26C1122.93,438.9,1122.66,434.77,1120.66,435.31Z" transform="translate(0 -83.47)"/><path class="cls-15" d="M1119.62,423.52a4.89,4.89,0,0,0-4.67,4.81l-.69,18.09c-.14,0-.27,0-.41,0h-58.36a2.45,2.45,0,0,0-.38,0l.82-18.09a4.41,4.41,0,0,0-4.26-4.81,4.93,4.93,0,0,0-4.7,4.81l-19.26,413.88a4.51,4.51,0,0,0,4.49,4.81,5,5,0,0,0,4.92-4.81l1.07-23.49a2.58,2.58,0,0,0,.4,0h61c.15,0,.29,0,.44,0l-.9,23.49a4.54,4.54,0,0,0,4.52,4.81,5,5,0,0,0,4.88-4.81l15.44-413.88A4.46,4.46,0,0,0,1119.62,423.52ZM1105.83,655H1046c-.14,0-.26,0-.4,0l2.05-45c.13,0,.26,0,.39,0h59.5c.14,0,.28,0,.42,0l-1.73,45C1106.11,655.07,1106,655,1105.83,655Zm.15,7.18-1.73,45c-.14,0-.28,0-.42,0h-60.18a2.85,2.85,0,0,0-.4,0l2-45a2.58,2.58,0,0,0,.39,0h59.86A3,3,0,0,0,1106,662.22Zm1.85-59.34h-59.44c-.14,0-.26,0-.39,0l2-45a2.58,2.58,0,0,0,.39,0h59.13c.14,0,.28,0,.42,0l-1.73,45A2.85,2.85,0,0,0,1107.83,602.88Zm2-52.17h-59.08a2.45,2.45,0,0,0-.39,0l2-45c.13,0,.25,0,.39,0h58.76a2.84,2.84,0,0,0,.42,0l-1.72,45C1110.12,550.74,1110,550.71,1109.84,550.71Zm-66.91,163.68c.13,0,.26,0,.39,0h60.23c.15,0,.29,0,.43,0l-1.73,45c-.14,0-.28,0-.43,0h-60.54l-.4,0Zm12.23-260.79h58.41c.14,0,.28,0,.42,0l-1.73,45a2.84,2.84,0,0,0-.42,0h-58.72c-.13,0-.25,0-.38,0l2-45C1054.91,453.57,1055,453.6,1055.16,453.6Zm44.66,357.94h-60.91c-.13,0-.26,0-.4,0l2-45c.13,0,.26,0,.4,0h60.59a3.28,3.28,0,0,0,.43,0l-1.73,45C1100.11,811.57,1100,811.54,1099.82,811.54Z" transform="translate(0 -83.47)"/><path class="cls-9" d="M234.61,347.49h0l-.58-5.66a1,1,0,0,0-.71-.82l0-.32c-.16-1.31-1.57-2.29-3.54-2.69-1.09-3.24-3.74-5.4-6.53-5l-45.06,5.72c-2.79.35-4.82,3.1-5.07,6.51-1.76.86-2.87,2.13-2.76,3.41h-.11a1,1,0,0,0-.8,1.08l.89,6h0a8.07,8.07,0,0,0,1.68,4.11,10.78,10.78,0,0,0,5.87,3.45,34.42,34.42,0,0,0,8.72.92,119.83,119.83,0,0,0,13.23-.92l18.84,185.45c.11,1,1.67,1.74,3.48,1.56s3.2-1.18,3.1-2.22l-18.86-185.6c7.35-1,13.94-2.15,18.94-4a19.21,19.21,0,0,0,6.75-3.87,8.08,8.08,0,0,0,2.63-6A8.94,8.94,0,0,0,234.61,347.49Zm-3.89,5.74c-2,2-5.7,3.58-10.43,4.79a125.22,125.22,0,0,1-14.48,2.59,4,4,0,0,0-3-.75,3.81,3.81,0,0,0-2.92,1.49,120.25,120.25,0,0,1-13.28.94c-4.28,0-7.82-.47-10.26-1.57a7.46,7.46,0,0,1-2.85-2.08,6.34,6.34,0,0,1-1.28-3.19h0l-.44-3a6.37,6.37,0,0,0,2.39,1c1.09,3.24,3.74,5.4,6.53,5l45.06-5.72c2.79-.35,4.82-3.11,5.07-6.51a7.05,7.05,0,0,0,1.67-1.12l.26,2.57h0a7.5,7.5,0,0,1,.06.93A6.13,6.13,0,0,1,230.72,353.23Z" transform="translate(0 -83.47)"/><path class="cls-16" d="M958.49,168.12v-.32c0-1.32-1.25-2.49-3.14-3.15-.64-3.36-3-5.86-5.79-5.89l-45.42-.47c-2.81,0-5.19,2.42-5.91,5.76-1.86.61-3.12,1.72-3.19,3l-.11,0a.94.94,0,0,0-.94,1l0,6.09v.11a8.33,8.33,0,0,0,.71,3.46,9.39,9.39,0,0,0,4.28,4.26c2.91,1.57,6.84,2.46,11.49,3,3.54.41,7.51.61,11.74.71l-4,113.22c0,.64,1.43,1.22,3.24,1.28s3.29-.4,3.31-1.05l4-113.37h1c7.95,0,15-.36,20.2-1.85a15,15,0,0,0,6.34-3.29,8,8,0,0,0,2.49-5.85h0l.19-5.66A1,1,0,0,0,958.49,168.12ZM957,174.65v0a6,6,0,0,1-1.91,4.52,11.19,11.19,0,0,1-3.83,2.26,36.36,36.36,0,0,1-9.18,1.87c-3.64.36-7.77.47-12.21.47h-1c-.15-.59-1.51-1.1-3.2-1.16s-3.3.4-3.32,1.05v0c-7.09-.17-13.37-.62-18-1.83a15.08,15.08,0,0,1-6.27-2.93,6.32,6.32,0,0,1-1.57-2.09,6.24,6.24,0,0,1-.55-2.67v-.11l0-3a6.12,6.12,0,0,0,2.23,1.28c.64,3.36,3,5.86,5.78,5.89l45.42.47c2.82,0,5.2-2.42,5.91-5.76a7,7,0,0,0,1.8-.87Z" transform="translate(0 -83.47)"/><path class="cls-11" d="M328.72,778.4c-2.27-.85-4.87-8.37-4.87-8.37h0c-.89-3.26-3-7-6.52-8.69a4.81,4.81,0,0,0-5.39,1.5c-2.91-1-11.88-4.56-17.75-10.59l-11.43,28.46c6.71.07,17,3.54,20.26,4.68,0,1.82,1.7,3,3.68,3.79a14.84,14.84,0,0,0,10.64-1.41c2.44-1.07,7.18-2.9,9.46-2.07,4.94,1.78,12.88,9.9,15.83,2.4S334.16,780.45,328.72,778.4Z" transform="translate(0 -83.47)"/><path class="cls-14" d="M862.59,445.5c-1.06-2.19,2.24-9.43,2.24-9.43h0c1.6-3,2.64-7.18,1.26-10.79a4.79,4.79,0,0,0-4.93-2.63c-1.4-2.76-5.47-11.49-5.57-19.91L827.69,415.5c4.81,4.67,9.9,14.3,11.45,17.35-1.23,1.33-.84,3.35.06,5.28a14.76,14.76,0,0,0,8.68,6.31c2.51.91,7.19,2.85,8.28,5,2.35,4.69,2.5,16.05,9.8,12.65S865.11,450.73,862.59,445.5Z" transform="translate(0 -83.47)"/><path class="cls-11" d="M606.14,802.49c-.36-2-8.64-3.67-18.83-3.67s-18.47,1.63-18.83,3.67h-.07v4.76c-.32.53-.67,1.1-1,1.72a34.09,34.09,0,0,0-2.23,4.71,14.59,14.59,0,0,0-1,5,6,6,0,0,0,1.27,3.91,5.62,5.62,0,0,0,2.12,1.57,7.11,7.11,0,0,0,.89.29v16h.05c.17,2.5,8.54,4.51,18.85,4.51s18.67-2,18.85-4.51h0V802.49Zm-37.85,19.78a3.44,3.44,0,0,1-1.35-1,3.91,3.91,0,0,1-.81-2.62,12.65,12.65,0,0,1,.92-4.25,28.78,28.78,0,0,1,1.36-3.06v11Z" transform="translate(0 -83.47)"/><path class="cls-14" d="M740.42,647.24a20.63,20.63,0,0,0-28.62,0,19.35,19.35,0,0,0-5.94,14,1,1,0,0,0,1,1v32.63h0c.18,2.32,8.58,4.18,18.94,4.18s18.76-1.86,18.94-4.18h0V662a1,1,0,0,0,1.56-.8A19.43,19.43,0,0,0,740.42,647.24Zm-14.6,9.07c-8.16,0-15.08,1-17.75,2.31a17.51,17.51,0,0,1,5.12-10,18.64,18.64,0,0,1,25.83,0A17.46,17.46,0,0,1,744.21,659C742.19,657.46,734.73,656.31,725.82,656.31Z" transform="translate(0 -83.47)"/><path class="cls-8" d="M0,841.45V847c8,1.94,20.38,5,22.69,6,3.47,1.52,10.94.59,10.94.59l-9.41-11.76Z" transform="translate(0 -83.47)"/><path class="cls-10" d="M645.93,831.07c5.36-3.73,11-11.77,15.67-19.37L653,801.42l-.81-26.5h-10c-1.28,13.56-2.94,27.56-3.89,30.1-1.47,3.92-18,25.08-18.55,26.05Z" transform="translate(0 -83.47)"/><path class="cls-9" d="M92.51,838.08l-65.19.34c-.74,0-5.68,1.66-5.68,2.4A1.34,1.34,0,0,0,23,842.16H24l3.74,10.11c0,.86,1.37,1.56,3.06,1.56H81c1.69,0,5.74-3.14,5.74-4L89.79,842c1-.13,1.65-.32,3-2C93.14,839.4,94,838.13,92.51,838.08Z" transform="translate(0 -83.47)"/></svg>