<?xml version="1.0" encoding="UTF-8"?><svg id="a" xmlns="http://www.w3.org/2000/svg" viewBox="0 0 391.62 134.96"><defs><style>.b{fill:#e7e6ea;}</style></defs><path class="b" d="M15.81,31.85H5.38c-1.98,0-2.52-.74-2.52-2.84v-6.3h31.18c2.09,0,2.63,.74,2.63,2.84v6.3h-13.17V100.76h-4.94c-2.09,0-2.75-.86-2.75-3.09V31.85Z"/><path class="b" d="M43.04,36.67h4.83c2.09,0,2.63,.74,2.63,3.09v48.04c0,2.35,.33,3.33,1.98,3.95l3.4,1.11c2.42,.74,4.06,.37,5.71-1.23,1.54-1.48,2.31-3.33,2.31-5.68V36.67h4.83c1.98,0,2.64,.74,2.64,3.09v48.04c0,2.35,.22,3.33,1.98,3.95l3.4,1.11c2.42,.74,3.95,.37,5.6-1.23,1.65-1.48,2.31-3.33,2.31-5.68V36.67h4.94c1.98,0,2.52,.74,2.52,3.09v44.33c0,3.95-.11,6.3-2.31,9.51-2.2,3.09-4.17,5.19-7.58,6.92-1.21,.74-2.42,1.11-3.73,1.11-1.43,0-2.52-.25-3.95-.74l-6.26-1.98c-.77-.25-2.09-1.11-2.42-1.85-1.21,1.36-2.63,2.59-4.39,3.46-1.32,.74-2.53,1.11-3.84,1.11-1.43,0-2.52-.25-3.95-.74l-6.15-1.98c-3.51-1.11-4.5-3.46-4.5-7.66V36.67Z"/><path class="b" d="M107.05,20.99v-7.29h6.04c2.2,0,2.74,.74,2.74,2.96v7.41h-6.04c-2.09,0-2.74-.86-2.74-3.09Zm.66,15.68h4.94c1.98,0,2.52,.74,2.52,3.09v61h-4.83c-1.98,0-2.63-.74-2.63-3.09V36.67Z"/><path class="b" d="M131.75,50.99c0-3.21-.11-4.57-1.32-6.3l-2.75-3.46,4.39-4.32c.77-.74,1.21-1.11,1.76-1.11,.66,0,1.1,.37,1.54,.99l1.76,2.22c.77,.86,1.43,.99,2.2,.25,.44-.37,2.09-1.85,2.63-2.22,1.21-.86,2.31-1.23,3.62-1.23,1.43,0,2.42,.25,4.17,.74l6.15,1.98c3.51,1.11,4.5,3.46,4.5,7.66v54.58h-4.83c-2.09,0-2.63-.74-2.63-3.09V49.64c0-2.35-.33-3.33-1.98-3.95l-3.4-1.11c-2.42-.74-4.28-.49-6.26,1.11-1.32,1.23-2.09,2.96-2.09,5.8v49.27h-4.94c-1.98,0-2.52-.74-2.52-3.09V50.99Z"/><path class="b" d="M192.03,95.7l2.85-5.06c.77-1.11,1.54-1.11,2.63-.74l6.59,2.22c7.03,2.22,11.64-5.19,11.64-11.24,0-5.56-2.31-9.26-7.47-15.19l-5.16-5.93c-5.82-6.79-9-11.48-9-18.89,0-6.17,3.62-13.09,10.65-17.29,1.87-1.23,3.95-1.73,5.6-1.73,1.32,0,2.42,.25,3.51,.62l9,2.84c1.1,.37,1.1,1.23,.55,2.1l-2.85,4.94c-.66,.99-1.32,1.11-2.74,.74l-4.72-1.6c-7.25-2.22-10.98,4.57-10.98,8.89,0,5.68,2.63,8.77,6.92,13.71l5.38,6.17c5.16,5.93,8.89,11.36,8.89,19.63s-4.06,14.2-8.78,18.28c-2.52,2.35-5.38,3.46-7.79,3.46-1.32,0-2.74-.25-4.17-.74l-9.88-3.21c-1.1-.37-1.1-1.24-.66-1.98Z"/><path class="b" d="M236.38,20.99v-7.29h6.04c2.2,0,2.74,.74,2.74,2.96v7.41h-6.04c-2.09,0-2.74-.86-2.74-3.09Zm.66,15.68h4.94c1.98,0,2.52,.74,2.52,3.09v61h-4.83c-1.98,0-2.63-.74-2.63-3.09V36.67Z"/><path class="b" d="M260.42,14.69h4.94c1.98,0,2.52,.74,2.52,3.09V100.76h-4.83c-1.98,0-2.63-.74-2.63-3.09V14.69Z"/><path class="b" d="M283.59,36.67h4.83c2.09,0,2.63,.74,2.63,3.09v48.04c0,2.35,.33,3.33,1.98,3.95l3.4,1.11c2.74,.86,4.39,0,5.93-1.36,1.65-1.61,2.2-3.09,2.2-5.8V36.67h4.94c1.98,0,2.63,.74,2.63,3.09v44.33c0,3.95-.22,6.3-2.42,9.51-2.2,3.09-4.28,5.19-7.69,6.92-1.32,.74-2.53,1.11-3.84,1.11-1.43,0-2.52-.25-3.95-.74l-6.15-1.98c-3.51-1.11-4.5-3.46-4.5-7.66V36.67Z"/><path class="b" d="M336.62,36.92c1.1-.62,2.53-1.11,3.95-1.11s2.63,.37,4.06,.74l4.61,1.48c3.51,1.11,4.94,4.45,4.94,7.9,0,2.84-1.32,5.8-2.96,8.77l-5.71,11.48c-.66,1.61-1.32,2.22-3.29,2.1l-3.07-.25c-.99-.12-1.32-.74-.77-1.85l5.71-10.99c1.54-2.47,2.63-4.57,2.63-6.67,0-1.36-.33-2.72-2.09-3.21l-2.09-.74c-2.31-.74-3.95-.37-5.71,1.11-1.65,1.23-2.63,2.96-2.63,5.56v34.95c0,2.35,.33,3.33,1.98,3.95l12.63,4.08c.99,.25,1.21,1.11,.66,2.1l-2.52,4.32c-.44,.74-.88,.99-1.65,.99-.44,0-.99-.12-1.87-.37l-12.19-3.95c-3.51-1.11-4.5-3.46-4.5-7.66V52.85c0-4.69,.44-7.16,2.74-9.88,1.87-2.47,4.39-4.57,7.14-6.05Z"/><path class="b" d="M367.25,50.99c0-3.21-.11-4.57-1.32-6.3l-2.74-3.46,4.39-4.32c.77-.74,1.21-1.11,1.76-1.11,.66,0,1.1,.37,1.54,.99l1.76,2.22c.77,.86,1.43,.99,2.2,.25,.44-.37,2.09-1.85,2.64-2.22,1.21-.86,2.3-1.23,3.62-1.23,1.43,0,2.42,.25,4.17,.74l5.49,1.73c.99,.37,1.1,1.24,.55,1.98l-2.63,4.45c-.66,.99-1.65,1.36-3.07,.86l-2.53-.99c-2.2-.74-4.28-.49-6.26,1.11-1.32,1.23-2.09,2.96-2.09,5.8v49.27h-4.94c-1.98,0-2.53-.74-2.53-3.09V50.99Z"/></svg>