<?xml version="1.0" encoding="UTF-8"?><svg id="a" xmlns="http://www.w3.org/2000/svg" viewBox="0 0 130.41 130.29"><defs><style>.b{fill:#e7e6ea;}.c{fill:#443b94;}.d{fill:#1965a9;}.e{fill:#433a94;}.f{fill:#433895;}</style></defs><circle class="b" cx="65.27" cy="65.14" r="65.14"/><path class="d" d="M45.88,84.32c2.06,2.59,3.9,5.32,5.54,8.1-9.45,1.27-18.91,5.35-27.46,13.9-14.13,14.13,5.21-5.21,11.98-31.76,3.75,2.82,7.01,6.12,9.86,9.67,.02,.03,.05,.06,.08,.09Z"/><path class="d" d="M55.56,35.91c-2.81,3.69-6.1,6.91-9.64,9.73-.03,.01-.05,.03-.07,.05-2.61,2.07-5.36,3.92-8.16,5.57-1.25-9.42-5.28-18.84-13.73-27.29-14.11-14.11,5.13,5.13,31.6,11.94Z"/><path class="d" d="M84.55,45.8c-2.05-2.6-3.88-5.32-5.52-8.1,9.42-1.25,18.83-5.28,27.28-13.73,14.1-14.1-5.14,5.13-11.94,31.6-3.71-2.84-6.95-6.16-9.79-9.73,0-.02,0-.03-.03-.04Z"/><path class="d" d="M74.88,94.18c2.82-3.65,6.1-6.85,9.63-9.64,0,0,.02,0,.02,0,2.58-2.04,5.29-3.86,8.05-5.49,1.25,9.42,5.28,18.83,13.73,27.28,14.11,14.11-4.97-5.31-31.43-12.14Z"/><path class="e" d="M92.58,79.04c-2.76,1.63-5.47,3.45-8.05,5.49,0-.09-.63-.71-2.02-2.1-14.43-14.43,1.73-35.43,2.07-36.59,2.84,3.57,6.08,6.89,9.79,9.73,7.55,5.77,17.05,9.58,29,9.58,19.95,0-7.25,0-30.79,13.89Z"/><path class="c" d="M84.55,45.8c-.13,.04-.76,.67-2.08,1.99-14.25,14.25-35.02-1.5-36.55-2.15,3.54-2.82,6.83-6.04,9.64-9.73,5.77-7.55,9.58-17.04,9.58-28.99,0-19.94,0,7.25,13.89,30.78,1.64,2.78,3.47,5.5,5.52,8.1Z"/><path class="e" d="M45.8,84.23c-2.85-3.55-6.11-6.85-9.86-9.67-7.55-5.68-17.06-9.41-29.02-9.41-19.94,0,7.24,0,30.77-13.89,2.8-1.65,5.55-3.5,8.16-5.57,.12,.19,.75,.82,1.99,2.06,14.11,14.12-1.07,34.54-2.04,36.48Z"/><path class="e" d="M84.51,84.54c-3.53,2.79-6.81,5.99-9.63,9.64-5.86,7.58-9.74,17.14-9.74,29.19,.01,20,.25-7.38-13.72-30.95-1.64-2.78-3.48-5.51-5.54-8.1,.24-.18,.86-.8,2-1.94,14.71-14.71,35.98,2.16,36.63,2.16Z"/><path class="b" d="M84.53,84.53s-.01,0-.02,0c-.65,0-21.92-16.87-36.63-2.16-1.14,1.14-1.76,1.76-2,1.94-.03-.03-.06-.06-.08-.09,.97-1.94,16.15-22.36,2.04-36.48-1.24-1.24-1.87-1.87-1.99-2.06,.02-.02,.04-.04,.07-.05,1.53,.65,22.3,16.4,36.55,2.15,1.32-1.32,1.95-1.95,2.08-1.99,.02,.01,.03,.02,.03,.04-.34,1.16-16.5,22.16-2.07,36.59,1.39,1.39,2.02,2.01,2.02,2.1Z"/><path class="f" d="M45.8,84.23s.05,.06,.08,.09c-.13,.1-.15,.07-.08-.09Z"/><path class="f" d="M45.92,45.64s-.05,.03-.07,.05c-.04-.07-.01-.08,.07-.05Z"/><path class="f" d="M84.58,45.84s0-.03-.03-.04c.04-.02,.05,0,.03,.04Z"/></svg>