<?xml version="1.0" encoding="UTF-8"?><svg id="a" xmlns="http://www.w3.org/2000/svg" viewBox="0 0 540.75 134.27"><defs><style>.b{fill:#e7e6ea;}.c{fill:#443b94;}.d{fill:#1965a9;}.e{fill:#433a94;}.f{fill:#433895;}</style></defs><g><path class="b" d="M15.08,39.58H5.13c-1.88,0-2.41-.71-2.41-2.71v-6.01h29.75c1.99,0,2.51,.71,2.51,2.71v6.01h-12.57V105.31h-4.71c-1.99,0-2.62-.82-2.62-2.94V39.58Z"/><path class="b" d="M47.34,44.18h4.61c1.99,0,2.51,.71,2.51,2.94v45.82c0,2.24,.31,3.18,1.88,3.77l3.25,1.06c2.3,.71,3.88,.35,5.45-1.18,1.47-1.41,2.2-3.18,2.2-5.42V44.18h4.61c1.89,0,2.51,.71,2.51,2.94v45.82c0,2.24,.21,3.18,1.89,3.77l3.25,1.06c2.3,.71,3.77,.35,5.34-1.18,1.57-1.41,2.2-3.18,2.2-5.42V44.18h4.71c1.88,0,2.41,.71,2.41,2.94v42.29c0,3.77-.1,6.01-2.2,9.07-2.09,2.94-3.98,4.95-7.23,6.6-1.15,.71-2.3,1.06-3.56,1.06-1.36,0-2.41-.24-3.77-.71l-5.97-1.88c-.73-.24-1.99-1.06-2.3-1.77-1.15,1.3-2.51,2.47-4.19,3.3-1.26,.71-2.41,1.06-3.67,1.06-1.36,0-2.41-.24-3.77-.71l-5.87-1.88c-3.35-1.06-4.29-3.3-4.29-7.3V44.18Z"/><path class="b" d="M114.69,29.21v-6.95h5.76c2.09,0,2.62,.71,2.62,2.83v7.07h-5.76c-1.99,0-2.62-.82-2.62-2.95Zm.63,14.96h4.71c1.89,0,2.41,.71,2.41,2.94v58.19h-4.61c-1.88,0-2.51-.71-2.51-2.94V44.18Z"/><path class="b" d="M144.54,57.84c0-3.06-.1-4.36-1.26-6.01l-2.62-3.3,4.19-4.12c.73-.71,1.15-1.06,1.68-1.06,.63,0,1.05,.35,1.47,.94l1.68,2.12c.73,.82,1.36,.94,2.09,.24,.42-.35,1.99-1.77,2.51-2.12,1.15-.82,2.2-1.18,3.46-1.18,1.36,0,2.3,.24,3.98,.71l5.87,1.88c3.35,1.06,4.29,3.3,4.29,7.3v52.07h-4.61c-1.99,0-2.51-.71-2.51-2.94V56.54c0-2.24-.31-3.18-1.89-3.77l-3.25-1.06c-2.3-.71-4.08-.47-5.97,1.06-1.26,1.18-1.99,2.83-1.99,5.54v47h-4.71c-1.89,0-2.41-.71-2.41-2.94V57.84Z"/><path class="b" d="M348.37,100.48l2.72-4.83c.73-1.06,1.47-1.06,2.51-.71l6.28,2.12c6.7,2.12,11.1-4.95,11.1-10.72,0-5.3-2.2-8.83-7.12-14.49l-4.92-5.65c-5.55-6.48-8.59-10.96-8.59-18.02,0-5.89,3.46-12.49,10.16-16.49,1.78-1.18,3.77-1.65,5.34-1.65,1.26,0,2.3,.24,3.35,.59l8.59,2.71c1.05,.35,1.05,1.18,.52,2l-2.72,4.71c-.63,.94-1.26,1.06-2.62,.71l-4.5-1.53c-6.91-2.12-10.47,4.36-10.47,8.48,0,5.42,2.51,8.36,6.6,13.08l5.13,5.89c4.92,5.65,8.48,10.84,8.48,18.73s-3.88,13.55-8.38,17.43c-2.41,2.24-5.13,3.3-7.44,3.3-1.26,0-2.62-.24-3.98-.71l-9.43-3.06c-1.05-.35-1.05-1.18-.63-1.88Z"/><path class="b" d="M390.68,29.21v-6.95h5.76c2.09,0,2.62,.71,2.62,2.83v7.07h-5.76c-1.99,0-2.62-.82-2.62-2.95Zm.63,14.96h4.71c1.88,0,2.41,.71,2.41,2.94v58.19h-4.61c-1.89,0-2.51-.71-2.51-2.94V44.18Z"/><path class="b" d="M413.62,23.21h4.71c1.89,0,2.41,.71,2.41,2.94V105.31h-4.61c-1.89,0-2.51-.71-2.51-2.94V23.21Z"/><path class="b" d="M435.72,44.18h4.61c1.99,0,2.51,.71,2.51,2.94v45.82c0,2.24,.31,3.18,1.88,3.77l3.25,1.06c2.62,.82,4.19,0,5.66-1.3,1.57-1.53,2.09-2.94,2.09-5.54V44.18h4.71c1.88,0,2.51,.71,2.51,2.94v42.29c0,3.77-.21,6.01-2.3,9.07-2.09,2.94-4.08,4.95-7.33,6.6-1.26,.71-2.41,1.06-3.67,1.06-1.36,0-2.41-.24-3.77-.71l-5.87-1.88c-3.35-1.06-4.29-3.3-4.29-7.3V44.18Z"/><path class="b" d="M486.31,44.41c1.05-.59,2.41-1.06,3.77-1.06s2.51,.35,3.88,.71l4.4,1.41c3.35,1.06,4.71,4.24,4.71,7.54,0,2.71-1.26,5.54-2.83,8.36l-5.45,10.96c-.63,1.53-1.26,2.12-3.14,2l-2.93-.24c-.94-.12-1.26-.71-.73-1.77l5.45-10.48c1.47-2.36,2.51-4.36,2.51-6.36,0-1.3-.31-2.59-1.99-3.06l-1.99-.71c-2.2-.71-3.77-.35-5.45,1.06-1.57,1.18-2.51,2.83-2.51,5.3v33.34c0,2.24,.31,3.18,1.88,3.77l12.04,3.89c.94,.24,1.15,1.06,.63,2l-2.41,4.12c-.42,.71-.84,.94-1.57,.94-.42,0-.94-.12-1.78-.35l-11.63-3.77c-3.35-1.06-4.29-3.3-4.29-7.3V59.61c0-4.48,.42-6.83,2.62-9.42,1.78-2.36,4.19-4.36,6.81-5.77Z"/><path class="b" d="M515.53,57.84c0-3.06-.1-4.36-1.26-6.01l-2.62-3.3,4.19-4.12c.73-.71,1.15-1.06,1.68-1.06,.63,0,1.05,.35,1.47,.94l1.68,2.12c.73,.82,1.36,.94,2.09,.24,.42-.35,1.99-1.77,2.51-2.12,1.15-.82,2.2-1.18,3.46-1.18,1.36,0,2.3,.24,3.98,.71l5.24,1.65c.94,.35,1.05,1.18,.52,1.88l-2.51,4.24c-.63,.94-1.57,1.3-2.93,.82l-2.41-.94c-2.09-.71-4.08-.47-5.97,1.06-1.26,1.18-1.99,2.83-1.99,5.54v47h-4.71c-1.89,0-2.41-.71-2.41-2.94V57.84Z"/></g><circle class="b" cx="270.04" cy="67.13" r="65.14"/><path class="d" d="M250.65,86.31c2.06,2.59,3.9,5.32,5.54,8.1-9.45,1.27-18.91,5.35-27.46,13.9-14.13,14.13,5.21-5.21,11.98-31.76,3.75,2.82,7.01,6.12,9.86,9.67,.02,.03,.05,.06,.08,.09Z"/><path class="d" d="M260.33,37.9c-2.81,3.69-6.1,6.91-9.64,9.73-.03,.01-.05,.03-.07,.05-2.61,2.07-5.36,3.92-8.16,5.57-1.25-9.42-5.28-18.84-13.73-27.29-14.11-14.11,5.13,5.13,31.6,11.94Z"/><path class="d" d="M289.32,47.79c-2.05-2.6-3.88-5.32-5.52-8.1,9.42-1.25,18.83-5.28,27.28-13.73,14.1-14.1-5.14,5.13-11.94,31.6-3.71-2.84-6.95-6.16-9.79-9.73,0-.02,0-.03-.03-.04Z"/><path class="d" d="M279.65,96.17c2.82-3.65,6.1-6.85,9.63-9.64,0,0,.02,0,.02,0,2.58-2.04,5.29-3.86,8.05-5.49,1.25,9.42,5.28,18.83,13.73,27.28,14.11,14.11-4.97-5.31-31.43-12.14Z"/><path class="e" d="M297.35,81.03c-2.76,1.63-5.47,3.45-8.05,5.49,0-.09-.63-.71-2.02-2.1-14.43-14.43,1.73-35.43,2.07-36.59,2.84,3.57,6.08,6.89,9.79,9.73,7.55,5.77,17.05,9.58,29,9.58,19.95,0-7.25,0-30.79,13.89Z"/><path class="c" d="M289.32,47.79c-.13,.04-.76,.67-2.08,1.99-14.25,14.25-35.02-1.5-36.55-2.15,3.54-2.82,6.83-6.04,9.64-9.73,5.77-7.55,9.58-17.04,9.58-28.99,0-19.94,0,7.25,13.89,30.78,1.64,2.78,3.47,5.5,5.52,8.1Z"/><path class="e" d="M250.57,86.22c-2.85-3.55-6.11-6.85-9.86-9.67-7.55-5.68-17.06-9.41-29.02-9.41-19.94,0,7.24,0,30.77-13.89,2.8-1.65,5.55-3.5,8.16-5.57,.12,.19,.75,.82,1.99,2.06,14.11,14.12-1.07,34.54-2.04,36.48Z"/><path class="e" d="M289.28,86.53c-3.53,2.79-6.81,5.99-9.63,9.64-5.86,7.58-9.74,17.14-9.74,29.19,.01,20,.25-7.38-13.72-30.95-1.64-2.78-3.48-5.51-5.54-8.1,.24-.18,.86-.8,2-1.94,14.71-14.71,35.98,2.16,36.63,2.16Z"/><path class="b" d="M289.3,86.52s-.01,0-.02,0c-.65,0-21.92-16.87-36.63-2.16-1.14,1.14-1.76,1.76-2,1.94-.03-.03-.06-.06-.08-.09,.97-1.94,16.15-22.36,2.04-36.48-1.24-1.24-1.87-1.87-1.99-2.06,.02-.02,.04-.04,.07-.05,1.53,.65,22.3,16.4,36.55,2.15,1.32-1.32,1.95-1.95,2.08-1.99,.02,.01,.03,.02,.03,.04-.34,1.16-16.5,22.16-2.07,36.59,1.39,1.39,2.02,2.01,2.02,2.1Z"/><path class="f" d="M250.57,86.22s.05,.06,.08,.09c-.13,.1-.15,.07-.08-.09Z"/><path class="f" d="M250.69,47.63s-.05,.03-.07,.05c-.04-.07-.01-.08,.07-.05Z"/><path class="f" d="M289.35,47.83s0-.03-.03-.04c.04-.02,.05,0,.03,.04Z"/></svg>